Barrio.ufo
<glyph name="exclam" format="1">
  <advance width="242"/>
  <unicode hex="0021"/>
  <outline>
    <contour>
      <point x="101" y="123"/>
      <point x="66" y="116"/>
      <point x="58" y="74" type="curve" smooth="yes"/>
      <point x="50" y="29"/>
      <point x="82" y="-15"/>
      <point x="119" y="-15" type="curve" smooth="yes"/>
      <point x="158" y="-15"/>
      <point x="189" y="26"/>
      <point x="189" y="46" type="curve"/>
      <point x="194" y="70"/>
      <point x="180" y="123"/>
      <point x="125" y="123" type="curve" smooth="yes"/>
    </contour>
    <contour>
      <point x="62" y="714"/>
      <point x="47" y="714"/>
      <point x="47" y="673" type="curve" smooth="yes"/>
      <point x="47" y="651" type="line" smooth="yes"/>
      <point x="47" y="647"/>
      <point x="50" y="610"/>
      <point x="57" y="541" type="curve" smooth="yes"/>
      <point x="64" y="472"/>
      <point x="68" y="414"/>
      <point x="69" y="367" type="curve" smooth="yes"/>
      <point x="70" y="321"/>
      <point x="71" y="295"/>
      <point x="71" y="289" type="curve" smooth="yes"/>
      <point x="71" y="254"/>
      <point x="70" y="220"/>
      <point x="73" y="204" type="curve"/>
      <point x="74" y="187"/>
      <point x="74" y="172"/>
      <point x="97" y="173" type="curve" smooth="yes"/>
      <point x="120" y="173" type="line"/>
      <point x="148" y="173" type="line"/>
      <point x="163" y="172"/>
      <point x="179" y="173"/>
      <point x="178" y="192" type="curve" smooth="yes"/>
      <point x="178" y="207"/>
      <point x="176" y="251"/>
      <point x="176" y="279" type="curve" smooth="yes"/>
      <point x="176" y="289"/>
      <point x="176" y="296"/>
      <point x="177" y="300" type="curve" smooth="yes"/>
      <point x="178" y="304"/>
      <point x="177" y="318"/>
      <point x="175" y="343" type="curve" smooth="yes"/>
      <point x="174" y="368"/>
      <point x="174" y="401"/>
      <point x="175" y="440" type="curve"/>
      <point x="180" y="523"/>
      <point x="183" y="579"/>
      <point x="184" y="609" type="curve" smooth="yes"/>
      <point x="185" y="640"/>
      <point x="187" y="661"/>
      <point x="188" y="672" type="curve" smooth="yes"/>
      <point x="191" y="696"/>
      <point x="197" y="707"/>
      <point x="169" y="710" type="curve"/>
      <point x="124" y="713"/>
      <point x="92" y="710"/>
      <point x="75" y="711" type="curve"/>
    </contour>
  </outline>
</glyph>
<glyph name="parenleft" format="1">
  <advance width="370"/>
  <unicode hex="0028"/>
  <outline>
    <contour>
      <point x="228" y="730" type="line" smooth="yes"/>
      <point x="213" y="730"/>
      <point x="191" y="748"/>
      <point x="178" y="730" type="curve" smooth="yes"/>
      <point x="165" y="710"/>
      <point x="32" y="633"/>
      <point x="32" y="416" type="curve" smooth="yes"/>
      <point x="32" y="23"/>
      <point x="185" y="-28"/>
      <point x="205" y="-44" type="curve" smooth="yes"/>
      <point x="225" y="-59"/>
      <point x="242" y="-58"/>
      <point x="262" y="-58" type="curve" smooth="yes"/>
      <point x="283" y="-58"/>
      <point x="317" y="-50"/>
      <point x="334" y="-50" type="curve" smooth="yes"/>
      <point x="346" y="-50"/>
      <point x="347" y="-44"/>
      <point x="337" y="-33" type="curve" smooth="yes"/>
      <point x="326" y="-22"/>
      <point x="164" y="133"/>
      <point x="164" y="365" type="curve" smooth="yes"/>
      <point x="164" y="603"/>
      <point x="283" y="687"/>
      <point x="307" y="703" type="curve"/>
      <point x="330" y="720"/>
      <point x="334" y="730"/>
      <point x="310" y="730" type="curve" smooth="yes"/>
    </contour>
  </outline>
</glyph>
<glyph name="parenright" format="1">
  <advance width="383"/>
  <unicode hex="0029"/>
  <outline>
    <contour>
      <point x="64" y="743" type="line" smooth="yes"/>
      <point x="39" y="743"/>
      <point x="43" y="734"/>
      <point x="67" y="715" type="curve"/>
      <point x="92" y="699"/>
      <point x="215" y="610"/>
      <point x="215" y="364" type="curve" smooth="yes"/>
      <point x="215" y="122"/>
      <point x="46" y="-35"/>
      <point x="36" y="-50" type="curve"/>
      <point x="24" y="-62"/>
      <point x="25" y="-68"/>
      <point x="39" y="-68" type="curve" smooth="yes"/>
      <point x="58" y="-68"/>
      <point x="92" y="-75"/>
      <point x="113" y="-75" type="curve" smooth="yes"/>
      <point x="134" y="-75"/>
      <point x="151" y="-76"/>
      <point x="172" y="-61" type="curve"/>
      <point x="194" y="-48"/>
      <point x="351" y="10"/>
      <point x="351" y="417" type="curve" smooth="yes"/>
      <point x="351" y="641"/>
      <point x="214" y="722"/>
      <point x="201" y="743" type="curve"/>
      <point x="186" y="761"/>
      <point x="164" y="743"/>
      <point x="148" y="743" type="curve" smooth="yes"/>
    </contour>
  </outline>
</glyph>
<glyph name="asterisk" format="1">
  <advance width="518"/>
  <unicode hex="002A"/>
  <outline>
    <contour>
      <point x="243" y="636" type="line" smooth="yes"/>
      <point x="236" y="648"/>
      <point x="229" y="663"/>
      <point x="222" y="676" type="curve" smooth="yes"/>
      <point x="210" y="696"/>
      <point x="198" y="724"/>
      <point x="190" y="732" type="curve"/>
      <point x="182" y="744"/>
      <point x="178" y="748"/>
      <point x="170" y="740" type="curve"/>
      <point x="125" y="712" type="line"/>
      <point x="109" y="704"/>
      <point x="89" y="696"/>
      <point x="98" y="680" type="curve"/>
      <point x="102" y="664"/>
      <point x="109" y="651"/>
      <point x="121" y="632" type="curve"/>
      <point x="134" y="615"/>
      <point x="142" y="599"/>
      <point x="146" y="583" type="curve"/>
      <point x="154" y="571"/>
      <point x="161" y="567"/>
      <point x="138" y="567" type="curve" smooth="yes"/>
      <point x="61" y="567" type="line" smooth="yes"/>
      <point x="45" y="567"/>
      <point x="25" y="571"/>
      <point x="25" y="551" type="curve" smooth="yes"/>
      <point x="25" y="530"/>
      <point x="29" y="503"/>
      <point x="29" y="490" type="curve" smooth="yes"/>
      <point x="29" y="474"/>
      <point x="29" y="454"/>
      <point x="45" y="454" type="curve" smooth="yes"/>
      <point x="65" y="454"/>
      <point x="109" y="462"/>
      <point x="125" y="462" type="curve"/>
      <point x="142" y="456"/>
      <point x="170" y="467"/>
      <point x="170" y="458" type="curve" smooth="yes"/>
      <point x="170" y="446"/>
      <point x="146" y="418"/>
      <point x="134" y="394" type="curve"/>
      <point x="121" y="373"/>
      <point x="113" y="366"/>
      <point x="109" y="358" type="curve"/>
      <point x="105" y="345"/>
      <point x="98" y="341"/>
      <point x="113" y="329" type="curve"/>
      <point x="129" y="321"/>
      <point x="157" y="314"/>
      <point x="174" y="305" type="curve"/>
      <point x="186" y="297"/>
      <point x="202" y="297"/>
      <point x="210" y="310" type="curve" smooth="yes"/>
      <point x="218" y="321"/>
      <point x="239" y="361"/>
      <point x="247" y="377" type="curve"/>
      <point x="255" y="390"/>
      <point x="255" y="406"/>
      <point x="262" y="406" type="curve" smooth="yes"/>
      <point x="270" y="406"/>
      <point x="278" y="390"/>
      <point x="287" y="369" type="curve"/>
      <point x="299" y="354"/>
      <point x="311" y="333"/>
      <point x="318" y="317" type="curve"/>
      <point x="327" y="305"/>
      <point x="331" y="289"/>
      <point x="347" y="297" type="curve" smooth="yes"/>
      <point x="364" y="305"/>
      <point x="391" y="321"/>
      <point x="404" y="329" type="curve" smooth="yes"/>
      <point x="412" y="333"/>
      <point x="423" y="341"/>
      <point x="416" y="354" type="curve"/>
      <point x="403" y="370"/>
      <point x="372" y="425"/>
      <point x="364" y="438" type="curve"/>
      <point x="351" y="454"/>
      <point x="339" y="467"/>
      <point x="359" y="471" type="curve"/>
      <point x="378" y="471"/>
      <point x="440" y="474"/>
      <point x="460" y="474" type="curve"/>
      <point x="481" y="471"/>
      <point x="492" y="475"/>
      <point x="492" y="486" type="curve" smooth="yes"/>
      <point x="492" y="551" type="line"/>
      <point x="496" y="559"/>
      <point x="496" y="571"/>
      <point x="475" y="571" type="curve" smooth="yes"/>
      <point x="391" y="571" type="line"/>
      <point x="364" y="567"/>
      <point x="343" y="571"/>
      <point x="355" y="583" type="curve"/>
      <point x="364" y="594"/>
      <point x="396" y="652"/>
      <point x="404" y="672" type="curve" smooth="yes"/>
      <point x="411" y="687"/>
      <point x="428" y="704"/>
      <point x="404" y="712" type="curve" smooth="yes"/>
      <point x="383" y="720"/>
      <point x="359" y="732"/>
      <point x="351" y="740" type="curve"/>
      <point x="343" y="744"/>
      <point x="331" y="752"/>
      <point x="322" y="732" type="curve" smooth="yes"/>
      <point x="314" y="717"/>
      <point x="281" y="668"/>
      <point x="278" y="655" type="curve"/>
      <point x="270" y="639"/>
      <point x="266" y="615"/>
      <point x="255" y="615" type="curve"/>
    </contour>
  </outline>
</glyph>
<glyph name="plus" format="1">
  <advance width="500"/>
  <unicode hex="002B"/>
  <outline>
    <contour>
      <point x="299" y="408"/>
      <point x="296" y="420"/>
      <point x="296" y="448" type="curve" smooth="yes"/>
      <point x="296" y="464"/>
      <point x="295" y="473"/>
      <point x="294" y="490" type="curve"/>
      <point x="294" y="509"/>
      <point x="293" y="525"/>
      <point x="293" y="536" type="curve" smooth="yes"/>
      <point x="293" y="552"/>
      <point x="298" y="588"/>
      <point x="270" y="585" type="curve"/>
      <point x="242" y="585"/>
      <point x="225" y="585"/>
      <point x="220" y="584" type="curve" smooth="yes"/>
      <point x="215" y="584"/>
      <point x="209" y="583"/>
      <point x="203" y="581" type="curve"/>
      <point x="196" y="571"/>
      <point x="193" y="518"/>
      <point x="198" y="489" type="curve"/>
      <point x="198" y="411" type="line" smooth="yes"/>
      <point x="198" y="382"/>
      <point x="202" y="361"/>
      <point x="184" y="358" type="curve" smooth="yes"/>
      <point x="161" y="353"/>
      <point x="138" y="359"/>
      <point x="110" y="358" type="curve"/>
      <point x="87" y="361"/>
      <point x="47" y="358"/>
      <point x="35" y="358" type="curve" smooth="yes"/>
      <point x="23" y="358"/>
      <point x="12" y="347"/>
      <point x="15" y="320" type="curve"/>
      <point x="19" y="296"/>
      <point x="19" y="282"/>
      <point x="23" y="267" type="curve"/>
      <point x="23" y="251"/>
      <point x="24" y="247"/>
      <point x="41" y="247" type="curve" smooth="yes"/>
      <point x="62" y="247"/>
      <point x="136" y="251"/>
      <point x="152" y="251" type="curve"/>
      <point x="179" y="256"/>
      <point x="199" y="256"/>
      <point x="199" y="235" type="curve" smooth="yes"/>
      <point x="199" y="129" type="line"/>
      <point x="199" y="66" type="line" smooth="yes"/>
      <point x="199" y="52"/>
      <point x="199" y="31"/>
      <point x="222" y="31" type="curve" smooth="yes"/>
      <point x="242" y="31"/>
      <point x="277" y="27"/>
      <point x="285" y="27" type="curve"/>
      <point x="298" y="31"/>
      <point x="305" y="41"/>
      <point x="305" y="72" type="curve" smooth="yes"/>
      <point x="305" y="81"/>
      <point x="305" y="93"/>
      <point x="304" y="110" type="curve" smooth="yes"/>
      <point x="304" y="127"/>
      <point x="304" y="139"/>
      <point x="303" y="146" type="curve"/>
      <point x="303" y="162"/>
      <point x="302" y="200"/>
      <point x="302" y="211" type="curve" smooth="yes"/>
      <point x="302" y="231"/>
      <point x="296" y="251"/>
      <point x="312" y="256" type="curve"/>
      <point x="402" y="256" type="line"/>
      <point x="461" y="256" type="line" smooth="yes"/>
      <point x="476" y="256"/>
      <point x="487" y="262"/>
      <point x="487" y="278" type="curve" smooth="yes"/>
      <point x="487" y="330" type="line" smooth="yes"/>
      <point x="487" y="340"/>
      <point x="488" y="358"/>
      <point x="461" y="358" type="curve" smooth="yes"/>
      <point x="433" y="358"/>
      <point x="389" y="358"/>
      <point x="362" y="354" type="curve"/>
      <point x="323" y="354" type="line"/>
      <point x="308" y="355"/>
      <point x="298" y="355"/>
      <point x="298" y="358" type="curve"/>
      <point x="295" y="366"/>
      <point x="296" y="374"/>
      <point x="296" y="381" type="curve"/>
    </contour>
  </outline>
</glyph>
<glyph name="comma" format="1">
  <advance width="183"/>
  <unicode hex="002C"/>
  <outline>
    <contour>
      <point x="124" y="130" type="line"/>
      <point x="105" y="130" type="line" smooth="yes"/>
      <point x="92" y="130"/>
      <point x="80" y="123"/>
      <point x="77" y="111" type="curve"/>
      <point x="64" y="73" type="line"/>
      <point x="47" y="12" type="line"/>
      <point x="23" y="-76" type="line"/>
      <point x="23" y="-87"/>
      <point x="19" y="-96"/>
      <point x="35" y="-96" type="curve"/>
      <point x="54" y="-99"/>
      <point x="83" y="-99"/>
      <point x="96" y="-96" type="curve"/>
      <point x="103" y="-92"/>
      <point x="108" y="-76"/>
      <point x="111" y="-71" type="curve"/>
      <point x="111" y="-65"/>
      <point x="129" y="4"/>
      <point x="137" y="25" type="curve"/>
      <point x="144" y="50"/>
      <point x="153" y="69"/>
      <point x="156" y="82" type="curve"/>
      <point x="160" y="93"/>
      <point x="162" y="101"/>
      <point x="165" y="114" type="curve"/>
      <point x="172" y="127"/>
      <point x="165" y="130"/>
      <point x="156" y="130" type="curve" smooth="yes"/>
    </contour>
  </outline>
</glyph>
<glyph name="hyphen" format="1">
  <advance width="500"/>
  <unicode hex="002D"/>
  <outline>
    <contour>
      <point x="290" y="317" type="line" smooth="yes"/>
      <point x="239" y="317"/>
      <point x="207" y="316"/>
      <point x="192" y="315" type="curve" smooth="yes"/>
      <point x="178" y="314"/>
      <point x="167" y="314"/>
      <point x="158" y="314" type="curve" smooth="yes"/>
      <point x="86" y="314" type="line"/>
      <point x="69" y="317"/>
      <point x="60" y="316"/>
      <point x="60" y="310" type="curve"/>
      <point x="57" y="303"/>
      <point x="64" y="263"/>
      <point x="64" y="251" type="curve" smooth="yes"/>
      <point x="64" y="240"/>
      <point x="59" y="235"/>
      <point x="82" y="235" type="curve" smooth="yes"/>
      <point x="98" y="235"/>
      <point x="148" y="230"/>
      <point x="175" y="235" type="curve"/>
      <point x="186" y="235"/>
      <point x="202" y="236"/>
      <point x="259" y="236" type="curve" smooth="yes"/>
      <point x="318" y="237"/>
      <point x="332" y="238"/>
      <point x="345" y="238" type="curve" smooth="yes"/>
      <point x="370" y="238"/>
      <point x="405" y="241"/>
      <point x="413" y="241" type="curve" smooth="yes"/>
      <point x="426" y="241"/>
      <point x="439" y="237"/>
      <point x="439" y="248" type="curve" smooth="yes"/>
      <point x="439" y="300" type="line" smooth="yes"/>
      <point x="439" y="307"/>
      <point x="443" y="317"/>
      <point x="430" y="317" type="curve" smooth="yes"/>
      <point x="366" y="317" type="line"/>
    </contour>
  </outline>
</glyph>
<glyph name="one" format="1">
  <advance width="500"/>
  <unicode hex="0031"/>
  <outline>
    <contour>
      <point x="213" y="662"/>
      <point x="143" y="642"/>
      <point x="78" y="639" type="curve"/>
      <point x="63" y="633"/>
      <point x="55" y="627"/>
      <point x="52" y="620" type="curve" smooth="yes"/>
      <point x="50" y="613"/>
      <point x="49" y="596"/>
      <point x="50" y="569" type="curve" smooth="yes"/>
      <point x="50" y="564"/>
      <point x="51" y="560"/>
      <point x="53" y="557" type="curve"/>
      <point x="54" y="550"/>
      <point x="70" y="551"/>
      <point x="102" y="559" type="curve" smooth="yes"/>
      <point x="220" y="587" type="line"/>
      <point x="217" y="490" type="line" smooth="yes"/>
      <point x="216" y="456"/>
      <point x="216" y="422"/>
      <point x="217" y="389" type="curve"/>
      <point x="219" y="362"/>
      <point x="220" y="331"/>
      <point x="219" y="295" type="curve"/>
      <point x="219" y="205" type="line"/>
      <point x="220" y="180"/>
      <point x="220" y="161"/>
      <point x="220" y="148" type="curve" smooth="yes"/>
      <point x="220" y="135"/>
      <point x="220" y="121"/>
      <point x="219" y="105" type="curve" smooth="yes"/>
      <point x="219" y="90"/>
      <point x="203" y="82"/>
      <point x="170" y="83" type="curve"/>
      <point x="140" y="76"/>
      <point x="103" y="69"/>
      <point x="59" y="63" type="curve"/>
      <point x="49" y="60"/>
      <point x="45" y="49"/>
      <point x="47" y="29" type="curve"/>
      <point x="50" y="10"/>
      <point x="55" y="0"/>
      <point x="62" y="0" type="curve" smooth="yes"/>
      <point x="108" y="3"/>
      <point x="147" y="3"/>
      <point x="180" y="2" type="curve"/>
      <point x="234" y="4"/>
      <point x="277" y="6"/>
      <point x="309" y="8" type="curve"/>
      <point x="330" y="7"/>
      <point x="349" y="6"/>
      <point x="365" y="4" type="curve" smooth="yes"/>
      <point x="381" y="2"/>
      <point x="405" y="1"/>
      <point x="438" y="0" type="curve" smooth="yes"/>
      <point x="456" y="-1"/>
      <point x="464" y="6"/>
      <point x="463" y="20" type="curve" smooth="yes"/>
      <point x="460" y="63" type="line" smooth="yes"/>
      <point x="460" y="69"/>
      <point x="420" y="74"/>
      <point x="341" y="77" type="curve"/>
      <point x="332" y="119"/>
      <point x="335" y="225"/>
      <point x="333" y="260" type="curve"/>
      <point x="333" y="303"/>
      <point x="332" y="332"/>
      <point x="331" y="348" type="curve" smooth="yes"/>
      <point x="328" y="409" type="line"/>
      <point x="328" y="479" type="line"/>
      <point x="334" y="571" type="line"/>
      <point x="335" y="610"/>
      <point x="337" y="640"/>
      <point x="337" y="691" type="curve" smooth="yes"/>
      <point x="337" y="702"/>
      <point x="319" y="709"/>
      <point x="289" y="700" type="curve"/>
    </contour>
  </outline>
</glyph>
<glyph name="question" format="1">
  <advance width="396"/>
  <unicode hex="003F"/>
  <outline>
    <contour>
      <point x="160" y="723"/>
      <point x="134" y="717"/>
      <point x="80" y="682" type="curve" smooth="yes"/>
      <point x="63" y="671"/>
      <point x="41" y="652"/>
      <point x="22" y="631" type="curve"/>
      <point x="11" y="626"/>
      <point x="33" y="601"/>
      <point x="36" y="598" type="curve" smooth="yes"/>
      <point x="61" y="576"/>
      <point x="82" y="550"/>
      <point x="91" y="556" type="curve"/>
      <point x="108" y="571"/>
      <point x="131" y="590"/>
      <point x="148" y="598" type="curve"/>
      <point x="183" y="609"/>
      <point x="209" y="601"/>
      <point x="240" y="576" type="curve"/>
      <point x="265" y="551"/>
      <point x="266" y="516"/>
      <point x="242" y="471" type="curve"/>
      <point x="224" y="432"/>
      <point x="138" y="349"/>
      <point x="138" y="293" type="curve" smooth="yes"/>
      <point x="138" y="249"/>
      <point x="131" y="211"/>
      <point x="138" y="187" type="curve"/>
      <point x="138" y="180"/>
      <point x="152" y="173"/>
      <point x="159" y="170" type="curve"/>
      <point x="179" y="153"/>
      <point x="198" y="160"/>
      <point x="223" y="167" type="curve"/>
      <point x="230" y="170"/>
      <point x="239" y="180"/>
      <point x="242" y="191" type="curve"/>
      <point x="247" y="200"/>
      <point x="249" y="217"/>
      <point x="249" y="242" type="curve" smooth="yes"/>
      <point x="249" y="283"/>
      <point x="261" y="323"/>
      <point x="289" y="350" type="curve" smooth="yes"/>
      <point x="318" y="379"/>
      <point x="378" y="451"/>
      <point x="378" y="526" type="curve" smooth="yes"/>
      <point x="378" y="649"/>
      <point x="314" y="723"/>
      <point x="247" y="723" type="curve" smooth="yes"/>
    </contour>
    <contour>
      <point x="161" y="123"/>
      <point x="126" y="116"/>
      <point x="118" y="74" type="curve" smooth="yes"/>
      <point x="110" y="29"/>
      <point x="142" y="-15"/>
      <point x="179" y="-15" type="curve" smooth="yes"/>
      <point x="218" y="-15"/>
      <point x="249" y="26"/>
      <point x="249" y="46" type="curve"/>
      <point x="254" y="70"/>
      <point x="240" y="123"/>
      <point x="185" y="123" type="curve" smooth="yes"/>
    </contour>
  </outline>
</glyph>
<glyph name="F" format="1">
  <advance width="476"/>
  <unicode hex="0046"/>
  <outline>
    <contour>
      <point x="87" y="690"/>
      <point x="68" y="704"/>
      <point x="68" y="662" type="curve"/>
      <point x="69" y="621"/>
      <point x="70" y="571"/>
      <point x="70" y="524" type="curve" smooth="yes"/>
      <point x="70" y="477"/>
      <point x="67" y="432"/>
      <point x="67" y="388" type="curve" smooth="yes"/>
      <point x="67" y="344"/>
      <point x="68" y="317"/>
      <point x="68" y="274" type="curve" smooth="yes"/>
      <point x="68" y="231"/>
      <point x="62" y="212"/>
      <point x="62" y="169" type="curve" smooth="yes"/>
      <point x="62" y="126"/>
      <point x="64" y="92"/>
      <point x="64" y="77" type="curve" smooth="yes"/>
      <point x="64" y="62"/>
      <point x="65" y="36"/>
      <point x="65" y="24" type="curve" smooth="yes"/>
      <point x="65" y="12"/>
      <point x="62" y="5"/>
      <point x="81" y="4" type="curve" smooth="yes"/>
      <point x="97" y="4"/>
      <point x="163" y="7"/>
      <point x="191" y="4" type="curve" smooth="yes"/>
      <point x="219" y="1"/>
      <point x="237" y="-2"/>
      <point x="237" y="25" type="curve" smooth="yes"/>
      <point x="237" y="51"/>
      <point x="236" y="108"/>
      <point x="236" y="143" type="curve" smooth="yes"/>
      <point x="236" y="178"/>
      <point x="239" y="206"/>
      <point x="239" y="241" type="curve" smooth="yes"/>
      <point x="239" y="258"/>
      <point x="238" y="283"/>
      <point x="238" y="304" type="curve"/>
      <point x="237" y="316"/>
      <point x="237" y="329"/>
      <point x="237" y="342" type="curve"/>
      <point x="330" y="342" type="line" smooth="yes"/>
      <point x="353" y="342"/>
      <point x="383" y="340"/>
      <point x="400" y="340" type="curve" smooth="yes"/>
      <point x="419" y="340"/>
      <point x="423" y="343"/>
      <point x="423" y="354" type="curve" smooth="yes"/>
      <point x="423" y="365"/>
      <point x="424" y="376"/>
      <point x="424" y="387" type="curve" smooth="yes"/>
      <point x="424" y="398"/>
      <point x="420" y="404"/>
      <point x="397" y="404" type="curve" smooth="yes"/>
      <point x="374" y="404"/>
      <point x="341" y="402"/>
      <point x="318" y="402" type="curve" smooth="yes"/>
      <point x="306" y="402"/>
      <point x="287" y="401"/>
      <point x="270" y="401" type="curve"/>
      <point x="260" y="400"/>
      <point x="250" y="400"/>
      <point x="239" y="400" type="curve"/>
      <point x="239" y="424" type="line" smooth="yes"/>
      <point x="239" y="439"/>
      <point x="240" y="456"/>
      <point x="240" y="475" type="curve" smooth="yes"/>
      <point x="240" y="511"/>
      <point x="241" y="541"/>
      <point x="241" y="564" type="curve" smooth="yes"/>
      <point x="241" y="575"/>
      <point x="242" y="588"/>
      <point x="243" y="599" type="curve" smooth="yes"/>
      <point x="246" y="617" type="line"/>
      <point x="295" y="620" type="line"/>
      <point x="322" y="623"/>
      <point x="352" y="624"/>
      <point x="369" y="624" type="curve" smooth="yes"/>
      <point x="404" y="624"/>
      <point x="444" y="622"/>
      <point x="456" y="622" type="curve" smooth="yes"/>
      <point x="468" y="622"/>
      <point x="474" y="621"/>
      <point x="474" y="634" type="curve" smooth="yes"/>
      <point x="474" y="684" type="line" smooth="yes"/>
      <point x="474" y="694"/>
      <point x="466" y="699"/>
      <point x="451" y="699" type="curve" smooth="yes"/>
      <point x="435" y="699"/>
      <point x="389" y="700"/>
      <point x="367" y="700" type="curve" smooth="yes"/>
      <point x="346" y="700"/>
      <point x="275" y="694"/>
      <point x="254" y="694" type="curve" smooth="yes"/>
      <point x="234" y="694"/>
      <point x="138" y="690"/>
      <point x="114" y="690" type="curve" smooth="yes"/>
    </contour>
  </outline>
</glyph>
<glyph name="I" format="1">
  <advance width="153"/>
  <unicode hex="0049"/>
  <outline>
    <contour>
      <point x="117" y="685"/>
      <point x="123" y="706"/>
      <point x="108" y="706" type="curve" smooth="yes"/>
      <point x="93" y="706"/>
      <point x="78" y="707"/>
      <point x="71" y="707" type="curve" smooth="yes"/>
      <point x="52" y="707"/>
      <point x="55" y="683"/>
      <point x="56" y="660" type="curve"/>
      <point x="59" y="636"/>
      <point x="49" y="442"/>
      <point x="49" y="376" type="curve" smooth="yes"/>
      <point x="49" y="310"/>
      <point x="45" y="73"/>
      <point x="45" y="35" type="curve" smooth="yes"/>
      <point x="45" y="-3"/>
      <point x="39" y="-7"/>
      <point x="55" y="-7" type="curve" smooth="yes"/>
      <point x="70" y="-7"/>
      <point x="91" y="-8"/>
      <point x="100" y="-3" type="curve" smooth="yes"/>
      <point x="108" y="1"/>
      <point x="113" y="3"/>
      <point x="109" y="27" type="curve"/>
      <point x="106" y="52"/>
      <point x="103" y="227"/>
      <point x="103" y="279" type="curve" smooth="yes"/>
      <point x="103" y="330"/>
      <point x="111" y="501"/>
      <point x="111" y="555" type="curve" smooth="yes"/>
      <point x="112" y="610"/>
      <point x="113" y="648"/>
      <point x="116" y="668" type="curve"/>
    </contour>
    <contour>
      <point x="138" y="10" type="move" name="ogonek"/>
    </contour>
    <contour>
      <point x="77" y="710" type="move" name="top"/>
    </contour>
  </outline>
</glyph>
<glyph name="N" format="1">
  <advance width="676"/>
  <unicode hex="004E"/>
  <outline>
    <contour>
      <point x="126" y="723"/>
      <point x="90" y="737"/>
      <point x="87" y="698" type="curve" smooth="yes"/>
      <point x="84" y="659"/>
      <point x="84" y="620"/>
      <point x="84" y="580" type="curve" smooth="yes"/>
      <point x="84" y="540"/>
      <point x="70" y="370"/>
      <point x="67" y="322" type="curve"/>
      <point x="62" y="277"/>
      <point x="60" y="158"/>
      <point x="60" y="101" type="curve"/>
      <point x="57" y="43"/>
      <point x="60" y="29"/>
      <point x="63" y="16" type="curve" smooth="yes"/>
      <point x="66" y="3"/>
      <point x="64" y="-12"/>
      <point x="91" y="-12" type="curve" smooth="yes"/>
      <point x="118" y="-12"/>
      <point x="164" y="-10"/>
      <point x="188" y="-10" type="curve" smooth="yes"/>
      <point x="212" y="-10"/>
      <point x="244" y="-6"/>
      <point x="255" y="-6" type="curve" smooth="yes"/>
      <point x="266" y="-6"/>
      <point x="275" y="-4"/>
      <point x="274" y="12" type="curve" smooth="yes"/>
      <point x="274" y="28"/>
      <point x="270" y="79"/>
      <point x="270" y="108" type="curve" smooth="yes"/>
      <point x="270" y="138"/>
      <point x="266" y="282"/>
      <point x="266" y="351" type="curve" smooth="yes"/>
      <point x="266" y="386"/>
      <point x="264" y="445"/>
      <point x="263" y="497" type="curve" smooth="yes"/>
      <point x="260" y="592" type="line"/>
      <point x="289" y="540" type="line" smooth="yes"/>
      <point x="305" y="511"/>
      <point x="323" y="476"/>
      <point x="334" y="453" type="curve" smooth="yes"/>
      <point x="355" y="406"/>
      <point x="424" y="252"/>
      <point x="445" y="212" type="curve"/>
      <point x="464" y="172"/>
      <point x="519" y="34"/>
      <point x="527" y="16" type="curve"/>
      <point x="538" y="-3"/>
      <point x="539" y="-3"/>
      <point x="550" y="-4" type="curve" smooth="yes"/>
      <point x="561" y="-5"/>
      <point x="585" y="-1"/>
      <point x="596" y="-4" type="curve"/>
      <point x="605" y="-5"/>
      <point x="616" y="-4"/>
      <point x="615" y="16" type="curve" smooth="yes"/>
      <point x="615" y="35"/>
      <point x="610" y="147"/>
      <point x="610" y="191" type="curve" smooth="yes"/>
      <point x="610" y="236"/>
      <point x="602" y="346"/>
      <point x="605" y="400" type="curve"/>
      <point x="605" y="452"/>
      <point x="608" y="669"/>
      <point x="608" y="688" type="curve" smooth="yes"/>
      <point x="609" y="707"/>
      <point x="616" y="717"/>
      <point x="597" y="717" type="curve" smooth="yes"/>
      <point x="578" y="717"/>
      <point x="574" y="716"/>
      <point x="562" y="719" type="curve" smooth="yes"/>
      <point x="551" y="721"/>
      <point x="527" y="730"/>
      <point x="527" y="707" type="curve"/>
      <point x="523" y="611" type="line"/>
      <point x="523" y="574"/>
      <point x="525" y="500"/>
      <point x="525" y="467" type="curve" smooth="yes"/>
      <point x="524" y="432"/>
      <point x="522" y="379"/>
      <point x="523" y="326" type="curve"/>
      <point x="527" y="228" type="line"/>
      <point x="529" y="170" type="line"/>
      <point x="498" y="231" type="line" smooth="yes"/>
      <point x="481" y="266"/>
      <point x="460" y="304"/>
      <point x="448" y="329" type="curve" smooth="yes"/>
      <point x="424" y="377"/>
      <point x="361" y="520"/>
      <point x="337" y="570" type="curve" smooth="yes"/>
      <point x="313" y="621"/>
      <point x="283" y="688"/>
      <point x="275" y="704" type="curve" smooth="yes"/>
      <point x="267" y="719"/>
      <point x="255" y="724"/>
      <point x="226" y="724" type="curve" smooth="yes"/>
      <point x="198" y="724"/>
      <point x="157" y="723"/>
      <point x="141" y="723" type="curve" smooth="yes"/>
    </contour>
    <contour>
      <point x="338" y="710" type="move" name="top"/>
    </contour>
    <contour>
      <point x="338" y="0" type="move" name="bottom"/>
    </contour>
  </outline>
</glyph>
<glyph name="O" format="1">
  <advance width="544"/>
  <unicode hex="004F"/>
  <outline>
    <contour>
      <point x="185" y="714"/>
      <point x="43" y="645"/>
      <point x="43" y="357" type="curve" smooth="yes"/>
      <point x="43" y="249"/>
      <point x="60" y="-22"/>
      <point x="280" y="-22" type="curve" smooth="yes"/>
      <point x="437" y="-22"/>
      <point x="501" y="198"/>
      <point x="501" y="343" type="curve" smooth="yes"/>
      <point x="501" y="489"/>
      <point x="490" y="714"/>
      <point x="273" y="714" type="curve" smooth="yes"/>
    </contour>
    <contour>
      <point x="232" y="232"/>
      <point x="229" y="285"/>
      <point x="229" y="325" type="curve" smooth="yes"/>
      <point x="229" y="368"/>
      <point x="242" y="434"/>
      <point x="279" y="434" type="curve" smooth="yes"/>
      <point x="308" y="434"/>
      <point x="325" y="385"/>
      <point x="325" y="334" type="curve" smooth="yes"/>
      <point x="325" y="284"/>
      <point x="311" y="232"/>
      <point x="272" y="232" type="curve" smooth="yes"/>
    </contour>
    <contour>
      <point x="272" y="710" type="move" name="top"/>
    </contour>
  </outline>
</glyph>
<glyph name="S" format="1">
  <advance width="576"/>
  <unicode hex="0053"/>
  <outline>
    <contour>
      <point x="195" y="717"/>
      <point x="49" y="636"/>
      <point x="49" y="507" type="curve" smooth="yes"/>
      <point x="49" y="378"/>
      <point x="186" y="332"/>
      <point x="231" y="300" type="curve" smooth="yes"/>
      <point x="276" y="268"/>
      <point x="340" y="215"/>
      <point x="340" y="153" type="curve" smooth="yes"/>
      <point x="340" y="92"/>
      <point x="282" y="84"/>
      <point x="246" y="84" type="curve" smooth="yes"/>
      <point x="168" y="84"/>
      <point x="123" y="132"/>
      <point x="112" y="143" type="curve" smooth="yes"/>
      <point x="101" y="154"/>
      <point x="94" y="169"/>
      <point x="83" y="158" type="curve" smooth="yes"/>
      <point x="72" y="147"/>
      <point x="53" y="126"/>
      <point x="45" y="115" type="curve" smooth="yes"/>
      <point x="37" y="106"/>
      <point x="34" y="103"/>
      <point x="41" y="92" type="curve"/>
      <point x="50" y="83"/>
      <point x="102" y="-21"/>
      <point x="265" y="-21" type="curve" smooth="yes"/>
      <point x="428" y="-21"/>
      <point x="536" y="39"/>
      <point x="536" y="171" type="curve" smooth="yes"/>
      <point x="536" y="370"/>
      <point x="388" y="418"/>
      <point x="341" y="439" type="curve"/>
      <point x="295" y="458"/>
      <point x="224" y="486"/>
      <point x="224" y="552" type="curve" smooth="yes"/>
      <point x="224" y="619"/>
      <point x="262" y="621"/>
      <point x="288" y="621" type="curve" smooth="yes"/>
      <point x="361" y="621"/>
      <point x="453" y="518"/>
      <point x="463" y="518" type="curve" smooth="yes"/>
      <point x="474" y="518"/>
      <point x="474" y="524"/>
      <point x="483" y="535" type="curve" smooth="yes"/>
      <point x="494" y="547"/>
      <point x="511" y="576"/>
      <point x="518" y="585" type="curve"/>
      <point x="523" y="594"/>
      <point x="528" y="600"/>
      <point x="520" y="608" type="curve" smooth="yes"/>
      <point x="512" y="616"/>
      <point x="419" y="717"/>
      <point x="268" y="717" type="curve" smooth="yes"/>
    </contour>
    <contour>
      <point x="288" y="710" type="move" name="top"/>
    </contour>
    <contour>
      <point x="288" y="0" type="move" name="bottom"/>
    </contour>
  </outline>
</glyph>
<glyph name="X" format="1">
  <advance width="623"/>
  <unicode hex="0058"/>
  <outline>
    <contour>
      <point x="303" y="439"/>
      <point x="293" y="455"/>
      <point x="283" y="472" type="curve" smooth="yes"/>
      <point x="266" y="500"/>
      <point x="245" y="535"/>
      <point x="230" y="562" type="curve" smooth="yes"/>
      <point x="199" y="615"/>
      <point x="181" y="642"/>
      <point x="164" y="669" type="curve"/>
      <point x="145" y="696"/>
      <point x="137" y="719"/>
      <point x="120" y="720" type="curve" smooth="yes"/>
      <point x="104" y="720"/>
      <point x="84" y="717"/>
      <point x="69" y="718" type="curve" smooth="yes"/>
      <point x="54" y="719"/>
      <point x="49" y="710"/>
      <point x="62" y="691" type="curve"/>
      <point x="72" y="673"/>
      <point x="159" y="541"/>
      <point x="175" y="510" type="curve" smooth="yes"/>
      <point x="191" y="478"/>
      <point x="248" y="383"/>
      <point x="256" y="366" type="curve" smooth="yes"/>
      <point x="265" y="349"/>
      <point x="268" y="336"/>
      <point x="251" y="311" type="curve"/>
      <point x="232" y="287"/>
      <point x="192" y="219"/>
      <point x="165" y="184" type="curve"/>
      <point x="140" y="149"/>
      <point x="74" y="60"/>
      <point x="62" y="40" type="curve" smooth="yes"/>
      <point x="50" y="20"/>
      <point x="39" y="7"/>
      <point x="56" y="2" type="curve" smooth="yes"/>
      <point x="73" y="-3"/>
      <point x="97" y="-5"/>
      <point x="109" y="-1" type="curve" smooth="yes"/>
      <point x="121" y="4"/>
      <point x="146" y="33"/>
      <point x="158" y="60" type="curve" smooth="yes"/>
      <point x="169" y="87"/>
      <point x="209" y="153"/>
      <point x="227" y="176" type="curve" smooth="yes"/>
      <point x="246" y="200"/>
      <point x="283" y="251"/>
      <point x="293" y="263" type="curve"/>
      <point x="302" y="276"/>
      <point x="307" y="281"/>
      <point x="318" y="265" type="curve" smooth="yes"/>
      <point x="329" y="248"/>
      <point x="384" y="156"/>
      <point x="398" y="129" type="curve"/>
      <point x="411" y="100"/>
      <point x="444" y="62"/>
      <point x="458" y="35" type="curve" smooth="yes"/>
      <point x="473" y="8"/>
      <point x="473" y="-4"/>
      <point x="485" y="-5" type="curve" smooth="yes"/>
      <point x="497" y="-5"/>
      <point x="536" y="-6"/>
      <point x="548" y="-6" type="curve" smooth="yes"/>
      <point x="563" y="-6"/>
      <point x="571" y="-4"/>
      <point x="562" y="12" type="curve" smooth="yes"/>
      <point x="554" y="27"/>
      <point x="510" y="101"/>
      <point x="489" y="133" type="curve"/>
      <point x="465" y="165"/>
      <point x="436" y="216"/>
      <point x="420" y="245" type="curve" smooth="yes"/>
      <point x="404" y="272"/>
      <point x="377" y="312"/>
      <point x="370" y="327" type="curve" smooth="yes"/>
      <point x="363" y="343"/>
      <point x="359" y="349"/>
      <point x="370" y="365" type="curve"/>
      <point x="378" y="381"/>
      <point x="449" y="521"/>
      <point x="468" y="548" type="curve" smooth="yes"/>
      <point x="487" y="575"/>
      <point x="519" y="628"/>
      <point x="540" y="654" type="curve"/>
      <point x="560" y="681"/>
      <point x="567" y="692"/>
      <point x="571" y="704" type="curve" smooth="yes"/>
      <point x="576" y="716"/>
      <point x="568" y="723"/>
      <point x="553" y="726" type="curve" smooth="yes"/>
      <point x="538" y="729"/>
      <point x="520" y="726"/>
      <point x="505" y="719" type="curve"/>
      <point x="491" y="711"/>
      <point x="479" y="675"/>
      <point x="463" y="654" type="curve" smooth="yes"/>
      <point x="448" y="633"/>
      <point x="404" y="564"/>
      <point x="391" y="543" type="curve" smooth="yes"/>
      <point x="336" y="453" type="line" smooth="yes"/>
      <point x="328" y="440"/>
      <point x="325" y="423"/>
      <point x="314" y="423" type="curve"/>
    </contour>
  </outline>
</glyph>
<glyph name="backslash" format="1">
  <advance width="328"/>
  <unicode hex="005C"/>
  <outline>
    <contour>
      <point x="-3" y="722"/>
      <point x="3" y="686"/>
      <point x="14" y="661" type="curve" smooth="yes"/>
      <point x="22" y="640"/>
      <point x="65" y="536"/>
      <point x="78" y="486" type="curve"/>
      <point x="97" y="435"/>
      <point x="145" y="277"/>
      <point x="161" y="242" type="curve"/>
      <point x="174" y="205"/>
      <point x="234" y="38"/>
      <point x="239" y="17" type="curve"/>
      <point x="243" y="-6"/>
      <point x="250" y="-8"/>
      <point x="261" y="-15" type="curve"/>
      <point x="272" y="-27"/>
      <point x="296" y="-23"/>
      <point x="311" y="-19" type="curve" smooth="yes"/>
      <point x="330" y="-15"/>
      <point x="329" y="-9"/>
      <point x="325" y="2" type="curve"/>
      <point x="317" y="12"/>
      <point x="324" y="1"/>
      <point x="311" y="31" type="curve"/>
      <point x="301" y="62"/>
      <point x="250" y="192"/>
      <point x="232" y="260" type="curve"/>
      <point x="210" y="325"/>
      <point x="145" y="499"/>
      <point x="132" y="536" type="curve"/>
      <point x="114" y="575"/>
      <point x="89" y="651"/>
      <point x="86" y="676" type="curve"/>
      <point x="78" y="701"/>
      <point x="64" y="725"/>
      <point x="53" y="729" type="curve"/>
      <point x="44" y="729"/>
      <point x="16" y="728"/>
      <point x="7" y="725" type="curve" smooth="yes"/>
    </contour>
  </outline>
</glyph>
<glyph name="grave" format="1">
  <advance width="247"/>
  <unicode hex="0060"/>
  <outline>
    <contour>
      <point x="222" y="787"/>
      <point x="188" y="796"/>
      <point x="177" y="801" type="curve"/>
      <point x="142" y="809"/>
      <point x="126" y="815"/>
      <point x="91" y="830" type="curve"/>
      <point x="67" y="838"/>
      <point x="57" y="842"/>
      <point x="38" y="830" type="curve"/>
      <point x="27" y="825"/>
      <point x="13" y="816"/>
      <point x="22" y="797" type="curve" smooth="yes"/>
      <point x="25" y="789"/>
      <point x="61" y="777"/>
      <point x="72" y="774" type="curve"/>
      <point x="85" y="766"/>
      <point x="94" y="771"/>
      <point x="134" y="753" type="curve"/>
      <point x="156" y="745" type="line"/>
      <point x="169" y="742"/>
      <point x="183" y="740"/>
      <point x="191" y="741" type="curve"/>
      <point x="219" y="738"/>
      <point x="234" y="737"/>
      <point x="227" y="768" type="curve" smooth="yes"/>
    </contour>
    <contour>
      <point x="124" y="492" type="move" name="_top"/>
    </contour>
  </outline>
</glyph>
<glyph name="f" format="1">
  <advance width="465"/>
  <unicode hex="0066"/>
  <outline>
    <contour>
      <point x="108" y="692"/>
      <point x="93" y="694"/>
      <point x="85" y="694" type="curve" smooth="yes"/>
      <point x="76" y="694"/>
      <point x="70" y="693"/>
      <point x="71" y="674" type="curve" smooth="yes"/>
      <point x="71" y="655"/>
      <point x="67" y="621"/>
      <point x="67" y="602" type="curve" smooth="yes"/>
      <point x="67" y="512" type="line" smooth="yes"/>
      <point x="67" y="484"/>
      <point x="64" y="465"/>
      <point x="64" y="424" type="curve" smooth="yes"/>
      <point x="64" y="381"/>
      <point x="68" y="357"/>
      <point x="68" y="336" type="curve" smooth="yes"/>
      <point x="68" y="314"/>
      <point x="64" y="206"/>
      <point x="64" y="167" type="curve" smooth="yes"/>
      <point x="64" y="128"/>
      <point x="62" y="55"/>
      <point x="65" y="36" type="curve"/>
      <point x="66" y="15"/>
      <point x="62" y="2"/>
      <point x="78" y="1" type="curve"/>
      <point x="147" y="1" type="line" smooth="yes"/>
      <point x="160" y="1"/>
      <point x="170" y="0"/>
      <point x="170" y="16" type="curve" smooth="yes"/>
      <point x="170" y="31"/>
      <point x="168" y="96"/>
      <point x="171" y="126" type="curve" smooth="yes"/>
      <point x="172" y="141"/>
      <point x="174" y="192"/>
      <point x="174" y="243" type="curve" smooth="yes"/>
      <point x="174" y="340" type="line"/>
      <point x="188" y="341"/>
      <point x="201" y="341"/>
      <point x="213" y="341" type="curve" smooth="yes"/>
      <point x="266" y="341" type="line" smooth="yes"/>
      <point x="285" y="341"/>
      <point x="345" y="339"/>
      <point x="359" y="339" type="curve" smooth="yes"/>
      <point x="374" y="339"/>
      <point x="390" y="338"/>
      <point x="399" y="338" type="curve" smooth="yes"/>
      <point x="407" y="338"/>
      <point x="412" y="338"/>
      <point x="413" y="349" type="curve"/>
      <point x="416" y="360"/>
      <point x="418" y="366"/>
      <point x="418" y="373" type="curve" smooth="yes"/>
      <point x="418" y="380"/>
      <point x="421" y="390"/>
      <point x="398" y="390" type="curve" smooth="yes"/>
      <point x="375" y="390"/>
      <point x="345" y="386"/>
      <point x="305" y="386" type="curve" smooth="yes"/>
      <point x="233" y="386" type="line" smooth="yes"/>
      <point x="221" y="386"/>
      <point x="206" y="385"/>
      <point x="193" y="385" type="curve" smooth="yes"/>
      <point x="171" y="385" type="line"/>
      <point x="173" y="398" type="line" smooth="yes"/>
      <point x="174" y="406"/>
      <point x="175" y="415"/>
      <point x="175" y="426" type="curve" smooth="yes"/>
      <point x="175" y="459" type="line" smooth="yes"/>
      <point x="175" y="465"/>
      <point x="175" y="471"/>
      <point x="176" y="477" type="curve"/>
      <point x="197" y="479" type="line" smooth="yes"/>
      <point x="209" y="480"/>
      <point x="224" y="481"/>
      <point x="239" y="481" type="curve" smooth="yes"/>
      <point x="345" y="481" type="line" smooth="yes"/>
      <point x="364" y="481"/>
      <point x="431" y="475"/>
      <point x="446" y="475" type="curve" smooth="yes"/>
      <point x="463" y="475"/>
      <point x="461" y="480"/>
      <point x="461" y="496" type="curve" smooth="yes"/>
      <point x="461" y="546" type="line" smooth="yes"/>
      <point x="461" y="568"/>
      <point x="460" y="645"/>
      <point x="460" y="663" type="curve" smooth="yes"/>
      <point x="460" y="683"/>
      <point x="466" y="693"/>
      <point x="443" y="693" type="curve" smooth="yes"/>
      <point x="420" y="693"/>
      <point x="380" y="695"/>
      <point x="352" y="695" type="curve" smooth="yes"/>
      <point x="323" y="695"/>
      <point x="271" y="696"/>
      <point x="243" y="696" type="curve" smooth="yes"/>
      <point x="216" y="696"/>
      <point x="155" y="692"/>
      <point x="119" y="692" type="curve" smooth="yes"/>
    </contour>
  </outline>
</glyph>
<glyph name="g" format="1">
  <advance width="533"/>
  <unicode hex="0067"/>
  <outline>
    <contour>
      <point x="150" y="708"/>
      <point x="39" y="554"/>
      <point x="39" y="374" type="curve" smooth="yes"/>
      <point x="39" y="195"/>
      <point x="115" y="-13"/>
      <point x="274" y="-13" type="curve" smooth="yes"/>
      <point x="500" y="-13"/>
      <point x="503" y="219"/>
      <point x="503" y="238" type="curve" smooth="yes"/>
      <point x="504" y="257"/>
      <point x="498" y="271"/>
      <point x="486" y="271" type="curve" smooth="yes"/>
      <point x="475" y="271"/>
      <point x="297" y="266"/>
      <point x="281" y="266" type="curve" smooth="yes"/>
      <point x="235" y="266" type="line" smooth="yes"/>
      <point x="231" y="266"/>
      <point x="224" y="267"/>
      <point x="224" y="251" type="curve" smooth="yes"/>
      <point x="224" y="212" type="line" smooth="yes"/>
      <point x="224" y="205"/>
      <point x="226" y="196"/>
      <point x="241" y="196" type="curve" smooth="yes"/>
      <point x="255" y="196"/>
      <point x="320" y="195"/>
      <point x="342" y="195" type="curve" smooth="yes"/>
      <point x="353" y="195"/>
      <point x="371" y="194"/>
      <point x="387" y="194" type="curve" smooth="yes"/>
      <point x="416" y="194" type="line"/>
      <point x="413" y="173"/>
      <point x="406" y="154"/>
      <point x="395" y="137" type="curve" smooth="yes"/>
      <point x="376" y="109"/>
      <point x="345" y="81"/>
      <point x="285" y="81" type="curve" smooth="yes"/>
      <point x="168" y="81"/>
      <point x="128" y="253"/>
      <point x="128" y="348" type="curve" smooth="yes"/>
      <point x="128" y="444"/>
      <point x="171" y="611"/>
      <point x="260" y="611" type="curve" smooth="yes"/>
      <point x="321" y="611"/>
      <point x="362" y="554"/>
      <point x="370" y="546" type="curve" smooth="yes"/>
      <point x="377" y="538"/>
      <point x="388" y="533"/>
      <point x="397" y="540" type="curve" smooth="yes"/>
      <point x="407" y="547"/>
      <point x="436" y="571"/>
      <point x="444" y="579" type="curve" smooth="yes"/>
      <point x="452" y="587"/>
      <point x="460" y="603"/>
      <point x="445" y="619" type="curve" smooth="yes"/>
      <point x="430" y="634"/>
      <point x="397" y="708"/>
      <point x="274" y="708" type="curve" smooth="yes"/>
    </contour>
    <contour>
      <point x="267" y="492" type="move" name="top"/>
    </contour>
  </outline>
</glyph>
<glyph name="l" format="1">
  <advance width="579"/>
  <unicode hex="006C"/>
  <outline>
    <contour>
      <point x="150" y="703"/>
      <point x="146" y="700"/>
      <point x="135" y="700" type="curve" smooth="yes"/>
      <point x="112" y="700"/>
      <point x="106" y="701"/>
      <point x="97" y="701" type="curve" smooth="yes"/>
      <point x="88" y="701"/>
      <point x="71" y="706"/>
      <point x="72" y="693" type="curve"/>
      <point x="72" y="679"/>
      <point x="74" y="638"/>
      <point x="74" y="629" type="curve" smooth="yes"/>
      <point x="74" y="620"/>
      <point x="75" y="540"/>
      <point x="75" y="516" type="curve" smooth="yes"/>
      <point x="75" y="493"/>
      <point x="67" y="354"/>
      <point x="64" y="336" type="curve" smooth="yes"/>
      <point x="61" y="320"/>
      <point x="68" y="224"/>
      <point x="68" y="200" type="curve" smooth="yes"/>
      <point x="68" y="177"/>
      <point x="62" y="37"/>
      <point x="62" y="21" type="curve" smooth="yes"/>
      <point x="62" y="2"/>
      <point x="57" y="-5"/>
      <point x="79" y="-5" type="curve" smooth="yes"/>
      <point x="103" y="-5"/>
      <point x="157" y="-1"/>
      <point x="178" y="-4" type="curve" smooth="yes"/>
      <point x="198" y="-7"/>
      <point x="323" y="1"/>
      <point x="358" y="1" type="curve" smooth="yes"/>
      <point x="393" y="1"/>
      <point x="536" y="-2"/>
      <point x="555" y="-2" type="curve" smooth="yes"/>
      <point x="574" y="-2"/>
      <point x="580" y="-1"/>
      <point x="577" y="11" type="curve"/>
      <point x="577" y="22"/>
      <point x="567" y="107"/>
      <point x="567" y="129" type="curve" smooth="yes"/>
      <point x="567" y="175" type="line"/>
      <point x="568" y="184"/>
      <point x="575" y="191"/>
      <point x="558" y="192" type="curve" smooth="yes"/>
      <point x="543" y="192"/>
      <point x="444" y="196"/>
      <point x="406" y="196" type="curve" smooth="yes"/>
      <point x="369" y="196"/>
      <point x="257" y="194"/>
      <point x="221" y="194" type="curve"/>
      <point x="202" y="193"/>
      <point x="183" y="194"/>
      <point x="168" y="195" type="curve" smooth="yes"/>
      <point x="144" y="197" type="line"/>
      <point x="143" y="198"/>
      <point x="143" y="199"/>
      <point x="143" y="202" type="curve" smooth="yes"/>
      <point x="143" y="206"/>
      <point x="142" y="211"/>
      <point x="143" y="220" type="curve" smooth="yes"/>
      <point x="146" y="237"/>
      <point x="142" y="317"/>
      <point x="142" y="339" type="curve" smooth="yes"/>
      <point x="142" y="360"/>
      <point x="143" y="453"/>
      <point x="143" y="482" type="curve" smooth="yes"/>
      <point x="143" y="511"/>
      <point x="150" y="683"/>
      <point x="150" y="692" type="curve" smooth="yes"/>
    </contour>
    <contour>
      <point x="290" y="492" type="move" name="top"/>
    </contour>
    <contour>
      <point x="290" y="0" type="move" name="bottom"/>
    </contour>
    <contour>
      <point x="559" y="492" type="move" name="topright"/>
    </contour>
  </outline>
</glyph>
<glyph name="m" format="1">
  <advance width="690"/>
  <unicode hex="006D"/>
  <outline>
    <contour>
      <point x="138" y="693"/>
      <point x="131" y="703"/>
      <point x="120" y="703" type="curve" smooth="yes"/>
      <point x="107" y="702"/>
      <point x="94" y="701"/>
      <point x="87" y="702" type="curve" smooth="yes"/>
      <point x="80" y="703"/>
      <point x="73" y="706"/>
      <point x="74" y="683" type="curve" smooth="yes"/>
      <point x="74" y="662"/>
      <point x="71" y="581"/>
      <point x="68" y="546" type="curve" smooth="yes"/>
      <point x="65" y="511"/>
      <point x="62" y="379"/>
      <point x="62" y="327" type="curve" smooth="yes"/>
      <point x="62" y="274"/>
      <point x="67" y="43"/>
      <point x="67" y="22" type="curve"/>
      <point x="66" y="3"/>
      <point x="64" y="-3"/>
      <point x="71" y="-3" type="curve" smooth="yes"/>
      <point x="78" y="-4"/>
      <point x="95" y="-2"/>
      <point x="103" y="-5" type="curve"/>
      <point x="113" y="-6"/>
      <point x="118" y="0"/>
      <point x="117" y="14" type="curve" smooth="yes"/>
      <point x="117" y="28"/>
      <point x="114" y="130"/>
      <point x="117" y="172" type="curve" smooth="yes"/>
      <point x="120" y="214"/>
      <point x="121" y="336"/>
      <point x="121" y="370" type="curve" smooth="yes"/>
      <point x="121" y="387"/>
      <point x="121" y="413"/>
      <point x="122" y="434" type="curve" smooth="yes"/>
      <point x="124" y="471" type="line"/>
      <point x="131" y="448"/>
      <point x="139" y="425"/>
      <point x="146" y="404" type="curve" smooth="yes"/>
      <point x="158" y="368"/>
      <point x="170" y="328"/>
      <point x="177" y="309" type="curve"/>
      <point x="187" y="272"/>
      <point x="229" y="171"/>
      <point x="242" y="141" type="curve" smooth="yes"/>
      <point x="255" y="111"/>
      <point x="290" y="9"/>
      <point x="295" y="-5" type="curve" smooth="yes"/>
      <point x="300" y="-20"/>
      <point x="300" y="-27"/>
      <point x="311" y="-27" type="curve" smooth="yes"/>
      <point x="320" y="-27"/>
      <point x="333" y="-9"/>
      <point x="340" y="6" type="curve" smooth="yes"/>
      <point x="348" y="21"/>
      <point x="401" y="129"/>
      <point x="420" y="161" type="curve"/>
      <point x="436" y="193"/>
      <point x="491" y="307"/>
      <point x="510" y="344" type="curve"/>
      <point x="521" y="363"/>
      <point x="534" y="393"/>
      <point x="549" y="418" type="curve"/>
      <point x="556" y="433"/>
      <point x="565" y="448"/>
      <point x="574" y="464" type="curve"/>
      <point x="575" y="442"/>
      <point x="575" y="421"/>
      <point x="575" y="400" type="curve" smooth="yes"/>
      <point x="575" y="365"/>
      <point x="575" y="323"/>
      <point x="574" y="299" type="curve"/>
      <point x="570" y="249"/>
      <point x="567" y="47"/>
      <point x="567" y="29" type="curve"/>
      <point x="566" y="12"/>
      <point x="564" y="5"/>
      <point x="571" y="4" type="curve" smooth="yes"/>
      <point x="579" y="3"/>
      <point x="598" y="3"/>
      <point x="606" y="3" type="curve" smooth="yes"/>
      <point x="614" y="3"/>
      <point x="618" y="7"/>
      <point x="617" y="16" type="curve"/>
      <point x="617" y="27"/>
      <point x="618" y="140"/>
      <point x="618" y="179" type="curve"/>
      <point x="621" y="218"/>
      <point x="623" y="359"/>
      <point x="623" y="405" type="curve" smooth="yes"/>
      <point x="623" y="452"/>
      <point x="623" y="545"/>
      <point x="626" y="597" type="curve" smooth="yes"/>
      <point x="629" y="649"/>
      <point x="639" y="704"/>
      <point x="624" y="704" type="curve" smooth="yes"/>
      <point x="609" y="704"/>
      <point x="584" y="623"/>
      <point x="573" y="591" type="curve"/>
      <point x="560" y="559"/>
      <point x="522" y="482"/>
      <point x="498" y="426" type="curve" smooth="yes"/>
      <point x="474" y="370"/>
      <point x="397" y="228"/>
      <point x="376" y="185" type="curve" smooth="yes"/>
      <point x="348" y="130" type="line"/>
      <point x="335" y="107" type="line"/>
      <point x="313" y="175" type="line" smooth="yes"/>
      <point x="301" y="212"/>
      <point x="287" y="253"/>
      <point x="278" y="276" type="curve"/>
      <point x="259" y="319"/>
      <point x="184" y="515"/>
      <point x="171" y="554" type="curve" smooth="yes"/>
      <point x="158" y="594"/>
      <point x="143" y="639"/>
      <point x="140" y="674" type="curve" smooth="yes"/>
    </contour>
  </outline>
</glyph>
<glyph name="p" format="1">
  <advance width="555"/>
  <unicode hex="0070"/>
  <outline>
    <contour>
      <point x="444" y="704"/>
      <point x="358" y="704"/>
      <point x="224" y="704" type="curve" smooth="yes"/>
      <point x="179" y="704"/>
      <point x="118" y="694"/>
      <point x="93" y="694" type="curve" smooth="yes"/>
      <point x="80" y="694"/>
      <point x="74" y="696"/>
      <point x="74" y="673" type="curve"/>
      <point x="70" y="607" type="line"/>
      <point x="67" y="572"/>
      <point x="66" y="535"/>
      <point x="66" y="520" type="curve" smooth="yes"/>
      <point x="66" y="246" type="line" smooth="yes"/>
      <point x="66" y="193"/>
      <point x="62" y="48"/>
      <point x="62" y="30" type="curve" smooth="yes"/>
      <point x="62" y="11"/>
      <point x="65" y="-2"/>
      <point x="81" y="-2" type="curve" smooth="yes"/>
      <point x="97" y="-2"/>
      <point x="142" y="2"/>
      <point x="158" y="2" type="curve" smooth="yes"/>
      <point x="173" y="2"/>
      <point x="204" y="-11"/>
      <point x="204" y="30" type="curve" smooth="yes"/>
      <point x="204" y="51"/>
      <point x="205" y="114"/>
      <point x="206" y="171" type="curve" smooth="yes"/>
      <point x="208" y="280" type="line"/>
      <point x="271" y="281"/>
      <point x="328" y="291"/>
      <point x="379" y="308" type="curve" smooth="yes"/>
      <point x="463" y="337"/>
      <point x="550" y="396"/>
      <point x="550" y="517" type="curve" smooth="yes"/>
      <point x="550" y="584"/>
      <point x="516" y="618"/>
      <point x="489" y="651" type="curve" smooth="yes"/>
    </contour>
    <contour>
      <point x="374" y="345"/>
      <point x="325" y="338"/>
      <point x="284" y="335" type="curve"/>
      <point x="260" y="332"/>
      <point x="235" y="331"/>
      <point x="209" y="332" type="curve"/>
      <point x="215" y="655" type="line"/>
      <point x="258" y="658"/>
      <point x="298" y="658"/>
      <point x="333" y="653" type="curve" smooth="yes"/>
      <point x="393" y="645"/>
      <point x="456" y="621"/>
      <point x="467" y="561" type="curve" smooth="yes"/>
      <point x="489" y="440"/>
      <point x="467" y="390"/>
      <point x="405" y="360" type="curve" smooth="yes"/>
    </contour>
  </outline>
</glyph>
<glyph name="q" format="1">
  <advance width="590"/>
  <unicode hex="0071"/>
  <outline>
    <contour>
      <point x="536" y="34"/>
      <point x="496" y="81"/>
      <point x="458" y="127" type="curve"/>
      <point x="489" y="182"/>
      <point x="521" y="257"/>
      <point x="521" y="342" type="curve" smooth="yes"/>
      <point x="521" y="505"/>
      <point x="461" y="712"/>
      <point x="289" y="712" type="curve" smooth="yes"/>
      <point x="236" y="712"/>
      <point x="40" y="663"/>
      <point x="40" y="360" type="curve" smooth="yes"/>
      <point x="40" y="55"/>
      <point x="236" y="5"/>
      <point x="292" y="1" type="curve" smooth="yes"/>
      <point x="333" y="-2"/>
      <point x="360" y="12"/>
      <point x="379" y="24" type="curve" smooth="yes"/>
      <point x="390" y="31"/>
      <point x="398" y="40"/>
      <point x="404" y="49" type="curve" smooth="yes"/>
      <point x="405" y="50" type="line"/>
      <point x="408" y="54" type="line"/>
      <point x="436" y="22" type="line"/>
      <point x="445" y="7"/>
      <point x="452" y="4"/>
      <point x="468" y="4" type="curve" smooth="yes"/>
      <point x="484" y="4"/>
      <point x="530" y="3"/>
      <point x="542" y="3" type="curve" smooth="yes"/>
      <point x="554" y="3"/>
      <point x="563" y="7"/>
      <point x="544" y="26" type="curve" smooth="yes"/>
    </contour>
    <contour>
      <point x="226" y="153"/>
      <point x="157" y="223"/>
      <point x="157" y="364" type="curve" smooth="yes"/>
      <point x="157" y="505"/>
      <point x="241" y="578"/>
      <point x="292" y="578" type="curve" smooth="yes"/>
      <point x="420" y="578"/>
      <point x="404" y="413"/>
      <point x="404" y="298" type="curve" smooth="yes"/>
      <point x="404" y="263"/>
      <point x="396" y="236"/>
      <point x="384" y="216" type="curve"/>
      <point x="372" y="229" type="line" smooth="yes"/>
      <point x="361" y="240"/>
      <point x="366" y="244"/>
      <point x="345" y="244" type="curve" smooth="yes"/>
      <point x="325" y="244"/>
      <point x="279" y="238"/>
      <point x="271" y="241" type="curve"/>
      <point x="262" y="242"/>
      <point x="250" y="240"/>
      <point x="269" y="213" type="curve"/>
      <point x="276" y="205"/>
      <point x="292" y="184"/>
      <point x="315" y="160" type="curve"/>
      <point x="301" y="155"/>
      <point x="287" y="153"/>
      <point x="274" y="153" type="curve" smooth="yes"/>
    </contour>
  </outline>
</glyph>
<glyph name="exclamdown" format="1">
  <advance width="218"/>
  <unicode hex="00A1"/>
  <outline>
    <contour>
      <point x="128" y="588"/>
      <point x="163" y="595"/>
      <point x="171" y="637" type="curve" smooth="yes"/>
      <point x="179" y="682"/>
      <point x="147" y="726"/>
      <point x="110" y="726" type="curve" smooth="yes"/>
      <point x="71" y="726"/>
      <point x="40" y="685"/>
      <point x="40" y="665" type="curve"/>
      <point x="35" y="641"/>
      <point x="49" y="588"/>
      <point x="104" y="588" type="curve" smooth="yes"/>
    </contour>
    <contour>
      <point x="148" y="0"/>
      <point x="163" y="-1"/>
      <point x="162" y="12" type="curve" smooth="yes"/>
      <point x="161" y="19"/>
      <point x="161" y="28"/>
      <point x="161" y="38" type="curve" smooth="yes"/>
      <point x="162" y="58"/>
      <point x="160" y="102"/>
      <point x="157" y="171" type="curve" smooth="yes"/>
      <point x="154" y="240"/>
      <point x="153" y="297"/>
      <point x="152" y="343" type="curve"/>
      <point x="152" y="422" type="line"/>
      <point x="153" y="457"/>
      <point x="155" y="491"/>
      <point x="152" y="507" type="curve"/>
      <point x="151" y="524"/>
      <point x="150" y="539"/>
      <point x="134" y="538" type="curve" smooth="yes"/>
      <point x="119" y="537"/>
      <point x="105" y="537"/>
      <point x="90" y="538" type="curve" smooth="yes"/>
      <point x="74" y="539"/>
      <point x="66" y="538"/>
      <point x="67" y="519" type="curve" smooth="yes"/>
      <point x="67" y="504"/>
      <point x="69" y="459"/>
      <point x="67" y="432" type="curve"/>
      <point x="67" y="422"/>
      <point x="67" y="415"/>
      <point x="66" y="411" type="curve" smooth="yes"/>
      <point x="65" y="407"/>
      <point x="66" y="392"/>
      <point x="67" y="367" type="curve" smooth="yes"/>
      <point x="68" y="342"/>
      <point x="68" y="310"/>
      <point x="66" y="271" type="curve"/>
      <point x="59" y="188"/>
      <point x="56" y="132"/>
      <point x="56" y="103" type="curve" smooth="yes"/>
      <point x="57" y="74"/>
      <point x="57" y="52"/>
      <point x="56" y="39" type="curve" smooth="yes"/>
      <point x="53" y="15"/>
      <point x="47" y="4"/>
      <point x="75" y="1" type="curve"/>
      <point x="99" y="1"/>
      <point x="121" y="1"/>
      <point x="141" y="0" type="curve" smooth="yes"/>
    </contour>
  </outline>
</glyph>
<glyph name="sterling" format="1">
  <advance width="500"/>
  <unicode hex="00A3"/>
  <outline>
    <contour>
      <point x="245" y="530"/>
      <point x="271" y="564"/>
      <point x="300" y="564" type="curve" smooth="yes"/>
      <point x="331" y="564"/>
      <point x="347" y="536"/>
      <point x="353" y="527" type="curve" smooth="yes"/>
      <point x="360" y="518"/>
      <point x="366" y="502"/>
      <point x="378" y="511" type="curve"/>
      <point x="393" y="519"/>
      <point x="436" y="563"/>
      <point x="449" y="573" type="curve"/>
      <point x="463" y="582"/>
      <point x="478" y="590"/>
      <point x="460" y="615" type="curve" smooth="yes"/>
      <point x="441" y="642"/>
      <point x="408" y="729"/>
      <point x="284" y="729" type="curve" smooth="yes"/>
      <point x="288" y="729"/>
      <point x="249" y="725"/>
      <point x="216" y="706" type="curve" smooth="yes"/>
      <point x="200" y="697"/>
      <point x="184" y="685"/>
      <point x="169" y="669" type="curve" smooth="yes"/>
      <point x="125" y="621"/>
      <point x="91" y="533"/>
      <point x="91" y="382" type="curve"/>
      <point x="92" y="332"/>
      <point x="91" y="293"/>
      <point x="90" y="264" type="curve" smooth="yes"/>
      <point x="89" y="236"/>
      <point x="89" y="200"/>
      <point x="89" y="156" type="curve" smooth="yes"/>
      <point x="89" y="131"/>
      <point x="77" y="113"/>
      <point x="54" y="103" type="curve" smooth="yes"/>
      <point x="31" y="93"/>
      <point x="19" y="87"/>
      <point x="19" y="85" type="curve" smooth="yes"/>
      <point x="16" y="45"/>
      <point x="11" y="1"/>
      <point x="19" y="1" type="curve" smooth="yes"/>
      <point x="127" y="1" type="line"/>
      <point x="165" y="3" type="line"/>
      <point x="212" y="5" type="line"/>
      <point x="262" y="9"/>
      <point x="312" y="10"/>
      <point x="327" y="10" type="curve" smooth="yes"/>
      <point x="357" y="10"/>
      <point x="444" y="1"/>
      <point x="459" y="1" type="curve" smooth="yes"/>
      <point x="472" y="1"/>
      <point x="484" y="-2"/>
      <point x="484" y="11" type="curve" smooth="yes"/>
      <point x="484" y="23"/>
      <point x="481" y="39"/>
      <point x="482" y="46" type="curve" smooth="yes"/>
      <point x="482" y="53"/>
      <point x="486" y="60"/>
      <point x="474" y="59" type="curve" smooth="yes"/>
      <point x="463" y="59"/>
      <point x="397" y="60"/>
      <point x="371" y="60" type="curve"/>
      <point x="300" y="63" type="line" smooth="yes"/>
      <point x="284" y="64"/>
      <point x="252" y="64"/>
      <point x="203" y="65" type="curve"/>
      <point x="214" y="70"/>
      <point x="223" y="76"/>
      <point x="229" y="84" type="curve" smooth="yes"/>
      <point x="245" y="109"/>
      <point x="245" y="139"/>
      <point x="246" y="148" type="curve"/>
      <point x="246" y="165"/>
      <point x="248" y="239"/>
      <point x="248" y="257" type="curve" smooth="yes"/>
      <point x="248" y="264"/>
      <point x="248" y="286"/>
      <point x="247" y="314" type="curve" smooth="yes"/>
      <point x="247" y="328"/>
      <point x="246" y="352"/>
      <point x="245" y="386" type="curve"/>
    </contour>
    <contour>
      <point x="230" y="355" type="line" smooth="yes"/>
      <point x="185" y="355"/>
      <point x="156" y="354"/>
      <point x="143" y="353" type="curve" smooth="yes"/>
      <point x="130" y="352"/>
      <point x="120" y="352"/>
      <point x="113" y="352" type="curve" smooth="yes"/>
      <point x="48" y="352" type="line"/>
      <point x="33" y="355"/>
      <point x="25" y="354"/>
      <point x="25" y="348" type="curve"/>
      <point x="22" y="342"/>
      <point x="29" y="301"/>
      <point x="29" y="291" type="curve" smooth="yes"/>
      <point x="29" y="280"/>
      <point x="25" y="275"/>
      <point x="45" y="275" type="curve" smooth="yes"/>
      <point x="59" y="275"/>
      <point x="103" y="270"/>
      <point x="127" y="275" type="curve"/>
      <point x="138" y="275"/>
      <point x="152" y="276"/>
      <point x="203" y="276" type="curve" smooth="yes"/>
      <point x="255" y="277"/>
      <point x="267" y="278"/>
      <point x="279" y="278" type="curve" smooth="yes"/>
      <point x="302" y="278"/>
      <point x="332" y="281"/>
      <point x="340" y="281" type="curve" smooth="yes"/>
      <point x="352" y="281"/>
      <point x="363" y="277"/>
      <point x="363" y="288" type="curve" smooth="yes"/>
      <point x="363" y="338" type="line" smooth="yes"/>
      <point x="363" y="345"/>
      <point x="367" y="355"/>
      <point x="355" y="355" type="curve" smooth="yes"/>
      <point x="298" y="355" type="line"/>
    </contour>
  </outline>
</glyph>
<glyph name="currency" format="1">
  <advance width="500"/>
  <unicode hex="00A4"/>
  <outline>
    <contour>
      <point x="306" y="554"/>
      <point x="268" y="554"/>
      <point x="225" y="554" type="curve" smooth="yes"/>
      <point x="123" y="554"/>
      <point x="23" y="455"/>
      <point x="23" y="344" type="curve"/>
      <point x="26" y="300"/>
      <point x="35" y="261"/>
      <point x="50" y="227" type="curve" smooth="yes"/>
      <point x="78" y="166"/>
      <point x="130" y="108"/>
      <point x="235" y="108" type="curve" smooth="yes"/>
      <point x="446" y="108"/>
      <point x="460" y="290"/>
      <point x="460" y="332" type="curve" smooth="yes"/>
      <point x="460" y="364"/>
      <point x="439" y="488"/>
      <point x="333" y="541" type="curve" smooth="yes"/>
    </contour>
    <contour>
      <point x="132" y="169"/>
      <point x="97" y="255"/>
      <point x="97" y="337" type="curve" smooth="yes"/>
      <point x="97" y="416"/>
      <point x="158" y="463"/>
      <point x="179" y="476" type="curve"/>
      <point x="196" y="492"/>
      <point x="217" y="491"/>
      <point x="241" y="491" type="curve" smooth="yes"/>
      <point x="320" y="491"/>
      <point x="372" y="415"/>
      <point x="372" y="332" type="curve" smooth="yes"/>
      <point x="372" y="249"/>
      <point x="333" y="169"/>
      <point x="232" y="169" type="curve" smooth="yes"/>
    </contour>
    <contour>
      <point x="354" y="149" type="line"/>
      <point x="382" y="113"/>
      <point x="412" y="80"/>
      <point x="415" y="72" type="curve"/>
      <point x="426" y="56"/>
      <point x="430" y="54"/>
      <point x="442" y="50" type="curve"/>
      <point x="453" y="43"/>
      <point x="470" y="47"/>
      <point x="478" y="54" type="curve"/>
      <point x="491" y="59"/>
      <point x="487" y="64"/>
      <point x="483" y="72" type="curve"/>
      <point x="470" y="76"/>
      <point x="481" y="72"/>
      <point x="462" y="91" type="curve"/>
      <point x="454" y="103"/>
      <point x="433" y="126"/>
      <point x="392" y="178" type="curve"/>
    </contour>
    <contour>
      <point x="152" y="474" type="line"/>
      <point x="137" y="485"/>
      <point x="135" y="490"/>
      <point x="119" y="509" type="curve" smooth="yes"/>
      <point x="103" y="529"/>
      <point x="92" y="548"/>
      <point x="85" y="557" type="curve" smooth="yes"/>
      <point x="70" y="574"/>
      <point x="52" y="593"/>
      <point x="44" y="593" type="curve" smooth="yes"/>
      <point x="37" y="593"/>
      <point x="18" y="587"/>
      <point x="12" y="584" type="curve" smooth="yes"/>
      <point x="8" y="582"/>
      <point x="19" y="553"/>
      <point x="39" y="536" type="curve"/>
      <point x="48" y="524"/>
      <point x="86" y="480"/>
      <point x="117" y="443" type="curve"/>
    </contour>
    <contour>
      <point x="392" y="460" type="line"/>
      <point x="433" y="512"/>
      <point x="454" y="535"/>
      <point x="462" y="547" type="curve"/>
      <point x="481" y="566"/>
      <point x="470" y="562"/>
      <point x="483" y="566" type="curve"/>
      <point x="487" y="574"/>
      <point x="491" y="579"/>
      <point x="478" y="584" type="curve"/>
      <point x="470" y="591"/>
      <point x="453" y="595"/>
      <point x="442" y="588" type="curve"/>
      <point x="430" y="584"/>
      <point x="426" y="582"/>
      <point x="415" y="566" type="curve"/>
      <point x="412" y="558"/>
      <point x="382" y="525"/>
      <point x="354" y="489" type="curve"/>
    </contour>
    <contour>
      <point x="117" y="195" type="line"/>
      <point x="86" y="158"/>
      <point x="48" y="114"/>
      <point x="39" y="102" type="curve"/>
      <point x="19" y="85"/>
      <point x="8" y="56"/>
      <point x="12" y="54" type="curve" smooth="yes"/>
      <point x="18" y="51"/>
      <point x="37" y="45"/>
      <point x="44" y="45" type="curve" smooth="yes"/>
      <point x="52" y="45"/>
      <point x="70" y="64"/>
      <point x="85" y="81" type="curve" smooth="yes"/>
      <point x="92" y="90"/>
      <point x="103" y="109"/>
      <point x="119" y="128" type="curve" smooth="yes"/>
      <point x="135" y="148"/>
      <point x="137" y="153"/>
      <point x="152" y="164" type="curve"/>
    </contour>
  </outline>
</glyph>
<glyph name="brokenbar" format="1">
  <advance width="210"/>
  <unicode hex="00A6"/>
  <outline>
    <contour>
      <point x="60" y="59" type="line" smooth="yes"/>
      <point x="60" y="6"/>
      <point x="60" y="-28"/>
      <point x="61" y="-43" type="curve" smooth="yes"/>
      <point x="62" y="-58"/>
      <point x="63" y="-70"/>
      <point x="63" y="-79" type="curve" smooth="yes"/>
      <point x="63" y="-155" type="line"/>
      <point x="59" y="-172"/>
      <point x="61" y="-181"/>
      <point x="69" y="-181" type="curve"/>
      <point x="76" y="-184"/>
      <point x="126" y="-177"/>
      <point x="140" y="-177" type="curve" smooth="yes"/>
      <point x="152" y="-177"/>
      <point x="159" y="-182"/>
      <point x="159" y="-158" type="curve" smooth="yes"/>
      <point x="159" y="-142"/>
      <point x="167" y="-89"/>
      <point x="159" y="-61" type="curve"/>
      <point x="159" y="-50"/>
      <point x="158" y="-33"/>
      <point x="157" y="27" type="curve" smooth="yes"/>
      <point x="157" y="87"/>
      <point x="156" y="101"/>
      <point x="156" y="116" type="curve" smooth="yes"/>
      <point x="156" y="141"/>
      <point x="152" y="179"/>
      <point x="152" y="188" type="curve" smooth="yes"/>
      <point x="152" y="201"/>
      <point x="157" y="214"/>
      <point x="144" y="214" type="curve" smooth="yes"/>
      <point x="81" y="214" type="line" smooth="yes"/>
      <point x="73" y="214"/>
      <point x="60" y="219"/>
      <point x="60" y="204" type="curve" smooth="yes"/>
      <point x="60" y="138" type="line"/>
    </contour>
    <contour>
      <point x="63" y="549" type="line" smooth="yes"/>
      <point x="63" y="496"/>
      <point x="63" y="461"/>
      <point x="64" y="446" type="curve" smooth="yes"/>
      <point x="65" y="431"/>
      <point x="66" y="420"/>
      <point x="66" y="411" type="curve" smooth="yes"/>
      <point x="66" y="335" type="line"/>
      <point x="62" y="318"/>
      <point x="64" y="309"/>
      <point x="72" y="309" type="curve"/>
      <point x="85" y="306"/>
      <point x="113" y="313"/>
      <point x="133" y="313" type="curve" smooth="yes"/>
      <point x="145" y="313"/>
      <point x="152" y="308"/>
      <point x="152" y="332" type="curve" smooth="yes"/>
      <point x="152" y="348"/>
      <point x="160" y="401"/>
      <point x="152" y="429" type="curve"/>
      <point x="152" y="440"/>
      <point x="151" y="457"/>
      <point x="150" y="517" type="curve" smooth="yes"/>
      <point x="150" y="577"/>
      <point x="149" y="591"/>
      <point x="149" y="606" type="curve" smooth="yes"/>
      <point x="149" y="631"/>
      <point x="145" y="669"/>
      <point x="145" y="678" type="curve" smooth="yes"/>
      <point x="145" y="691"/>
      <point x="150" y="704"/>
      <point x="137" y="704" type="curve" smooth="yes"/>
      <point x="84" y="704" type="line" smooth="yes"/>
      <point x="76" y="704"/>
      <point x="63" y="709"/>
      <point x="63" y="694" type="curve" smooth="yes"/>
      <point x="63" y="628" type="line"/>
    </contour>
  </outline>
</glyph>
<glyph name="ordfeminine" format="1">
  <advance width="308"/>
  <unicode hex="00AA"/>
  <outline>
    <contour>
      <point x="292" y="373"/>
      <point x="279" y="397"/>
      <point x="274" y="410" type="curve"/>
      <point x="266" y="423"/>
      <point x="242" y="471"/>
      <point x="231" y="495" type="curve" smooth="yes"/>
      <point x="220" y="519"/>
      <point x="196" y="570"/>
      <point x="188" y="590" type="curve" smooth="yes"/>
      <point x="181" y="610"/>
      <point x="174" y="628"/>
      <point x="167" y="643" type="curve" smooth="yes"/>
      <point x="159" y="658"/>
      <point x="143" y="697"/>
      <point x="140" y="703" type="curve"/>
      <point x="139" y="710"/>
      <point x="137" y="714"/>
      <point x="134" y="717" type="curve" smooth="yes"/>
      <point x="131" y="720"/>
      <point x="129" y="719"/>
      <point x="127" y="714" type="curve" smooth="yes"/>
      <point x="124" y="709"/>
      <point x="121" y="697"/>
      <point x="117" y="682" type="curve" smooth="yes"/>
      <point x="104" y="642" type="line"/>
      <point x="85" y="576" type="line"/>
      <point x="80" y="553"/>
      <point x="77" y="544"/>
      <point x="72" y="528" type="curve" smooth="yes"/>
      <point x="67" y="513"/>
      <point x="58" y="487"/>
      <point x="54" y="464" type="curve"/>
      <point x="49" y="442"/>
      <point x="35" y="397"/>
      <point x="32" y="383" type="curve"/>
      <point x="28" y="370"/>
      <point x="26" y="368"/>
      <point x="25" y="364" type="curve"/>
      <point x="22" y="359"/>
      <point x="21" y="355"/>
      <point x="25" y="355" type="curve" smooth="yes"/>
      <point x="55" y="355" type="line" smooth="yes"/>
      <point x="58" y="355"/>
      <point x="60" y="357"/>
      <point x="61" y="364" type="curve" smooth="yes"/>
      <point x="65" y="379" type="line" smooth="yes"/>
      <point x="68" y="387"/>
      <point x="70" y="395"/>
      <point x="71" y="400" type="curve"/>
      <point x="71" y="411"/>
      <point x="81" y="440"/>
      <point x="81" y="446" type="curve"/>
      <point x="82" y="451"/>
      <point x="83" y="457"/>
      <point x="88" y="457" type="curve" smooth="yes"/>
      <point x="130" y="457" type="line"/>
      <point x="144" y="459"/>
      <point x="175" y="459"/>
      <point x="184" y="459" type="curve"/>
      <point x="192" y="460"/>
      <point x="200" y="461"/>
      <point x="204" y="461" type="curve" smooth="yes"/>
      <point x="208" y="461"/>
      <point x="210" y="459"/>
      <point x="213" y="451" type="curve" smooth="yes"/>
      <point x="225" y="422" type="line"/>
      <point x="227" y="415"/>
      <point x="241" y="377"/>
      <point x="245" y="371" type="curve"/>
      <point x="248" y="363"/>
      <point x="251" y="354"/>
      <point x="255" y="354" type="curve" smooth="yes"/>
      <point x="291" y="354" type="line" smooth="yes"/>
      <point x="298" y="354"/>
      <point x="304" y="356"/>
      <point x="297" y="365" type="curve" smooth="yes"/>
    </contour>
    <contour>
      <point x="158" y="527"/>
      <point x="112" y="527"/>
      <point x="107" y="527" type="curve" smooth="yes"/>
      <point x="100" y="527"/>
      <point x="101" y="531"/>
      <point x="104" y="538" type="curve" smooth="yes"/>
      <point x="107" y="546"/>
      <point x="112" y="560"/>
      <point x="115" y="571" type="curve" smooth="yes"/>
      <point x="128" y="615" type="line" smooth="yes"/>
      <point x="131" y="624"/>
      <point x="131" y="634"/>
      <point x="134" y="634" type="curve" smooth="yes"/>
      <point x="137" y="634"/>
      <point x="137" y="631"/>
      <point x="140" y="624" type="curve" smooth="yes"/>
      <point x="141" y="621"/>
      <point x="145" y="608"/>
      <point x="152" y="593" type="curve"/>
      <point x="157" y="577"/>
      <point x="173" y="544"/>
      <point x="176" y="536" type="curve"/>
      <point x="180" y="529"/>
      <point x="175" y="531"/>
      <point x="166" y="530" type="curve"/>
    </contour>
  </outline>
</glyph>
<glyph name="logicalnot" format="1">
  <advance width="500"/>
  <unicode hex="00AC"/>
  <outline>
    <contour>
      <point x="298" y="394" type="line"/>
      <point x="110" y="394" type="line"/>
      <point x="50" y="394" type="line" smooth="yes"/>
      <point x="33" y="394"/>
      <point x="29" y="386"/>
      <point x="29" y="370" type="curve" smooth="yes"/>
      <point x="29" y="320" type="line" smooth="yes"/>
      <point x="29" y="311"/>
      <point x="28" y="303"/>
      <point x="44" y="303" type="curve"/>
      <point x="58" y="306"/>
      <point x="124" y="307"/>
      <point x="143" y="307" type="curve" smooth="yes"/>
      <point x="259" y="307" type="line" smooth="yes"/>
      <point x="287" y="307"/>
      <point x="313" y="307"/>
      <point x="336" y="306" type="curve"/>
      <point x="340" y="235"/>
      <point x="340" y="169"/>
      <point x="337" y="109" type="curve"/>
      <point x="337" y="96"/>
      <point x="360" y="92"/>
      <point x="406" y="99" type="curve"/>
      <point x="449" y="100"/>
      <point x="469" y="106"/>
      <point x="468" y="117" type="curve"/>
      <point x="468" y="173"/>
      <point x="463" y="244"/>
      <point x="466" y="281" type="curve" smooth="yes"/>
      <point x="467" y="300"/>
      <point x="468" y="313"/>
      <point x="468" y="320" type="curve" smooth="yes"/>
      <point x="468" y="374" type="line" smooth="yes"/>
      <point x="468" y="387"/>
      <point x="468" y="397"/>
      <point x="433" y="394" type="curve"/>
    </contour>
  </outline>
</glyph>
<glyph name="plusminus" format="1">
  <advance width="500"/>
  <unicode hex="00B1"/>
  <outline>
    <contour>
      <point x="294" y="526"/>
      <point x="291" y="557"/>
      <point x="291" y="585" type="curve" smooth="yes"/>
      <point x="291" y="601"/>
      <point x="288" y="632"/>
      <point x="288" y="643" type="curve" smooth="yes"/>
      <point x="288" y="659"/>
      <point x="292" y="695"/>
      <point x="262" y="692" type="curve"/>
      <point x="230" y="692"/>
      <point x="222" y="692"/>
      <point x="209" y="688" type="curve"/>
      <point x="204" y="675"/>
      <point x="197" y="663"/>
      <point x="203" y="606" type="curve"/>
      <point x="203" y="529" type="line" smooth="yes"/>
      <point x="203" y="499"/>
      <point x="208" y="479"/>
      <point x="187" y="476" type="curve"/>
      <point x="174" y="472"/>
      <point x="121" y="476"/>
      <point x="111" y="476" type="curve"/>
      <point x="89" y="478"/>
      <point x="49" y="476"/>
      <point x="43" y="476" type="curve" smooth="yes"/>
      <point x="31" y="476"/>
      <point x="18" y="465"/>
      <point x="22" y="438" type="curve" smooth="yes"/>
      <point x="26" y="415"/>
      <point x="26" y="401"/>
      <point x="30" y="386" type="curve"/>
      <point x="30" y="370"/>
      <point x="31" y="366"/>
      <point x="50" y="366" type="curve" smooth="yes"/>
      <point x="83" y="366"/>
      <point x="115" y="370"/>
      <point x="152" y="370" type="curve"/>
      <point x="181" y="375"/>
      <point x="205" y="375"/>
      <point x="205" y="354" type="curve" smooth="yes"/>
      <point x="205" y="258" type="line"/>
      <point x="205" y="205" type="line" smooth="yes"/>
      <point x="205" y="192"/>
      <point x="204" y="171"/>
      <point x="230" y="171" type="curve" smooth="yes"/>
      <point x="253" y="171"/>
      <point x="270" y="167"/>
      <point x="279" y="167" type="curve"/>
      <point x="292" y="171"/>
      <point x="301" y="182"/>
      <point x="301" y="211" type="curve" smooth="yes"/>
      <point x="301" y="252"/>
      <point x="297" y="269"/>
      <point x="297" y="330" type="curve" smooth="yes"/>
      <point x="297" y="350"/>
      <point x="290" y="370"/>
      <point x="309" y="375" type="curve"/>
      <point x="386" y="375" type="line"/>
      <point x="453" y="375" type="line" smooth="yes"/>
      <point x="470" y="375"/>
      <point x="482" y="381"/>
      <point x="482" y="397" type="curve" smooth="yes"/>
      <point x="482" y="448" type="line" smooth="yes"/>
      <point x="482" y="458"/>
      <point x="482" y="476"/>
      <point x="453" y="476" type="curve" smooth="yes"/>
      <point x="421" y="476"/>
      <point x="398" y="476"/>
      <point x="341" y="472" type="curve"/>
      <point x="305" y="473"/>
      <point x="293" y="473"/>
      <point x="293" y="476" type="curve"/>
      <point x="290" y="484"/>
      <point x="291" y="492"/>
      <point x="291" y="499" type="curve"/>
    </contour>
    <contour>
      <point x="304" y="97" type="line"/>
      <point x="124" y="97" type="line"/>
      <point x="61" y="97" type="line" smooth="yes"/>
      <point x="44" y="97"/>
      <point x="39" y="89"/>
      <point x="39" y="73" type="curve" smooth="yes"/>
      <point x="39" y="23" type="line" smooth="yes"/>
      <point x="39" y="14"/>
      <point x="38" y="6"/>
      <point x="54" y="6" type="curve"/>
      <point x="69" y="9"/>
      <point x="139" y="10"/>
      <point x="158" y="10" type="curve" smooth="yes"/>
      <point x="263" y="10" type="line" smooth="yes"/>
      <point x="301" y="10"/>
      <point x="327" y="9"/>
      <point x="342" y="8" type="curve" smooth="yes"/>
      <point x="385" y="6" type="line"/>
      <point x="421" y="6" type="line" smooth="yes"/>
      <point x="457" y="6"/>
      <point x="465" y="10"/>
      <point x="465" y="23" type="curve" smooth="yes"/>
      <point x="465" y="77" type="line" smooth="yes"/>
      <point x="465" y="90"/>
      <point x="465" y="100"/>
      <point x="428" y="97" type="curve"/>
    </contour>
  </outline>
</glyph>
<glyph name="uni00B3" format="1">
  <advance width="371"/>
  <unicode hex="00B3"/>
  <outline>
    <contour>
      <point x="86" y="705"/>
      <point x="60" y="714"/>
      <point x="60" y="695" type="curve"/>
      <point x="63" y="676"/>
      <point x="60" y="635"/>
      <point x="60" y="624" type="curve" smooth="yes"/>
      <point x="60" y="615"/>
      <point x="58" y="605"/>
      <point x="70" y="605" type="curve" smooth="yes"/>
      <point x="83" y="605"/>
      <point x="200" y="607"/>
      <point x="212" y="607" type="curve" smooth="yes"/>
      <point x="226" y="607"/>
      <point x="247" y="608"/>
      <point x="236" y="600" type="curve" smooth="yes"/>
      <point x="224" y="592"/>
      <point x="128" y="530"/>
      <point x="120" y="526" type="curve"/>
      <point x="111" y="519"/>
      <point x="106" y="518"/>
      <point x="106" y="514" type="curve" smooth="yes"/>
      <point x="106" y="511"/>
      <point x="106" y="505"/>
      <point x="107" y="498" type="curve" smooth="yes"/>
      <point x="108" y="495"/>
      <point x="110" y="494"/>
      <point x="113" y="495" type="curve"/>
      <point x="116" y="492"/>
      <point x="180" y="497"/>
      <point x="225" y="500" type="curve"/>
      <point x="272" y="500"/>
      <point x="302" y="476"/>
      <point x="302" y="447" type="curve" smooth="yes"/>
      <point x="302" y="395"/>
      <point x="278" y="381"/>
      <point x="270" y="377" type="curve" smooth="yes"/>
      <point x="260" y="372"/>
      <point x="227" y="356"/>
      <point x="186" y="356" type="curve" smooth="yes"/>
      <point x="143" y="356"/>
      <point x="120" y="363"/>
      <point x="104" y="382" type="curve"/>
      <point x="89" y="402"/>
      <point x="82" y="418"/>
      <point x="81" y="423" type="curve"/>
      <point x="78" y="428"/>
      <point x="75" y="433"/>
      <point x="70" y="430" type="curve" smooth="yes"/>
      <point x="54" y="422"/>
      <point x="52" y="420"/>
      <point x="49" y="419" type="curve" smooth="yes"/>
      <point x="46" y="418"/>
      <point x="40" y="417"/>
      <point x="47" y="406" type="curve"/>
      <point x="56" y="395"/>
      <point x="90" y="328"/>
      <point x="154" y="328" type="curve" smooth="yes"/>
      <point x="216" y="328"/>
      <point x="265" y="346"/>
      <point x="275" y="351" type="curve"/>
      <point x="284" y="354"/>
      <point x="331" y="386"/>
      <point x="331" y="447" type="curve" smooth="yes"/>
      <point x="331" y="507"/>
      <point x="274" y="523"/>
      <point x="260" y="523" type="curve"/>
      <point x="247" y="525"/>
      <point x="237" y="527"/>
      <point x="213" y="527" type="curve" smooth="yes"/>
      <point x="187" y="527" type="line"/>
      <point x="186" y="527"/>
      <point x="185" y="528"/>
      <point x="185" y="529" type="curve" smooth="yes"/>
      <point x="185" y="531"/>
      <point x="188" y="533"/>
      <point x="194" y="535" type="curve"/>
      <point x="208" y="544" type="line" smooth="yes"/>
      <point x="216" y="549"/>
      <point x="225" y="554"/>
      <point x="229" y="558" type="curve" smooth="yes"/>
      <point x="236" y="563"/>
      <point x="282" y="590"/>
      <point x="297" y="598" type="curve"/>
      <point x="297" y="622" type="line"/>
      <point x="297" y="685" type="line" smooth="yes"/>
      <point x="297" y="700"/>
      <point x="298" y="708"/>
      <point x="289" y="708" type="curve" smooth="yes"/>
      <point x="279" y="708"/>
      <point x="233" y="709"/>
      <point x="198" y="709" type="curve" smooth="yes"/>
      <point x="163" y="709"/>
      <point x="134" y="705"/>
      <point x="106" y="705" type="curve" smooth="yes"/>
    </contour>
  </outline>
</glyph>
<glyph name="paragraph" format="1">
  <advance width="606"/>
  <unicode hex="00B6"/>
  <outline>
    <contour>
      <point x="439" y="704" type="line" smooth="yes"/>
      <point x="388" y="705"/>
      <point x="350" y="705"/>
      <point x="325" y="704" type="curve"/>
      <point x="320" y="703"/>
      <point x="309" y="703"/>
      <point x="292" y="702" type="curve"/>
      <point x="270" y="705"/>
      <point x="194" y="707"/>
      <point x="134" y="702" type="curve"/>
      <point x="77" y="699"/>
      <point x="20" y="648"/>
      <point x="20" y="520" type="curve" smooth="yes"/>
      <point x="20" y="392"/>
      <point x="105" y="367"/>
      <point x="137" y="367" type="curve" smooth="yes"/>
      <point x="150" y="367"/>
      <point x="178" y="364"/>
      <point x="201" y="361" type="curve"/>
      <point x="244" y="357" type="line"/>
      <point x="239" y="272"/>
      <point x="237" y="211"/>
      <point x="237" y="174" type="curve" smooth="yes"/>
      <point x="237" y="83" type="line" smooth="yes"/>
      <point x="237" y="58"/>
      <point x="235" y="38"/>
      <point x="234" y="33" type="curve" smooth="yes"/>
      <point x="229" y="12"/>
      <point x="254" y="0"/>
      <point x="267" y="6" type="curve"/>
      <point x="279" y="8"/>
      <point x="301" y="5"/>
      <point x="318" y="3" type="curve" smooth="yes"/>
      <point x="342" y="0"/>
      <point x="344" y="17"/>
      <point x="344" y="36" type="curve" smooth="yes"/>
      <point x="344" y="55"/>
      <point x="342" y="118"/>
      <point x="342" y="160" type="curve" smooth="yes"/>
      <point x="342" y="195"/>
      <point x="334" y="485"/>
      <point x="334" y="603" type="curve" smooth="yes"/>
      <point x="334" y="649" type="line"/>
      <point x="417" y="649" type="line"/>
      <point x="417" y="624" type="line"/>
      <point x="420" y="562"/>
      <point x="421" y="440"/>
      <point x="421" y="365" type="curve" smooth="yes"/>
      <point x="421" y="320" type="line" smooth="yes"/>
      <point x="421" y="256"/>
      <point x="431" y="63"/>
      <point x="428" y="39" type="curve"/>
      <point x="427" y="18"/>
      <point x="424" y="-7"/>
      <point x="443" y="-7" type="curve" smooth="yes"/>
      <point x="450" y="-7"/>
      <point x="464" y="-6"/>
      <point x="479" y="-6" type="curve" smooth="yes"/>
      <point x="494" y="-6"/>
      <point x="488" y="15"/>
      <point x="487" y="32" type="curve"/>
      <point x="484" y="51"/>
      <point x="483" y="90"/>
      <point x="482" y="143" type="curve"/>
      <point x="482" y="197"/>
      <point x="474" y="365"/>
      <point x="474" y="416" type="curve" smooth="yes"/>
      <point x="474" y="456"/>
      <point x="476" y="561"/>
      <point x="478" y="623" type="curve"/>
      <point x="478" y="648" type="line"/>
      <point x="485" y="648"/>
      <point x="489" y="648"/>
      <point x="492" y="647" type="curve"/>
      <point x="511" y="646"/>
      <point x="531" y="645"/>
      <point x="542" y="645" type="curve" smooth="yes"/>
      <point x="566" y="645"/>
      <point x="570" y="649"/>
      <point x="570" y="662" type="curve" smooth="yes"/>
      <point x="570" y="682" type="line" smooth="yes"/>
      <point x="570" y="687"/>
      <point x="570" y="694"/>
      <point x="567" y="698" type="curve" smooth="yes"/>
      <point x="564" y="702"/>
      <point x="562" y="703"/>
      <point x="537" y="702" type="curve"/>
    </contour>
  </outline>
</glyph>
<glyph name="onequarter" format="1">
  <advance width="725"/>
  <unicode hex="00BC"/>
  <outline>
    <contour>
      <point x="589" y="717"/>
      <point x="573" y="713"/>
      <point x="567" y="713" type="curve"/>
      <point x="555" y="709"/>
      <point x="536" y="685"/>
      <point x="524" y="660" type="curve" smooth="yes"/>
      <point x="513" y="635"/>
      <point x="477" y="560"/>
      <point x="451" y="520" type="curve"/>
      <point x="430" y="484"/>
      <point x="331" y="309"/>
      <point x="298" y="244" type="curve"/>
      <point x="267" y="176"/>
      <point x="191" y="47"/>
      <point x="175" y="15" type="curve"/>
      <point x="166" y="0"/>
      <point x="164" y="-1"/>
      <point x="157" y="-16" type="curve" smooth="yes"/>
      <point x="154" y="-24"/>
      <point x="156" y="-30"/>
      <point x="165" y="-35" type="curve"/>
      <point x="180" y="-39"/>
      <point x="203" y="-41"/>
      <point x="216" y="-36" type="curve"/>
      <point x="232" y="-24"/>
      <point x="236" y="-22"/>
      <point x="244" y="1" type="curve" smooth="yes"/>
      <point x="252" y="23"/>
      <point x="346" y="189"/>
      <point x="365" y="226" type="curve"/>
      <point x="389" y="261"/>
      <point x="468" y="419"/>
      <point x="495" y="470" type="curve"/>
      <point x="519" y="520"/>
      <point x="580" y="624"/>
      <point x="593" y="645" type="curve" smooth="yes"/>
      <point x="602" y="658"/>
      <point x="622" y="697"/>
      <point x="611" y="706" type="curve"/>
    </contour>
    <contour>
      <point x="149" y="689"/>
      <point x="112" y="679"/>
      <point x="85" y="678" type="curve"/>
      <point x="68" y="671"/>
      <point x="66" y="670"/>
      <point x="69" y="643" type="curve" smooth="yes"/>
      <point x="69" y="641"/>
      <point x="69" y="639"/>
      <point x="70" y="637" type="curve" smooth="yes"/>
      <point x="71" y="630"/>
      <point x="98" y="641"/>
      <point x="154" y="652" type="curve"/>
      <point x="151" y="603" type="line" smooth="yes"/>
      <point x="150" y="586"/>
      <point x="150" y="569"/>
      <point x="151" y="552" type="curve" smooth="yes"/>
      <point x="155" y="511"/>
      <point x="151" y="446"/>
      <point x="154" y="432" type="curve"/>
      <point x="154" y="425"/>
      <point x="154" y="418"/>
      <point x="153" y="410" type="curve" smooth="yes"/>
      <point x="152" y="403"/>
      <point x="143" y="399"/>
      <point x="124" y="400" type="curve"/>
      <point x="107" y="396"/>
      <point x="90" y="393"/>
      <point x="73" y="390" type="curve" smooth="yes"/>
      <point x="68" y="389"/>
      <point x="66" y="383"/>
      <point x="67" y="373" type="curve" smooth="yes"/>
      <point x="68" y="363"/>
      <point x="71" y="358"/>
      <point x="76" y="358" type="curve" smooth="yes"/>
      <point x="93" y="359"/>
      <point x="111" y="360"/>
      <point x="130" y="359" type="curve"/>
      <point x="204" y="362" type="line"/>
      <point x="229" y="361"/>
      <point x="245" y="358"/>
      <point x="270" y="358" type="curve"/>
      <point x="290" y="357"/>
      <point x="284" y="374"/>
      <point x="283" y="390" type="curve" smooth="yes"/>
      <point x="283" y="393"/>
      <point x="263" y="395"/>
      <point x="223" y="397" type="curve"/>
      <point x="219" y="416"/>
      <point x="218" y="471"/>
      <point x="218" y="488" type="curve" smooth="yes"/>
      <point x="218" y="509"/>
      <point x="218" y="524"/>
      <point x="217" y="532" type="curve" smooth="yes"/>
      <point x="216" y="540"/>
      <point x="216" y="550"/>
      <point x="216" y="563" type="curve" smooth="yes"/>
      <point x="216" y="588"/>
      <point x="215" y="604"/>
      <point x="220" y="644" type="curve"/>
      <point x="220" y="663"/>
      <point x="221" y="679"/>
      <point x="221" y="704" type="curve" smooth="yes"/>
      <point x="221" y="710"/>
      <point x="210" y="713"/>
      <point x="194" y="709" type="curve"/>
    </contour>
    <contour>
      <point x="659" y="138"/>
      <point x="660" y="148"/>
      <point x="655" y="148" type="curve" smooth="yes"/>
      <point x="647" y="148"/>
      <point x="637" y="147"/>
      <point x="634" y="147" type="curve" smooth="yes"/>
      <point x="630" y="147"/>
      <point x="627" y="148"/>
      <point x="627" y="164" type="curve" smooth="yes"/>
      <point x="627" y="297"/>
      <point x="631" y="315"/>
      <point x="631" y="342" type="curve" smooth="yes"/>
      <point x="631" y="356"/>
      <point x="626" y="355"/>
      <point x="614" y="355" type="curve" smooth="yes"/>
      <point x="575" y="355" type="line"/>
      <point x="571" y="355" type="line" smooth="yes"/>
      <point x="567" y="355"/>
      <point x="563" y="354"/>
      <point x="558" y="346" type="curve" smooth="yes"/>
      <point x="554" y="341"/>
      <point x="540" y="319"/>
      <point x="504" y="268" type="curve" smooth="yes"/>
      <point x="454" y="199"/>
      <point x="455" y="209"/>
      <point x="439" y="182" type="curve"/>
      <point x="413" y="143"/>
      <point x="410" y="149"/>
      <point x="410" y="133" type="curve" smooth="yes"/>
      <point x="410" y="126"/>
      <point x="409" y="109"/>
      <point x="421" y="109" type="curve" smooth="yes"/>
      <point x="425" y="109"/>
      <point x="447" y="110"/>
      <point x="458" y="110" type="curve" smooth="yes"/>
      <point x="469" y="111"/>
      <point x="480" y="111"/>
      <point x="491" y="111" type="curve" smooth="yes"/>
      <point x="500" y="111"/>
      <point x="504" y="110"/>
      <point x="513" y="110" type="curve" smooth="yes"/>
      <point x="532" y="110"/>
      <point x="560" y="113"/>
      <point x="565" y="113" type="curve" smooth="yes"/>
      <point x="572" y="113"/>
      <point x="576" y="111"/>
      <point x="576" y="99" type="curve" smooth="yes"/>
      <point x="576" y="75"/>
      <point x="575" y="77"/>
      <point x="575" y="70" type="curve" smooth="yes"/>
      <point x="575" y="65"/>
      <point x="574" y="62"/>
      <point x="574" y="46" type="curve" smooth="yes"/>
      <point x="574" y="23" type="line" smooth="yes"/>
      <point x="574" y="7"/>
      <point x="574" y="5"/>
      <point x="579" y="5" type="curve" smooth="yes"/>
      <point x="616" y="5" type="line"/>
      <point x="620" y="6"/>
      <point x="624" y="8"/>
      <point x="624" y="15" type="curve" smooth="yes"/>
      <point x="624" y="20" type="line" smooth="yes"/>
      <point x="624" y="22"/>
      <point x="625" y="47"/>
      <point x="625" y="70" type="curve" smooth="yes"/>
      <point x="625" y="90"/>
      <point x="626" y="101"/>
      <point x="626" y="105" type="curve" smooth="yes"/>
      <point x="626" y="102"/>
      <point x="627" y="97"/>
      <point x="627" y="98" type="curve" smooth="yes"/>
      <point x="627" y="106"/>
      <point x="627" y="113"/>
      <point x="636" y="113" type="curve" smooth="yes"/>
      <point x="643" y="113"/>
      <point x="649" y="114"/>
      <point x="653" y="114" type="curve" smooth="yes"/>
      <point x="655" y="114" type="line" smooth="yes"/>
      <point x="658" y="114"/>
      <point x="660" y="125"/>
      <point x="660" y="129" type="curve" smooth="yes"/>
      <point x="660" y="129"/>
      <point x="660" y="130"/>
      <point x="660" y="131" type="curve"/>
    </contour>
    <contour>
      <point x="577" y="309"/>
      <point x="576" y="257"/>
      <point x="576" y="247" type="curve" smooth="yes"/>
      <point x="575" y="222" type="line"/>
      <point x="575" y="156"/>
      <point x="576" y="145"/>
      <point x="563" y="145" type="curve" smooth="yes"/>
      <point x="537" y="145" type="line" smooth="yes"/>
      <point x="509" y="145"/>
      <point x="491" y="143"/>
      <point x="486" y="143" type="curve" smooth="yes"/>
      <point x="477" y="143"/>
      <point x="468" y="144"/>
      <point x="461" y="144" type="curve" smooth="yes"/>
      <point x="453" y="144"/>
      <point x="452" y="142"/>
      <point x="449" y="142" type="curve" smooth="yes"/>
      <point x="448" y="142"/>
      <point x="447" y="143"/>
      <point x="447" y="146" type="curve" smooth="yes"/>
      <point x="447" y="159"/>
      <point x="459" y="155"/>
      <point x="478" y="187" type="curve"/>
      <point x="486" y="195"/>
      <point x="494" y="202"/>
      <point x="518" y="239" type="curve"/>
      <point x="551" y="284" type="line"/>
      <point x="571" y="317"/>
      <point x="578" y="327"/>
      <point x="578" y="327" type="curve"/>
      <point x="578" y="326" type="line"/>
      <point x="578" y="326"/>
      <point x="579" y="326"/>
      <point x="579" y="325" type="curve" smooth="yes"/>
      <point x="579" y="318"/>
      <point x="577" y="314"/>
      <point x="577" y="307" type="curve" smooth="yes"/>
    </contour>
  </outline>
</glyph>
<glyph name="Edieresis" format="1">
  <advance width="504"/>
  <unicode hex="00CB"/>
  <outline>
    <contour>
      <point x="466" y="633"/>
      <point x="462" y="654"/>
      <point x="462" y="673" type="curve" smooth="yes"/>
      <point x="462" y="692"/>
      <point x="460" y="701"/>
      <point x="441" y="701" type="curve" smooth="yes"/>
      <point x="422" y="701"/>
      <point x="371" y="705"/>
      <point x="330" y="705" type="curve" smooth="yes"/>
      <point x="291" y="705"/>
      <point x="223" y="696"/>
      <point x="180" y="696" type="curve" smooth="yes"/>
      <point x="135" y="696"/>
      <point x="117" y="699"/>
      <point x="102" y="699" type="curve" smooth="yes"/>
      <point x="87" y="699"/>
      <point x="68" y="706"/>
      <point x="68" y="678" type="curve" smooth="yes"/>
      <point x="67" y="650"/>
      <point x="65" y="591"/>
      <point x="65" y="531" type="curve" smooth="yes"/>
      <point x="65" y="471"/>
      <point x="70" y="464"/>
      <point x="70" y="387" type="curve" smooth="yes"/>
      <point x="70" y="310"/>
      <point x="63" y="292"/>
      <point x="63" y="232" type="curve" smooth="yes"/>
      <point x="63" y="95" type="line" smooth="yes"/>
      <point x="63" y="74"/>
      <point x="65" y="64"/>
      <point x="65" y="52" type="curve" smooth="yes"/>
      <point x="65" y="40"/>
      <point x="65" y="26"/>
      <point x="66" y="15" type="curve" smooth="yes"/>
      <point x="66" y="4"/>
      <point x="65" y="-4"/>
      <point x="80" y="-1" type="curve"/>
      <point x="93" y="-1"/>
      <point x="190" y="3"/>
      <point x="238" y="3" type="curve" smooth="yes"/>
      <point x="285" y="3"/>
      <point x="381" y="1"/>
      <point x="414" y="1" type="curve" smooth="yes"/>
      <point x="446" y="1"/>
      <point x="462" y="-5"/>
      <point x="462" y="23" type="curve" smooth="yes"/>
      <point x="462" y="52"/>
      <point x="463" y="73"/>
      <point x="463" y="93" type="curve" smooth="yes"/>
      <point x="463" y="111"/>
      <point x="472" y="137"/>
      <point x="439" y="134" type="curve" smooth="yes"/>
      <point x="405" y="131"/>
      <point x="321" y="135"/>
      <point x="276" y="135" type="curve" smooth="yes"/>
      <point x="231" y="135"/>
      <point x="181" y="134"/>
      <point x="158" y="134" type="curve" smooth="yes"/>
      <point x="147" y="134"/>
      <point x="137" y="133"/>
      <point x="130" y="133" type="curve"/>
      <point x="126" y="132"/>
      <point x="122" y="132"/>
      <point x="119" y="132" type="curve"/>
      <point x="119" y="232" type="line"/>
      <point x="120" y="231"/>
      <point x="122" y="231"/>
      <point x="125" y="231" type="curve"/>
      <point x="127" y="230"/>
      <point x="131" y="230"/>
      <point x="138" y="230" type="curve" smooth="yes"/>
      <point x="149" y="230"/>
      <point x="192" y="238"/>
      <point x="256" y="238" type="curve" smooth="yes"/>
      <point x="319" y="238"/>
      <point x="340" y="236"/>
      <point x="356" y="236" type="curve" smooth="yes"/>
      <point x="371" y="236"/>
      <point x="383" y="225"/>
      <point x="383" y="249" type="curve" smooth="yes"/>
      <point x="383" y="274"/>
      <point x="382" y="283"/>
      <point x="382" y="302" type="curve" smooth="yes"/>
      <point x="382" y="321"/>
      <point x="384" y="326"/>
      <point x="384" y="333" type="curve" smooth="yes"/>
      <point x="384" y="340"/>
      <point x="382" y="345"/>
      <point x="371" y="345" type="curve" smooth="yes"/>
      <point x="360" y="345"/>
      <point x="346" y="348"/>
      <point x="322" y="348" type="curve" smooth="yes"/>
      <point x="298" y="348"/>
      <point x="253" y="344"/>
      <point x="216" y="344" type="curve" smooth="yes"/>
      <point x="188" y="344"/>
      <point x="163" y="344"/>
      <point x="146" y="345" type="curve" smooth="yes"/>
      <point x="136" y="345"/>
      <point x="127" y="345"/>
      <point x="119" y="346" type="curve"/>
      <point x="118" y="357"/>
      <point x="118" y="367"/>
      <point x="118" y="378" type="curve" smooth="yes"/>
      <point x="118" y="437" type="line" smooth="yes"/>
      <point x="118" y="472"/>
      <point x="121" y="517"/>
      <point x="121" y="533" type="curve" smooth="yes"/>
      <point x="121" y="548"/>
      <point x="120" y="553"/>
      <point x="131" y="553" type="curve" smooth="yes"/>
      <point x="142" y="553"/>
      <point x="203" y="551"/>
      <point x="237" y="554" type="curve" smooth="yes"/>
      <point x="272" y="557"/>
      <point x="313" y="552"/>
      <point x="350" y="553" type="curve" smooth="yes"/>
      <point x="387" y="554"/>
      <point x="413" y="553"/>
      <point x="427" y="550" type="curve" smooth="yes"/>
      <point x="439" y="548"/>
      <point x="460" y="535"/>
      <point x="463" y="560" type="curve" smooth="yes"/>
      <point x="467" y="585"/>
      <point x="466" y="599"/>
      <point x="466" y="606" type="curve" smooth="yes"/>
    </contour>
    <contour>
      <point x="215" y="817"/>
      <point x="180" y="833"/>
      <point x="149" y="833" type="curve" smooth="yes"/>
      <point x="118" y="833"/>
      <point x="95" y="805"/>
      <point x="95" y="778" type="curve" smooth="yes"/>
      <point x="95" y="742"/>
      <point x="126" y="720"/>
      <point x="153" y="720" type="curve" smooth="yes"/>
      <point x="177" y="720"/>
      <point x="215" y="742"/>
      <point x="215" y="782" type="curve" smooth="yes"/>
    </contour>
    <contour>
      <point x="324" y="754"/>
      <point x="335" y="724"/>
      <point x="378" y="724" type="curve" smooth="yes"/>
      <point x="421" y="724"/>
      <point x="441" y="751"/>
      <point x="441" y="778" type="curve" smooth="yes"/>
      <point x="441" y="809"/>
      <point x="425" y="840"/>
      <point x="398" y="840" type="curve" smooth="yes"/>
      <point x="371" y="840"/>
      <point x="324" y="833"/>
      <point x="324" y="778" type="curve" smooth="yes"/>
    </contour>
  </outline>
</glyph>
<glyph name="Igrave" format="1">
  <advance width="176"/>
  <unicode hex="00CC"/>
  <outline>
    <contour>
      <point x="117" y="685"/>
      <point x="123" y="706"/>
      <point x="108" y="706" type="curve" smooth="yes"/>
      <point x="93" y="706"/>
      <point x="78" y="707"/>
      <point x="71" y="707" type="curve" smooth="yes"/>
      <point x="52" y="707"/>
      <point x="55" y="683"/>
      <point x="56" y="660" type="curve"/>
      <point x="59" y="636"/>
      <point x="49" y="442"/>
      <point x="49" y="376" type="curve" smooth="yes"/>
      <point x="49" y="310"/>
      <point x="45" y="73"/>
      <point x="45" y="35" type="curve" smooth="yes"/>
      <point x="45" y="-3"/>
      <point x="39" y="-7"/>
      <point x="55" y="-7" type="curve" smooth="yes"/>
      <point x="70" y="-7"/>
      <point x="91" y="-8"/>
      <point x="100" y="-3" type="curve" smooth="yes"/>
      <point x="108" y="1"/>
      <point x="113" y="3"/>
      <point x="109" y="27" type="curve"/>
      <point x="106" y="52"/>
      <point x="103" y="227"/>
      <point x="103" y="279" type="curve" smooth="yes"/>
      <point x="103" y="330"/>
      <point x="111" y="501"/>
      <point x="111" y="555" type="curve" smooth="yes"/>
      <point x="112" y="610"/>
      <point x="113" y="648"/>
      <point x="116" y="668" type="curve"/>
    </contour>
    <contour>
      <point x="166" y="787"/>
      <point x="132" y="796"/>
      <point x="121" y="801" type="curve"/>
      <point x="86" y="809"/>
      <point x="70" y="815"/>
      <point x="35" y="830" type="curve"/>
      <point x="11" y="838"/>
      <point x="1" y="842"/>
      <point x="-18" y="830" type="curve"/>
      <point x="-29" y="825"/>
      <point x="-43" y="816"/>
      <point x="-34" y="797" type="curve" smooth="yes"/>
      <point x="-31" y="789"/>
      <point x="5" y="777"/>
      <point x="16" y="774" type="curve"/>
      <point x="29" y="766"/>
      <point x="38" y="771"/>
      <point x="78" y="753" type="curve"/>
      <point x="100" y="745" type="line"/>
      <point x="113" y="742"/>
      <point x="127" y="740"/>
      <point x="135" y="741" type="curve"/>
      <point x="163" y="738"/>
      <point x="178" y="737"/>
      <point x="171" y="768" type="curve" smooth="yes"/>
    </contour>
  </outline>
</glyph>
<glyph name="Iacute" format="1">
  <advance width="176"/>
  <unicode hex="00CD"/>
  <outline>
    <contour>
      <point x="117" y="685"/>
      <point x="123" y="706"/>
      <point x="108" y="706" type="curve" smooth="yes"/>
      <point x="93" y="706"/>
      <point x="78" y="707"/>
      <point x="71" y="707" type="curve" smooth="yes"/>
      <point x="52" y="707"/>
      <point x="55" y="683"/>
      <point x="56" y="660" type="curve"/>
      <point x="59" y="636"/>
      <point x="49" y="442"/>
      <point x="49" y="376" type="curve" smooth="yes"/>
      <point x="49" y="310"/>
      <point x="45" y="73"/>
      <point x="45" y="35" type="curve" smooth="yes"/>
      <point x="45" y="-3"/>
      <point x="39" y="-7"/>
      <point x="55" y="-7" type="curve" smooth="yes"/>
      <point x="70" y="-7"/>
      <point x="91" y="-8"/>
      <point x="100" y="-3" type="curve" smooth="yes"/>
      <point x="108" y="1"/>
      <point x="113" y="3"/>
      <point x="109" y="27" type="curve"/>
      <point x="106" y="52"/>
      <point x="103" y="227"/>
      <point x="103" y="279" type="curve" smooth="yes"/>
      <point x="103" y="330"/>
      <point x="111" y="501"/>
      <point x="111" y="555" type="curve" smooth="yes"/>
      <point x="112" y="610"/>
      <point x="113" y="648"/>
      <point x="116" y="668" type="curve"/>
    </contour>
    <contour>
      <point x="204" y="838"/>
      <point x="190" y="837"/>
      <point x="162" y="833" type="curve"/>
      <point x="154" y="833"/>
      <point x="139" y="830"/>
      <point x="127" y="826" type="curve" smooth="yes"/>
      <point x="105" y="818" type="line"/>
      <point x="64" y="800"/>
      <point x="58" y="803"/>
      <point x="44" y="795" type="curve"/>
      <point x="34" y="792"/>
      <point x="-4" y="777"/>
      <point x="-6" y="770" type="curve" smooth="yes"/>
      <point x="-13" y="751"/>
      <point x="1" y="742"/>
      <point x="12" y="738" type="curve"/>
      <point x="32" y="726"/>
      <point x="41" y="732"/>
      <point x="65" y="740" type="curve"/>
      <point x="99" y="756"/>
      <point x="116" y="762"/>
      <point x="150" y="773" type="curve" smooth="yes"/>
      <point x="161" y="776"/>
      <point x="194" y="790"/>
      <point x="199" y="807" type="curve"/>
    </contour>
  </outline>
</glyph>
<glyph name="Eth" format="1">
  <advance width="616"/>
  <unicode hex="00D0"/>
  <outline>
    <contour>
      <point x="250" y="700"/>
      <point x="226" y="699"/>
      <point x="205" y="698" type="curve" smooth="yes"/>
      <point x="169" y="696" type="line"/>
      <point x="145" y="696"/>
      <point x="102" y="701"/>
      <point x="102" y="681" type="curve" smooth="yes"/>
      <point x="102" y="660"/>
      <point x="104" y="592"/>
      <point x="104" y="511" type="curve" smooth="yes"/>
      <point x="104" y="431"/>
      <point x="96" y="381"/>
      <point x="96" y="303" type="curve" smooth="yes"/>
      <point x="96" y="224"/>
      <point x="101" y="175"/>
      <point x="101" y="155" type="curve" smooth="yes"/>
      <point x="101" y="134"/>
      <point x="104" y="84"/>
      <point x="104" y="60" type="curve" smooth="yes"/>
      <point x="104" y="36"/>
      <point x="98" y="0"/>
      <point x="122" y="0" type="curve" smooth="yes"/>
      <point x="147" y="0"/>
      <point x="219" y="2"/>
      <point x="258" y="2" type="curve" smooth="yes"/>
      <point x="296" y="2"/>
      <point x="576" y="14"/>
      <point x="576" y="315" type="curve" smooth="yes"/>
      <point x="576" y="639"/>
      <point x="366" y="700"/>
      <point x="273" y="700" type="curve" smooth="yes"/>
    </contour>
    <contour>
      <point x="317" y="393" type="line"/>
      <point x="248" y="393" type="line" smooth="yes"/>
      <point x="201" y="393"/>
      <point x="171" y="392"/>
      <point x="158" y="391" type="curve" smooth="yes"/>
      <point x="145" y="390"/>
      <point x="135" y="390"/>
      <point x="127" y="390" type="curve" smooth="yes"/>
      <point x="61" y="390" type="line"/>
      <point x="46" y="393"/>
      <point x="38" y="392"/>
      <point x="38" y="386" type="curve"/>
      <point x="35" y="380"/>
      <point x="42" y="338"/>
      <point x="42" y="328" type="curve" smooth="yes"/>
      <point x="42" y="317"/>
      <point x="38" y="312"/>
      <point x="58" y="312" type="curve" smooth="yes"/>
      <point x="72" y="312"/>
      <point x="119" y="307"/>
      <point x="142" y="312" type="curve"/>
      <point x="153" y="312"/>
      <point x="167" y="313"/>
      <point x="219" y="313" type="curve" smooth="yes"/>
      <point x="272" y="314"/>
      <point x="285" y="315"/>
      <point x="297" y="315" type="curve" smooth="yes"/>
      <point x="321" y="315"/>
      <point x="352" y="318"/>
      <point x="360" y="318" type="curve" smooth="yes"/>
      <point x="372" y="318"/>
      <point x="383" y="314"/>
      <point x="383" y="325" type="curve" smooth="yes"/>
      <point x="383" y="376" type="line" smooth="yes"/>
      <point x="383" y="383"/>
      <point x="387" y="393"/>
      <point x="375" y="393" type="curve" smooth="yes"/>
    </contour>
    <contour>
      <point x="321" y="620"/>
      <point x="364" y="602"/>
      <point x="409" y="567" type="curve"/>
      <point x="485" y="491"/>
      <point x="506" y="429"/>
      <point x="510" y="364" type="curve"/>
      <point x="510" y="331"/>
      <point x="507" y="297"/>
      <point x="501" y="264" type="curve" smooth="yes"/>
      <point x="495" y="231"/>
      <point x="476" y="196"/>
      <point x="444" y="157" type="curve"/>
      <point x="395" y="115"/>
      <point x="338" y="83"/>
      <point x="275" y="62" type="curve"/>
      <point x="275" y="181"/>
      <point x="275" y="249"/>
      <point x="276" y="266" type="curve" smooth="yes"/>
      <point x="277" y="295"/>
      <point x="278" y="327"/>
      <point x="278" y="350" type="curve" smooth="yes"/>
      <point x="278" y="371"/>
      <point x="279" y="395"/>
      <point x="281" y="420" type="curve" smooth="yes"/>
      <point x="283" y="446"/>
      <point x="283" y="514"/>
      <point x="280" y="623" type="curve"/>
    </contour>
  </outline>
</glyph>
<glyph name="Otilde" format="1">
  <advance width="508"/>
  <unicode hex="00D5"/>
  <outline>
    <contour>
      <point x="185" y="714"/>
      <point x="43" y="645"/>
      <point x="43" y="357" type="curve" smooth="yes"/>
      <point x="43" y="249"/>
      <point x="60" y="-22"/>
      <point x="280" y="-22" type="curve" smooth="yes"/>
      <point x="437" y="-22"/>
      <point x="501" y="198"/>
      <point x="501" y="343" type="curve" smooth="yes"/>
      <point x="501" y="489"/>
      <point x="490" y="714"/>
      <point x="273" y="714" type="curve" smooth="yes"/>
    </contour>
    <contour>
      <point x="232" y="232"/>
      <point x="229" y="285"/>
      <point x="229" y="325" type="curve" smooth="yes"/>
      <point x="229" y="368"/>
      <point x="242" y="434"/>
      <point x="279" y="434" type="curve" smooth="yes"/>
      <point x="308" y="434"/>
      <point x="325" y="385"/>
      <point x="325" y="334" type="curve" smooth="yes"/>
      <point x="325" y="284"/>
      <point x="311" y="232"/>
      <point x="272" y="232" type="curve" smooth="yes"/>
    </contour>
    <contour>
      <point x="118" y="823"/>
      <point x="102" y="836"/>
      <point x="99" y="823" type="curve" smooth="yes"/>
      <point x="96" y="811"/>
      <point x="97" y="795"/>
      <point x="97" y="787" type="curve" smooth="yes"/>
      <point x="97" y="778"/>
      <point x="102" y="764"/>
      <point x="163" y="764" type="curve" smooth="yes"/>
      <point x="202" y="764"/>
      <point x="218" y="769"/>
      <point x="253" y="772" type="curve" smooth="yes"/>
      <point x="288" y="775"/>
      <point x="311" y="782"/>
      <point x="358" y="783" type="curve" smooth="yes"/>
      <point x="382" y="783"/>
      <point x="405" y="771"/>
      <point x="424" y="771" type="curve" smooth="yes"/>
      <point x="439" y="771"/>
      <point x="447" y="776"/>
      <point x="447" y="787" type="curve" smooth="yes"/>
      <point x="447" y="802" type="line"/>
      <point x="445" y="810"/>
      <point x="456" y="825"/>
      <point x="418" y="827" type="curve"/>
      <point x="399" y="830"/>
      <point x="378" y="831"/>
      <point x="354" y="831" type="curve" smooth="yes"/>
      <point x="302" y="831"/>
      <point x="263" y="828"/>
      <point x="235" y="823" type="curve" smooth="yes"/>
      <point x="207" y="818"/>
      <point x="191" y="814"/>
      <point x="163" y="814" type="curve"/>
    </contour>
  </outline>
</glyph>
<glyph name="Odieresis" format="1">
  <advance width="508"/>
  <unicode hex="00D6"/>
  <outline>
    <contour>
      <point x="185" y="714"/>
      <point x="43" y="645"/>
      <point x="43" y="357" type="curve" smooth="yes"/>
      <point x="43" y="249"/>
      <point x="60" y="-22"/>
      <point x="280" y="-22" type="curve" smooth="yes"/>
      <point x="437" y="-22"/>
      <point x="501" y="198"/>
      <point x="501" y="343" type="curve" smooth="yes"/>
      <point x="501" y="489"/>
      <point x="490" y="714"/>
      <point x="273" y="714" type="curve" smooth="yes"/>
    </contour>
    <contour>
      <point x="232" y="232"/>
      <point x="229" y="285"/>
      <point x="229" y="325" type="curve" smooth="yes"/>
      <point x="229" y="368"/>
      <point x="242" y="434"/>
      <point x="279" y="434" type="curve" smooth="yes"/>
      <point x="308" y="434"/>
      <point x="325" y="385"/>
      <point x="325" y="334" type="curve" smooth="yes"/>
      <point x="325" y="284"/>
      <point x="311" y="232"/>
      <point x="272" y="232" type="curve" smooth="yes"/>
    </contour>
    <contour>
      <point x="231" y="817"/>
      <point x="196" y="833"/>
      <point x="165" y="833" type="curve" smooth="yes"/>
      <point x="134" y="833"/>
      <point x="111" y="805"/>
      <point x="111" y="778" type="curve" smooth="yes"/>
      <point x="111" y="742"/>
      <point x="142" y="720"/>
      <point x="169" y="720" type="curve" smooth="yes"/>
      <point x="193" y="720"/>
      <point x="231" y="742"/>
      <point x="231" y="782" type="curve" smooth="yes"/>
    </contour>
    <contour>
      <point x="340" y="754"/>
      <point x="351" y="724"/>
      <point x="394" y="724" type="curve" smooth="yes"/>
      <point x="437" y="724"/>
      <point x="457" y="751"/>
      <point x="457" y="778" type="curve" smooth="yes"/>
      <point x="457" y="809"/>
      <point x="441" y="840"/>
      <point x="414" y="840" type="curve" smooth="yes"/>
      <point x="387" y="840"/>
      <point x="340" y="833"/>
      <point x="340" y="778" type="curve" smooth="yes"/>
    </contour>
  </outline>
</glyph>
<glyph name="Uacute" format="1">
  <advance width="405"/>
  <unicode hex="00DA"/>
  <outline>
    <contour>
      <point x="108" y="684"/>
      <point x="114" y="705"/>
      <point x="102" y="702" type="curve" smooth="yes"/>
      <point x="89" y="699"/>
      <point x="82" y="700"/>
      <point x="75" y="701" type="curve"/>
      <point x="67" y="704"/>
      <point x="52" y="707"/>
      <point x="57" y="662" type="curve"/>
      <point x="61" y="616"/>
      <point x="63" y="423"/>
      <point x="59" y="387" type="curve" smooth="yes"/>
      <point x="54" y="351"/>
      <point x="54" y="191"/>
      <point x="70" y="140" type="curve" smooth="yes"/>
      <point x="86" y="88"/>
      <point x="132" y="3"/>
      <point x="228" y="3" type="curve" smooth="yes"/>
      <point x="325" y="3"/>
      <point x="430" y="60"/>
      <point x="433" y="247" type="curve" smooth="yes"/>
      <point x="436" y="436"/>
      <point x="424" y="558"/>
      <point x="427" y="593" type="curve" smooth="yes"/>
      <point x="430" y="626"/>
      <point x="427" y="663"/>
      <point x="426" y="679" type="curve" smooth="yes"/>
      <point x="425" y="695"/>
      <point x="427" y="703"/>
      <point x="404" y="703" type="curve" smooth="yes"/>
      <point x="381" y="703"/>
      <point x="344" y="702"/>
      <point x="333" y="703" type="curve" smooth="yes"/>
      <point x="322" y="703"/>
      <point x="297" y="710"/>
      <point x="308" y="664" type="curve"/>
      <point x="318" y="617"/>
      <point x="307" y="467"/>
      <point x="307" y="392" type="curve" smooth="yes"/>
      <point x="307" y="317"/>
      <point x="302" y="190"/>
      <point x="302" y="165" type="curve" smooth="yes"/>
      <point x="302" y="138"/>
      <point x="286" y="86"/>
      <point x="219" y="86" type="curve" smooth="yes"/>
      <point x="154" y="86"/>
      <point x="106" y="171"/>
      <point x="106" y="288" type="curve" smooth="yes"/>
      <point x="106" y="407"/>
      <point x="108" y="644"/>
      <point x="108" y="664" type="curve" smooth="yes"/>
    </contour>
    <contour>
      <point x="331" y="837"/>
      <point x="317" y="836"/>
      <point x="289" y="832" type="curve"/>
      <point x="281" y="832"/>
      <point x="266" y="829"/>
      <point x="254" y="825" type="curve" smooth="yes"/>
      <point x="232" y="817" type="line"/>
      <point x="191" y="799"/>
      <point x="185" y="802"/>
      <point x="171" y="794" type="curve"/>
      <point x="161" y="791"/>
      <point x="123" y="776"/>
      <point x="121" y="769" type="curve" smooth="yes"/>
      <point x="114" y="750"/>
      <point x="128" y="741"/>
      <point x="139" y="737" type="curve"/>
      <point x="159" y="725"/>
      <point x="168" y="731"/>
      <point x="192" y="739" type="curve"/>
      <point x="226" y="755"/>
      <point x="243" y="761"/>
      <point x="277" y="772" type="curve" smooth="yes"/>
      <point x="288" y="775"/>
      <point x="321" y="789"/>
      <point x="326" y="806" type="curve"/>
    </contour>
  </outline>
</glyph>
<glyph name="Ucircumflex" format="1">
  <advance width="405"/>
  <unicode hex="00DB"/>
  <outline>
    <contour>
      <point x="108" y="684"/>
      <point x="114" y="705"/>
      <point x="102" y="702" type="curve" smooth="yes"/>
      <point x="89" y="699"/>
      <point x="82" y="700"/>
      <point x="75" y="701" type="curve"/>
      <point x="67" y="704"/>
      <point x="52" y="707"/>
      <point x="57" y="662" type="curve"/>
      <point x="61" y="616"/>
      <point x="63" y="423"/>
      <point x="59" y="387" type="curve" smooth="yes"/>
      <point x="54" y="351"/>
      <point x="54" y="191"/>
      <point x="70" y="140" type="curve" smooth="yes"/>
      <point x="86" y="88"/>
      <point x="132" y="3"/>
      <point x="228" y="3" type="curve" smooth="yes"/>
      <point x="325" y="3"/>
      <point x="430" y="60"/>
      <point x="433" y="247" type="curve" smooth="yes"/>
      <point x="436" y="436"/>
      <point x="424" y="558"/>
      <point x="427" y="593" type="curve" smooth="yes"/>
      <point x="430" y="626"/>
      <point x="427" y="663"/>
      <point x="426" y="679" type="curve" smooth="yes"/>
      <point x="425" y="695"/>
      <point x="427" y="703"/>
      <point x="404" y="703" type="curve" smooth="yes"/>
      <point x="381" y="703"/>
      <point x="344" y="702"/>
      <point x="333" y="703" type="curve" smooth="yes"/>
      <point x="322" y="703"/>
      <point x="297" y="710"/>
      <point x="308" y="664" type="curve"/>
      <point x="318" y="617"/>
      <point x="307" y="467"/>
      <point x="307" y="392" type="curve" smooth="yes"/>
      <point x="307" y="317"/>
      <point x="302" y="190"/>
      <point x="302" y="165" type="curve" smooth="yes"/>
      <point x="302" y="138"/>
      <point x="286" y="86"/>
      <point x="219" y="86" type="curve" smooth="yes"/>
      <point x="154" y="86"/>
      <point x="106" y="171"/>
      <point x="106" y="288" type="curve" smooth="yes"/>
      <point x="106" y="407"/>
      <point x="108" y="644"/>
      <point x="108" y="664" type="curve" smooth="yes"/>
    </contour>
    <contour>
      <point x="391" y="759"/>
      <point x="362" y="775"/>
      <point x="354" y="780" type="curve" smooth="yes"/>
      <point x="327" y="797"/>
      <point x="314" y="804"/>
      <point x="287" y="823" type="curve"/>
      <point x="267" y="834"/>
      <point x="261" y="840"/>
      <point x="238" y="837" type="curve" smooth="yes"/>
      <point x="233" y="837"/>
      <point x="227" y="836"/>
      <point x="220" y="833" type="curve"/>
      <point x="209" y="830"/>
      <point x="191" y="820"/>
      <point x="168" y="807" type="curve"/>
      <point x="138" y="784"/>
      <point x="130" y="783"/>
      <point x="120" y="778" type="curve"/>
      <point x="93" y="761" type="line" smooth="yes"/>
      <point x="80" y="752"/>
      <point x="85" y="733"/>
      <point x="110" y="733" type="curve" smooth="yes"/>
      <point x="123" y="733"/>
      <point x="135" y="734"/>
      <point x="148" y="736" type="curve"/>
      <point x="176" y="744"/>
      <point x="190" y="749"/>
      <point x="205" y="757" type="curve"/>
      <point x="251" y="778" type="line"/>
      <point x="283" y="763" type="line"/>
      <point x="294" y="756"/>
      <point x="305" y="750"/>
      <point x="318" y="745" type="curve"/>
      <point x="345" y="738" type="line"/>
      <point x="369" y="729"/>
      <point x="383" y="725"/>
      <point x="388" y="746" type="curve" smooth="yes"/>
    </contour>
  </outline>
</glyph>
<glyph name="Thorn" format="1">
  <advance width="519"/>
  <unicode hex="00DE"/>
  <outline>
    <contour>
      <point x="439" y="166"/>
      <point x="517" y="224"/>
      <point x="517" y="373" type="curve" smooth="yes"/>
      <point x="517" y="522"/>
      <point x="397" y="552"/>
      <point x="354" y="552" type="curve" smooth="yes"/>
      <point x="333" y="552"/>
      <point x="295" y="555"/>
      <point x="263" y="558" type="curve" smooth="yes"/>
      <point x="244" y="560"/>
      <point x="224" y="562"/>
      <point x="203" y="563" type="curve"/>
      <point x="199" y="644"/>
      <point x="201" y="663"/>
      <point x="204" y="673" type="curve" smooth="yes"/>
      <point x="209" y="694"/>
      <point x="184" y="706"/>
      <point x="171" y="700" type="curve"/>
      <point x="159" y="698"/>
      <point x="114" y="700"/>
      <point x="90" y="703" type="curve" smooth="yes"/>
      <point x="66" y="706"/>
      <point x="64" y="689"/>
      <point x="64" y="670" type="curve" smooth="yes"/>
      <point x="64" y="651"/>
      <point x="66" y="588"/>
      <point x="66" y="546" type="curve" smooth="yes"/>
      <point x="66" y="504"/>
      <point x="77" y="97"/>
      <point x="73" y="54" type="curve" smooth="yes"/>
      <point x="68" y="11"/>
      <point x="74" y="1"/>
      <point x="83" y="2" type="curve" smooth="yes"/>
      <point x="92" y="3"/>
      <point x="121" y="4"/>
      <point x="146" y="4" type="curve" smooth="yes"/>
      <point x="192" y="4" type="line"/>
      <point x="199" y="5"/>
      <point x="201" y="20"/>
      <point x="198" y="49" type="curve"/>
      <point x="197" y="85"/>
      <point x="197" y="122"/>
      <point x="198" y="159" type="curve"/>
      <point x="211" y="159"/>
      <point x="296" y="157"/>
      <point x="357" y="161" type="curve" smooth="yes"/>
    </contour>
    <contour>
      <point x="361" y="480"/>
      <point x="427" y="465"/>
      <point x="427" y="379" type="curve" smooth="yes"/>
      <point x="427" y="294"/>
      <point x="390" y="258"/>
      <point x="329" y="246" type="curve" smooth="yes"/>
      <point x="268" y="234"/>
      <point x="227" y="233"/>
      <point x="211" y="234" type="curve"/>
      <point x="211" y="248"/>
      <point x="211" y="262"/>
      <point x="210" y="276" type="curve" smooth="yes"/>
      <point x="209" y="300"/>
      <point x="208" y="329"/>
      <point x="205" y="356" type="curve" smooth="yes"/>
      <point x="202" y="383"/>
      <point x="202" y="412"/>
      <point x="203" y="435" type="curve" smooth="yes"/>
      <point x="205" y="474" type="line"/>
      <point x="252" y="477" type="line"/>
      <point x="279" y="480"/>
      <point x="307" y="480"/>
      <point x="326" y="480" type="curve" smooth="yes"/>
    </contour>
  </outline>
</glyph>
<glyph name="ccedilla" format="1">
  <advance width="576"/>
  <unicode hex="00E7"/>
  <outline>
    <contour>
      <point x="245" y="720"/>
      <point x="186" y="709"/>
      <point x="133" y="660" type="curve"/>
      <point x="82" y="617"/>
      <point x="42" y="508"/>
      <point x="42" y="393" type="curve" smooth="yes"/>
      <point x="42" y="264"/>
      <point x="83" y="162"/>
      <point x="138" y="102" type="curve" smooth="yes"/>
      <point x="193" y="43"/>
      <point x="261" y="22"/>
      <point x="313" y="22" type="curve" smooth="yes"/>
      <point x="466" y="22"/>
      <point x="517" y="134"/>
      <point x="535" y="189" type="curve" smooth="yes"/>
      <point x="539" y="202"/>
      <point x="542" y="213"/>
      <point x="543" y="224" type="curve" smooth="yes"/>
      <point x="546" y="243"/>
      <point x="545" y="260"/>
      <point x="530" y="263" type="curve" smooth="yes"/>
      <point x="502" y="268"/>
      <point x="428" y="284"/>
      <point x="414" y="289" type="curve"/>
      <point x="399" y="292"/>
      <point x="374" y="306"/>
      <point x="363" y="270" type="curve" smooth="yes"/>
      <point x="352" y="235"/>
      <point x="339" y="227"/>
      <point x="314" y="227" type="curve" smooth="yes"/>
      <point x="302" y="227"/>
      <point x="284" y="238"/>
      <point x="271" y="267" type="curve" smooth="yes"/>
      <point x="258" y="296"/>
      <point x="247" y="325"/>
      <point x="247" y="397" type="curve" smooth="yes"/>
      <point x="247" y="442"/>
      <point x="254" y="493"/>
      <point x="266" y="520" type="curve" smooth="yes"/>
      <point x="278" y="547"/>
      <point x="294" y="555"/>
      <point x="311" y="555" type="curve" smooth="yes"/>
      <point x="346" y="555"/>
      <point x="363" y="527"/>
      <point x="372" y="518" type="curve" smooth="yes"/>
      <point x="380" y="509"/>
      <point x="386" y="493"/>
      <point x="401" y="502" type="curve" smooth="yes"/>
      <point x="416" y="510"/>
      <point x="468" y="554"/>
      <point x="483" y="564" type="curve" smooth="yes"/>
      <point x="499" y="574"/>
      <point x="516" y="580"/>
      <point x="495" y="606" type="curve" smooth="yes"/>
      <point x="474" y="633"/>
      <point x="436" y="720"/>
      <point x="292" y="720" type="curve" smooth="yes"/>
    </contour>
    <contour>
      <point x="258" y="31" type="line"/>
      <point x="250" y="11"/>
      <point x="245" y="-5"/>
      <point x="243" y="-18" type="curve"/>
      <point x="239" y="-34"/>
      <point x="236" y="-37"/>
      <point x="236" y="-54" type="curve"/>
      <point x="237" y="-61"/>
      <point x="243" y="-62"/>
      <point x="267" y="-62" type="curve" smooth="yes"/>
      <point x="274" y="-62"/>
      <point x="285" y="-48"/>
      <point x="300" y="-48" type="curve" smooth="yes"/>
      <point x="319" y="-48"/>
      <point x="324" y="-62"/>
      <point x="324" y="-81" type="curve"/>
      <point x="318" y="-106"/>
      <point x="309" y="-105"/>
      <point x="283" y="-107" type="curve"/>
      <point x="266" y="-107"/>
      <point x="258" y="-105"/>
      <point x="245" y="-101" type="curve"/>
      <point x="226" y="-90"/>
      <point x="219" y="-83"/>
      <point x="218" y="-92" type="curve"/>
      <point x="213" y="-115"/>
      <point x="210" y="-130"/>
      <point x="210" y="-141" type="curve" smooth="yes"/>
      <point x="210" y="-152"/>
      <point x="246" y="-160"/>
      <point x="277" y="-160" type="curve" smooth="yes"/>
      <point x="322" y="-160"/>
      <point x="329" y="-155"/>
      <point x="340" y="-150" type="curve" smooth="yes"/>
      <point x="345" y="-147"/>
      <point x="350" y="-144"/>
      <point x="355" y="-139" type="curve" smooth="yes"/>
      <point x="366" y="-130"/>
      <point x="385" y="-117"/>
      <point x="386" y="-85" type="curve"/>
      <point x="386" y="-30"/>
      <point x="357" y="-15"/>
      <point x="324" y="-15" type="curve" smooth="yes"/>
      <point x="293" y="-15"/>
      <point x="289" y="-17"/>
      <point x="276" y="-24" type="curve"/>
      <point x="281" y="-7"/>
      <point x="290" y="6"/>
      <point x="309" y="31" type="curve"/>
    </contour>
  </outline>
</glyph>
<glyph name="idieresis" format="1">
  <advance width="257"/>
  <unicode hex="00EF"/>
  <outline>
    <contour>
      <point x="82" y="708"/>
      <point x="67" y="708"/>
      <point x="67" y="667" type="curve" smooth="yes"/>
      <point x="67" y="625"/>
      <point x="67" y="641"/>
      <point x="67" y="625" type="curve"/>
      <point x="65" y="589" type="line" smooth="yes"/>
      <point x="64" y="570"/>
      <point x="63" y="547"/>
      <point x="63" y="535" type="curve" smooth="yes"/>
      <point x="63" y="511"/>
      <point x="59" y="372"/>
      <point x="59" y="346" type="curve" smooth="yes"/>
      <point x="59" y="319"/>
      <point x="46" y="145"/>
      <point x="46" y="108" type="curve" smooth="yes"/>
      <point x="46" y="73"/>
      <point x="37" y="39"/>
      <point x="40" y="23" type="curve"/>
      <point x="41" y="6"/>
      <point x="41" y="-9"/>
      <point x="64" y="-8" type="curve"/>
      <point x="155" y="-8" type="line"/>
      <point x="170" y="-9"/>
      <point x="186" y="-8"/>
      <point x="185" y="11" type="curve"/>
      <point x="185" y="31"/>
      <point x="181" y="103"/>
      <point x="184" y="119" type="curve" smooth="yes"/>
      <point x="187" y="136"/>
      <point x="182" y="235"/>
      <point x="182" y="259" type="curve" smooth="yes"/>
      <point x="182" y="283"/>
      <point x="178" y="395"/>
      <point x="181" y="491" type="curve"/>
      <point x="182" y="586"/>
      <point x="190" y="643"/>
      <point x="193" y="666" type="curve" smooth="yes"/>
      <point x="196" y="690"/>
      <point x="202" y="701"/>
      <point x="174" y="704" type="curve" smooth="yes"/>
      <point x="145" y="707"/>
      <point x="112" y="704"/>
      <point x="95" y="705" type="curve"/>
    </contour>
    <contour>
      <point x="85" y="817"/>
      <point x="50" y="833"/>
      <point x="19" y="833" type="curve" smooth="yes"/>
      <point x="-12" y="833"/>
      <point x="-35" y="805"/>
      <point x="-35" y="778" type="curve" smooth="yes"/>
      <point x="-35" y="742"/>
      <point x="-4" y="720"/>
      <point x="23" y="720" type="curve" smooth="yes"/>
      <point x="47" y="720"/>
      <point x="85" y="742"/>
      <point x="85" y="782" type="curve" smooth="yes"/>
    </contour>
    <contour>
      <point x="194" y="754"/>
      <point x="205" y="724"/>
      <point x="248" y="724" type="curve" smooth="yes"/>
      <point x="291" y="724"/>
      <point x="311" y="751"/>
      <point x="311" y="778" type="curve" smooth="yes"/>
      <point x="311" y="809"/>
      <point x="295" y="840"/>
      <point x="268" y="840" type="curve" smooth="yes"/>
      <point x="241" y="840"/>
      <point x="194" y="833"/>
      <point x="194" y="778" type="curve" smooth="yes"/>
    </contour>
  </outline>
</glyph>
<glyph name="ograve" format="1">
  <advance width="609"/>
  <unicode hex="00F2"/>
  <outline>
    <contour>
      <point x="402" y="721"/>
      <point x="354" y="719"/>
      <point x="299" y="719" type="curve" smooth="yes"/>
      <point x="168" y="719"/>
      <point x="40" y="556"/>
      <point x="40" y="376" type="curve"/>
      <point x="43" y="303"/>
      <point x="55" y="239"/>
      <point x="75" y="182" type="curve" smooth="yes"/>
      <point x="110" y="85"/>
      <point x="176" y="-11"/>
      <point x="311" y="-11" type="curve" smooth="yes"/>
      <point x="580" y="-11"/>
      <point x="599" y="288"/>
      <point x="599" y="356" type="curve" smooth="yes"/>
      <point x="599" y="409"/>
      <point x="570" y="609"/>
      <point x="437" y="698" type="curve" smooth="yes"/>
    </contour>
    <contour>
      <point x="157" y="45"/>
      <point x="104" y="208"/>
      <point x="104" y="365" type="curve" smooth="yes"/>
      <point x="104" y="522"/>
      <point x="198" y="603"/>
      <point x="227" y="632" type="curve"/>
      <point x="255" y="663"/>
      <point x="283" y="660"/>
      <point x="320" y="660" type="curve" smooth="yes"/>
      <point x="439" y="660"/>
      <point x="516" y="519"/>
      <point x="516" y="356" type="curve" smooth="yes"/>
      <point x="516" y="192"/>
      <point x="456" y="45"/>
      <point x="306" y="45" type="curve" smooth="yes"/>
    </contour>
    <contour>
      <point x="404" y="787"/>
      <point x="370" y="796"/>
      <point x="359" y="801" type="curve"/>
      <point x="324" y="809"/>
      <point x="308" y="815"/>
      <point x="273" y="830" type="curve"/>
      <point x="249" y="838"/>
      <point x="239" y="842"/>
      <point x="220" y="830" type="curve"/>
      <point x="209" y="825"/>
      <point x="195" y="816"/>
      <point x="204" y="797" type="curve" smooth="yes"/>
      <point x="207" y="789"/>
      <point x="243" y="777"/>
      <point x="254" y="774" type="curve"/>
      <point x="267" y="766"/>
      <point x="276" y="771"/>
      <point x="316" y="753" type="curve"/>
      <point x="338" y="745" type="line"/>
      <point x="351" y="742"/>
      <point x="365" y="740"/>
      <point x="373" y="741" type="curve"/>
      <point x="401" y="738"/>
      <point x="416" y="737"/>
      <point x="409" y="768" type="curve" smooth="yes"/>
    </contour>
  </outline>
</glyph>
<glyph name="ocircumflex" format="1">
  <advance width="609"/>
  <unicode hex="00F4"/>
  <outline>
    <contour>
      <point x="402" y="721"/>
      <point x="354" y="719"/>
      <point x="299" y="719" type="curve" smooth="yes"/>
      <point x="168" y="719"/>
      <point x="40" y="556"/>
      <point x="40" y="376" type="curve"/>
      <point x="43" y="303"/>
      <point x="55" y="239"/>
      <point x="75" y="182" type="curve" smooth="yes"/>
      <point x="110" y="85"/>
      <point x="176" y="-11"/>
      <point x="311" y="-11" type="curve" smooth="yes"/>
      <point x="580" y="-11"/>
      <point x="599" y="288"/>
      <point x="599" y="356" type="curve" smooth="yes"/>
      <point x="599" y="409"/>
      <point x="570" y="609"/>
      <point x="437" y="698" type="curve" smooth="yes"/>
    </contour>
    <contour>
      <point x="157" y="45"/>
      <point x="104" y="208"/>
      <point x="104" y="365" type="curve" smooth="yes"/>
      <point x="104" y="522"/>
      <point x="198" y="603"/>
      <point x="227" y="632" type="curve"/>
      <point x="255" y="663"/>
      <point x="283" y="660"/>
      <point x="320" y="660" type="curve" smooth="yes"/>
      <point x="439" y="660"/>
      <point x="516" y="519"/>
      <point x="516" y="356" type="curve" smooth="yes"/>
      <point x="516" y="192"/>
      <point x="456" y="45"/>
      <point x="306" y="45" type="curve" smooth="yes"/>
    </contour>
    <contour>
      <point x="481" y="759"/>
      <point x="452" y="775"/>
      <point x="444" y="780" type="curve" smooth="yes"/>
      <point x="417" y="797"/>
      <point x="404" y="804"/>
      <point x="377" y="823" type="curve"/>
      <point x="357" y="834"/>
      <point x="351" y="840"/>
      <point x="328" y="837" type="curve" smooth="yes"/>
      <point x="323" y="837"/>
      <point x="317" y="836"/>
      <point x="310" y="833" type="curve"/>
      <point x="299" y="830"/>
      <point x="281" y="820"/>
      <point x="258" y="807" type="curve"/>
      <point x="228" y="784"/>
      <point x="220" y="783"/>
      <point x="210" y="778" type="curve"/>
      <point x="183" y="761" type="line" smooth="yes"/>
      <point x="170" y="752"/>
      <point x="175" y="733"/>
      <point x="200" y="733" type="curve" smooth="yes"/>
      <point x="213" y="733"/>
      <point x="225" y="734"/>
      <point x="238" y="736" type="curve"/>
      <point x="266" y="744"/>
      <point x="280" y="749"/>
      <point x="295" y="757" type="curve"/>
      <point x="341" y="778" type="line"/>
      <point x="373" y="763" type="line"/>
      <point x="384" y="756"/>
      <point x="395" y="750"/>
      <point x="408" y="745" type="curve"/>
      <point x="435" y="738" type="line"/>
      <point x="459" y="729"/>
      <point x="473" y="725"/>
      <point x="478" y="746" type="curve" smooth="yes"/>
    </contour>
  </outline>
</glyph>
<glyph name="otilde" format="1">
  <advance width="609"/>
  <unicode hex="00F5"/>
  <outline>
    <contour>
      <point x="402" y="721"/>
      <point x="354" y="719"/>
      <point x="299" y="719" type="curve" smooth="yes"/>
      <point x="168" y="719"/>
      <point x="40" y="556"/>
      <point x="40" y="376" type="curve"/>
      <point x="43" y="303"/>
      <point x="55" y="239"/>
      <point x="75" y="182" type="curve" smooth="yes"/>
      <point x="110" y="85"/>
      <point x="176" y="-11"/>
      <point x="311" y="-11" type="curve" smooth="yes"/>
      <point x="580" y="-11"/>
      <point x="599" y="288"/>
      <point x="599" y="356" type="curve" smooth="yes"/>
      <point x="599" y="409"/>
      <point x="570" y="609"/>
      <point x="437" y="698" type="curve" smooth="yes"/>
    </contour>
    <contour>
      <point x="157" y="45"/>
      <point x="104" y="208"/>
      <point x="104" y="365" type="curve" smooth="yes"/>
      <point x="104" y="522"/>
      <point x="198" y="603"/>
      <point x="227" y="632" type="curve"/>
      <point x="255" y="663"/>
      <point x="283" y="660"/>
      <point x="320" y="660" type="curve" smooth="yes"/>
      <point x="439" y="660"/>
      <point x="516" y="519"/>
      <point x="516" y="356" type="curve" smooth="yes"/>
      <point x="516" y="192"/>
      <point x="456" y="45"/>
      <point x="306" y="45" type="curve" smooth="yes"/>
    </contour>
    <contour>
      <point x="180" y="823"/>
      <point x="164" y="836"/>
      <point x="161" y="823" type="curve" smooth="yes"/>
      <point x="158" y="811"/>
      <point x="159" y="795"/>
      <point x="159" y="787" type="curve" smooth="yes"/>
      <point x="159" y="778"/>
      <point x="164" y="764"/>
      <point x="225" y="764" type="curve" smooth="yes"/>
      <point x="264" y="764"/>
      <point x="280" y="769"/>
      <point x="315" y="772" type="curve" smooth="yes"/>
      <point x="350" y="775"/>
      <point x="373" y="782"/>
      <point x="420" y="783" type="curve" smooth="yes"/>
      <point x="444" y="783"/>
      <point x="467" y="771"/>
      <point x="486" y="771" type="curve" smooth="yes"/>
      <point x="501" y="771"/>
      <point x="509" y="776"/>
      <point x="509" y="787" type="curve" smooth="yes"/>
      <point x="509" y="802" type="line"/>
      <point x="507" y="810"/>
      <point x="518" y="825"/>
      <point x="480" y="827" type="curve"/>
      <point x="461" y="830"/>
      <point x="440" y="831"/>
      <point x="416" y="831" type="curve" smooth="yes"/>
      <point x="364" y="831"/>
      <point x="325" y="828"/>
      <point x="297" y="823" type="curve" smooth="yes"/>
      <point x="269" y="818"/>
      <point x="253" y="814"/>
      <point x="225" y="814" type="curve"/>
    </contour>
  </outline>
</glyph>
<glyph name="odieresis" format="1">
  <advance width="609"/>
  <unicode hex="00F6"/>
  <outline>
    <contour>
      <point x="402" y="721"/>
      <point x="354" y="719"/>
      <point x="299" y="719" type="curve" smooth="yes"/>
      <point x="168" y="719"/>
      <point x="40" y="556"/>
      <point x="40" y="376" type="curve"/>
      <point x="43" y="303"/>
      <point x="55" y="239"/>
      <point x="75" y="182" type="curve" smooth="yes"/>
      <point x="110" y="85"/>
      <point x="176" y="-11"/>
      <point x="311" y="-11" type="curve" smooth="yes"/>
      <point x="580" y="-11"/>
      <point x="599" y="288"/>
      <point x="599" y="356" type="curve" smooth="yes"/>
      <point x="599" y="409"/>
      <point x="570" y="609"/>
      <point x="437" y="698" type="curve" smooth="yes"/>
    </contour>
    <contour>
      <point x="157" y="45"/>
      <point x="104" y="208"/>
      <point x="104" y="365" type="curve" smooth="yes"/>
      <point x="104" y="522"/>
      <point x="198" y="603"/>
      <point x="227" y="632" type="curve"/>
      <point x="255" y="663"/>
      <point x="283" y="660"/>
      <point x="320" y="660" type="curve" smooth="yes"/>
      <point x="439" y="660"/>
      <point x="516" y="519"/>
      <point x="516" y="356" type="curve" smooth="yes"/>
      <point x="516" y="192"/>
      <point x="456" y="45"/>
      <point x="306" y="45" type="curve" smooth="yes"/>
    </contour>
    <contour>
      <point x="284" y="817"/>
      <point x="249" y="833"/>
      <point x="218" y="833" type="curve" smooth="yes"/>
      <point x="187" y="833"/>
      <point x="164" y="805"/>
      <point x="164" y="778" type="curve" smooth="yes"/>
      <point x="164" y="742"/>
      <point x="195" y="720"/>
      <point x="222" y="720" type="curve" smooth="yes"/>
      <point x="246" y="720"/>
      <point x="284" y="742"/>
      <point x="284" y="782" type="curve" smooth="yes"/>
    </contour>
    <contour>
      <point x="393" y="754"/>
      <point x="404" y="724"/>
      <point x="447" y="724" type="curve" smooth="yes"/>
      <point x="490" y="724"/>
      <point x="510" y="751"/>
      <point x="510" y="778" type="curve" smooth="yes"/>
      <point x="510" y="809"/>
      <point x="494" y="840"/>
      <point x="467" y="840" type="curve" smooth="yes"/>
      <point x="440" y="840"/>
      <point x="393" y="833"/>
      <point x="393" y="778" type="curve" smooth="yes"/>
    </contour>
  </outline>
</glyph>
<glyph name="ucircumflex" format="1">
  <advance width="590"/>
  <unicode hex="00FB"/>
  <outline>
    <contour>
      <point x="257" y="698" type="line"/>
      <point x="256" y="713"/>
      <point x="255" y="719"/>
      <point x="242" y="719" type="curve" smooth="yes"/>
      <point x="229" y="719"/>
      <point x="191" y="721"/>
      <point x="166" y="718" type="curve" smooth="yes"/>
      <point x="139" y="715"/>
      <point x="109" y="717"/>
      <point x="81" y="718" type="curve" smooth="yes"/>
      <point x="54" y="719"/>
      <point x="59" y="702"/>
      <point x="59" y="682" type="curve" smooth="yes"/>
      <point x="59" y="663"/>
      <point x="62" y="584"/>
      <point x="62" y="517" type="curve"/>
      <point x="65" y="451"/>
      <point x="54" y="285"/>
      <point x="59" y="234" type="curve"/>
      <point x="63" y="182"/>
      <point x="78" y="6"/>
      <point x="315" y="6" type="curve" smooth="yes"/>
      <point x="551" y="6"/>
      <point x="571" y="292"/>
      <point x="571" y="353" type="curve" smooth="yes"/>
      <point x="571" y="415"/>
      <point x="574" y="643"/>
      <point x="570" y="686" type="curve"/>
      <point x="565" y="726"/>
      <point x="541" y="715"/>
      <point x="530" y="715" type="curve" smooth="yes"/>
      <point x="403" y="715" type="line" smooth="yes"/>
      <point x="384" y="715"/>
      <point x="379" y="707"/>
      <point x="379" y="683" type="curve" smooth="yes"/>
      <point x="379" y="659"/>
      <point x="385" y="570"/>
      <point x="385" y="521" type="curve"/>
      <point x="388" y="471"/>
      <point x="382" y="338"/>
      <point x="382" y="309" type="curve" smooth="yes"/>
      <point x="382" y="278"/>
      <point x="375" y="215"/>
      <point x="315" y="215" type="curve" smooth="yes"/>
      <point x="254" y="215"/>
      <point x="257" y="274"/>
      <point x="257" y="298" type="curve" smooth="yes"/>
      <point x="257" y="427" type="line"/>
    </contour>
    <contour>
      <point x="466" y="759"/>
      <point x="437" y="775"/>
      <point x="429" y="780" type="curve" smooth="yes"/>
      <point x="402" y="797"/>
      <point x="389" y="804"/>
      <point x="362" y="823" type="curve"/>
      <point x="342" y="834"/>
      <point x="336" y="840"/>
      <point x="313" y="837" type="curve" smooth="yes"/>
      <point x="308" y="837"/>
      <point x="302" y="836"/>
      <point x="295" y="833" type="curve"/>
      <point x="284" y="830"/>
      <point x="266" y="820"/>
      <point x="243" y="807" type="curve"/>
      <point x="213" y="784"/>
      <point x="205" y="783"/>
      <point x="195" y="778" type="curve"/>
      <point x="168" y="761" type="line" smooth="yes"/>
      <point x="155" y="752"/>
      <point x="160" y="733"/>
      <point x="185" y="733" type="curve" smooth="yes"/>
      <point x="198" y="733"/>
      <point x="210" y="734"/>
      <point x="223" y="736" type="curve"/>
      <point x="251" y="744"/>
      <point x="265" y="749"/>
      <point x="280" y="757" type="curve"/>
      <point x="326" y="778" type="line"/>
      <point x="358" y="763" type="line"/>
      <point x="369" y="756"/>
      <point x="380" y="750"/>
      <point x="393" y="745" type="curve"/>
      <point x="420" y="738" type="line"/>
      <point x="444" y="729"/>
      <point x="458" y="725"/>
      <point x="463" y="746" type="curve" smooth="yes"/>
    </contour>
  </outline>
</glyph>
<glyph name="yacute" format="1">
  <advance width="508"/>
  <unicode hex="00FD"/>
  <outline>
    <contour>
      <point x="128" y="668" type="line" smooth="yes"/>
      <point x="124" y="679"/>
      <point x="130" y="686"/>
      <point x="114" y="689" type="curve"/>
      <point x="97" y="690"/>
      <point x="79" y="691"/>
      <point x="64" y="690" type="curve" smooth="yes"/>
      <point x="49" y="689"/>
      <point x="34" y="688"/>
      <point x="34" y="677" type="curve" smooth="yes"/>
      <point x="34" y="666"/>
      <point x="45" y="651"/>
      <point x="53" y="624" type="curve" smooth="yes"/>
      <point x="61" y="598"/>
      <point x="118" y="429"/>
      <point x="130" y="400" type="curve"/>
      <point x="141" y="369"/>
      <point x="148" y="337"/>
      <point x="159" y="310" type="curve" smooth="yes"/>
      <point x="170" y="285"/>
      <point x="184" y="233"/>
      <point x="189" y="223" type="curve" smooth="yes"/>
      <point x="194" y="212"/>
      <point x="186" y="202"/>
      <point x="179" y="185" type="curve"/>
      <point x="174" y="167"/>
      <point x="156" y="128"/>
      <point x="153" y="111" type="curve"/>
      <point x="117" y="14" type="line" smooth="yes"/>
      <point x="114" y="5"/>
      <point x="107" y="-3"/>
      <point x="126" y="-3" type="curve" smooth="yes"/>
      <point x="142" y="-3"/>
      <point x="190" y="-2"/>
      <point x="205" y="-2" type="curve" smooth="yes"/>
      <point x="221" y="-2"/>
      <point x="253" y="-1"/>
      <point x="264" y="-1" type="curve"/>
      <point x="273" y="-2"/>
      <point x="276" y="4"/>
      <point x="280" y="19" type="curve" smooth="yes"/>
      <point x="283" y="33"/>
      <point x="289" y="75"/>
      <point x="295" y="92" type="curve"/>
      <point x="299" y="109"/>
      <point x="369" y="285"/>
      <point x="388" y="330" type="curve"/>
      <point x="404" y="375"/>
      <point x="461" y="516"/>
      <point x="474" y="554" type="curve"/>
      <point x="490" y="592"/>
      <point x="510" y="658"/>
      <point x="515" y="670" type="curve" smooth="yes"/>
      <point x="520" y="682"/>
      <point x="519" y="686"/>
      <point x="496" y="689" type="curve" smooth="yes"/>
      <point x="474" y="692"/>
      <point x="412" y="690"/>
      <point x="399" y="690" type="curve" smooth="yes"/>
      <point x="386" y="690"/>
      <point x="369" y="695"/>
      <point x="361" y="661" type="curve" smooth="yes"/>
      <point x="353" y="626"/>
      <point x="333" y="569"/>
      <point x="325" y="546" type="curve"/>
      <point x="315" y="525"/>
      <point x="277" y="423"/>
      <point x="269" y="399" type="curve" smooth="yes"/>
      <point x="254" y="356" type="line"/>
      <point x="246" y="331" type="line"/>
      <point x="241" y="348"/>
      <point x="235" y="364"/>
      <point x="230" y="379" type="curve" smooth="yes"/>
      <point x="221" y="406"/>
      <point x="210" y="436"/>
      <point x="202" y="455" type="curve" smooth="yes"/>
      <point x="186" y="492"/>
      <point x="164" y="551"/>
      <point x="153" y="585" type="curve" smooth="yes"/>
    </contour>
    <contour>
      <point x="350" y="842"/>
      <point x="336" y="841"/>
      <point x="308" y="837" type="curve"/>
      <point x="300" y="837"/>
      <point x="285" y="834"/>
      <point x="273" y="830" type="curve" smooth="yes"/>
      <point x="251" y="822" type="line"/>
      <point x="210" y="804"/>
      <point x="204" y="807"/>
      <point x="190" y="799" type="curve"/>
      <point x="180" y="796"/>
      <point x="142" y="781"/>
      <point x="140" y="774" type="curve" smooth="yes"/>
      <point x="133" y="755"/>
      <point x="147" y="746"/>
      <point x="158" y="742" type="curve"/>
      <point x="178" y="730"/>
      <point x="187" y="736"/>
      <point x="211" y="744" type="curve"/>
      <point x="245" y="760"/>
      <point x="262" y="766"/>
      <point x="296" y="777" type="curve" smooth="yes"/>
      <point x="307" y="780"/>
      <point x="340" y="794"/>
      <point x="345" y="811" type="curve"/>
    </contour>
  </outline>
</glyph>
<glyph name="thorn" format="1">
  <advance width="552"/>
  <unicode hex="00FE"/>
  <outline>
    <contour>
      <point x="446" y="547"/>
      <point x="360" y="547"/>
      <point x="226" y="547" type="curve"/>
      <point x="225" y="662"/>
      <point x="224" y="623"/>
      <point x="223" y="643" type="curve"/>
      <point x="224" y="688"/>
      <point x="222" y="710"/>
      <point x="215" y="710" type="curve"/>
      <point x="188" y="713"/>
      <point x="177" y="705"/>
      <point x="160" y="708" type="curve"/>
      <point x="144" y="712"/>
      <point x="125" y="707"/>
      <point x="94" y="710" type="curve"/>
      <point x="83" y="710"/>
      <point x="78" y="678"/>
      <point x="77" y="615" type="curve" smooth="yes"/>
      <point x="76" y="552"/>
      <point x="76" y="514"/>
      <point x="76" y="503" type="curve"/>
      <point x="72" y="437" type="line"/>
      <point x="69" y="402"/>
      <point x="68" y="365"/>
      <point x="68" y="350" type="curve" smooth="yes"/>
      <point x="68" y="116" type="line" smooth="yes"/>
      <point x="68" y="90"/>
      <point x="64" y="36"/>
      <point x="64" y="29" type="curve" smooth="yes"/>
      <point x="64" y="10"/>
      <point x="67" y="-3"/>
      <point x="83" y="-3" type="curve" smooth="yes"/>
      <point x="99" y="-3"/>
      <point x="144" y="1"/>
      <point x="160" y="1" type="curve" smooth="yes"/>
      <point x="175" y="1"/>
      <point x="206" y="-12"/>
      <point x="206" y="29" type="curve" smooth="yes"/>
      <point x="206" y="16"/>
      <point x="202" y="88"/>
      <point x="210" y="133" type="curve"/>
      <point x="273" y="133"/>
      <point x="330" y="136"/>
      <point x="381" y="141" type="curve" smooth="yes"/>
      <point x="465" y="162"/>
      <point x="552" y="224"/>
      <point x="552" y="360" type="curve" smooth="yes"/>
      <point x="552" y="432"/>
      <point x="518" y="461"/>
      <point x="491" y="494" type="curve" smooth="yes"/>
    </contour>
    <contour>
      <point x="376" y="178"/>
      <point x="327" y="181"/>
      <point x="286" y="178" type="curve"/>
      <point x="262" y="178"/>
      <point x="237" y="185"/>
      <point x="211" y="185" type="curve"/>
      <point x="217" y="498" type="line"/>
      <point x="260" y="501"/>
      <point x="300" y="501"/>
      <point x="335" y="496" type="curve" smooth="yes"/>
      <point x="395" y="488"/>
      <point x="458" y="464"/>
      <point x="469" y="404" type="curve" smooth="yes"/>
      <point x="491" y="265"/>
      <point x="469" y="212"/>
      <point x="407" y="193" type="curve" smooth="yes"/>
    </contour>
  </outline>
</glyph>
<glyph name="abreve" format="1">
  <advance width="584"/>
  <unicode hex="0103"/>
  <outline>
    <contour>
      <point x="549" y="35"/>
      <point x="530" y="79"/>
      <point x="516" y="104" type="curve" smooth="yes"/>
      <point x="502" y="129"/>
      <point x="453" y="221"/>
      <point x="431" y="265" type="curve"/>
      <point x="410" y="310"/>
      <point x="360" y="407"/>
      <point x="347" y="444" type="curve" smooth="yes"/>
      <point x="334" y="482"/>
      <point x="320" y="516"/>
      <point x="305" y="546" type="curve" smooth="yes"/>
      <point x="291" y="574"/>
      <point x="256" y="646"/>
      <point x="253" y="659" type="curve"/>
      <point x="249" y="671"/>
      <point x="247" y="681"/>
      <point x="240" y="685" type="curve"/>
      <point x="235" y="690"/>
      <point x="230" y="688"/>
      <point x="226" y="679" type="curve" smooth="yes"/>
      <point x="222" y="668"/>
      <point x="214" y="647"/>
      <point x="206" y="618" type="curve"/>
      <point x="197" y="591"/>
      <point x="193" y="575"/>
      <point x="182" y="543" type="curve"/>
      <point x="144" y="419" type="line" smooth="yes"/>
      <point x="131" y="374"/>
      <point x="127" y="358"/>
      <point x="119" y="328" type="curve"/>
      <point x="108" y="299"/>
      <point x="90" y="249"/>
      <point x="82" y="206" type="curve" smooth="yes"/>
      <point x="74" y="167"/>
      <point x="47" y="77"/>
      <point x="39" y="53" type="curve" smooth="yes"/>
      <point x="31" y="28"/>
      <point x="29" y="26"/>
      <point x="25" y="17" type="curve" smooth="yes"/>
      <point x="21" y="6"/>
      <point x="18" y="0"/>
      <point x="26" y="0" type="curve" smooth="yes"/>
      <point x="84" y="0" type="line" smooth="yes"/>
      <point x="91" y="0"/>
      <point x="93" y="5"/>
      <point x="97" y="18" type="curve" smooth="yes"/>
      <point x="105" y="45" type="line"/>
      <point x="116" y="86" type="line"/>
      <point x="119" y="104"/>
      <point x="134" y="164"/>
      <point x="136" y="173" type="curve" smooth="yes"/>
      <point x="139" y="184"/>
      <point x="140" y="194"/>
      <point x="149" y="194" type="curve" smooth="yes"/>
      <point x="158" y="194"/>
      <point x="205" y="191"/>
      <point x="233" y="194" type="curve" smooth="yes"/>
      <point x="261" y="197"/>
      <point x="323" y="195"/>
      <point x="338" y="198" type="curve"/>
      <point x="355" y="199"/>
      <point x="371" y="200"/>
      <point x="378" y="200" type="curve" smooth="yes"/>
      <point x="386" y="200"/>
      <point x="391" y="198"/>
      <point x="396" y="181" type="curve" smooth="yes"/>
      <point x="401" y="166"/>
      <point x="415" y="141"/>
      <point x="420" y="128" type="curve" smooth="yes"/>
      <point x="425" y="113"/>
      <point x="452" y="45"/>
      <point x="459" y="30" type="curve" smooth="yes"/>
      <point x="466" y="17"/>
      <point x="470" y="-1"/>
      <point x="478" y="-1" type="curve" smooth="yes"/>
      <point x="549" y="-1" type="line" smooth="yes"/>
      <point x="562" y="-1"/>
      <point x="574" y="2"/>
      <point x="562" y="19" type="curve"/>
    </contour>
    <contour>
      <point x="286" y="328"/>
      <point x="199" y="326"/>
      <point x="187" y="326" type="curve" smooth="yes"/>
      <point x="174" y="326"/>
      <point x="177" y="334"/>
      <point x="181" y="347" type="curve" smooth="yes"/>
      <point x="186" y="360"/>
      <point x="197" y="389"/>
      <point x="202" y="409" type="curve"/>
      <point x="208" y="428"/>
      <point x="222" y="476"/>
      <point x="228" y="493" type="curve" smooth="yes"/>
      <point x="233" y="510"/>
      <point x="236" y="529"/>
      <point x="240" y="529" type="curve" smooth="yes"/>
      <point x="245" y="529"/>
      <point x="246" y="522"/>
      <point x="253" y="509" type="curve" smooth="yes"/>
      <point x="256" y="504"/>
      <point x="263" y="479"/>
      <point x="276" y="450" type="curve" smooth="yes"/>
      <point x="287" y="423"/>
      <point x="317" y="355"/>
      <point x="324" y="343" type="curve" smooth="yes"/>
      <point x="331" y="330"/>
      <point x="323" y="334"/>
      <point x="304" y="331" type="curve" smooth="yes"/>
    </contour>
    <contour>
      <point x="388" y="835"/>
      <point x="377" y="837"/>
      <point x="355" y="838" type="curve"/>
      <point x="339" y="837"/>
      <point x="330" y="834"/>
      <point x="328" y="831" type="curve"/>
      <point x="327" y="818"/>
      <point x="315" y="808"/>
      <point x="291" y="801" type="curve" smooth="yes"/>
      <point x="268" y="795"/>
      <point x="247" y="792"/>
      <point x="230" y="792" type="curve"/>
      <point x="194" y="794"/>
      <point x="172" y="797"/>
      <point x="164" y="802" type="curve" smooth="yes"/>
      <point x="157" y="807"/>
      <point x="151" y="816"/>
      <point x="148" y="829" type="curve"/>
      <point x="148" y="838"/>
      <point x="148" y="839"/>
      <point x="119" y="839" type="curve" smooth="yes"/>
      <point x="91" y="839"/>
      <point x="90" y="839"/>
      <point x="90" y="836" type="curve" smooth="yes"/>
      <point x="91" y="819"/>
      <point x="96" y="801"/>
      <point x="105" y="780" type="curve" smooth="yes"/>
      <point x="110" y="769"/>
      <point x="119" y="760"/>
      <point x="132" y="753" type="curve" smooth="yes"/>
      <point x="145" y="746"/>
      <point x="179" y="741"/>
      <point x="232" y="738" type="curve"/>
      <point x="279" y="738"/>
      <point x="311" y="742"/>
      <point x="328" y="751" type="curve" smooth="yes"/>
      <point x="345" y="760"/>
      <point x="358" y="768"/>
      <point x="367" y="775" type="curve" smooth="yes"/>
      <point x="387" y="790"/>
      <point x="388" y="824"/>
      <point x="388" y="832" type="curve" smooth="yes"/>
    </contour>
  </outline>
</glyph>
<glyph name="Ccircumflex" format="1">
  <advance width="528"/>
  <unicode hex="0108"/>
  <outline>
    <contour>
      <point x="300" y="544"/>
      <point x="316" y="523"/>
      <point x="335" y="502" type="curve"/>
      <point x="352" y="481"/>
      <point x="366" y="498"/>
      <point x="382" y="518" type="curve" smooth="yes"/>
      <point x="397" y="538"/>
      <point x="429" y="566"/>
      <point x="448" y="581" type="curve" smooth="yes"/>
      <point x="467" y="596"/>
      <point x="459" y="603"/>
      <point x="448" y="618" type="curve" smooth="yes"/>
      <point x="437" y="634"/>
      <point x="382" y="704"/>
      <point x="271" y="704" type="curve" smooth="yes"/>
      <point x="159" y="704"/>
      <point x="37" y="562"/>
      <point x="37" y="354" type="curve" smooth="yes"/>
      <point x="37" y="146"/>
      <point x="162" y="-12"/>
      <point x="293" y="-12" type="curve" smooth="yes"/>
      <point x="423" y="-12"/>
      <point x="481" y="84"/>
      <point x="492" y="103" type="curve" smooth="yes"/>
      <point x="503" y="123"/>
      <point x="486" y="125"/>
      <point x="467" y="134" type="curve"/>
      <point x="382" y="181" type="line" smooth="yes"/>
      <point x="366" y="190"/>
      <point x="366" y="184"/>
      <point x="355" y="173" type="curve" smooth="yes"/>
      <point x="344" y="162"/>
      <point x="313" y="134"/>
      <point x="285" y="134" type="curve" smooth="yes"/>
      <point x="257" y="134"/>
      <point x="167" y="166"/>
      <point x="167" y="329" type="curve" smooth="yes"/>
      <point x="167" y="493"/>
      <point x="231" y="544"/>
      <point x="275" y="544" type="curve" smooth="yes"/>
    </contour>
    <contour>
      <point x="441" y="759"/>
      <point x="412" y="775"/>
      <point x="404" y="780" type="curve" smooth="yes"/>
      <point x="377" y="797"/>
      <point x="364" y="804"/>
      <point x="337" y="823" type="curve"/>
      <point x="317" y="834"/>
      <point x="311" y="840"/>
      <point x="288" y="837" type="curve" smooth="yes"/>
      <point x="283" y="837"/>
      <point x="277" y="836"/>
      <point x="270" y="833" type="curve"/>
      <point x="259" y="830"/>
      <point x="241" y="820"/>
      <point x="218" y="807" type="curve"/>
      <point x="188" y="784"/>
      <point x="180" y="783"/>
      <point x="170" y="778" type="curve"/>
      <point x="143" y="761" type="line" smooth="yes"/>
      <point x="130" y="752"/>
      <point x="135" y="733"/>
      <point x="160" y="733" type="curve" smooth="yes"/>
      <point x="173" y="733"/>
      <point x="185" y="734"/>
      <point x="198" y="736" type="curve"/>
      <point x="226" y="744"/>
      <point x="240" y="749"/>
      <point x="255" y="757" type="curve"/>
      <point x="301" y="778" type="line"/>
      <point x="333" y="763" type="line"/>
      <point x="344" y="756"/>
      <point x="355" y="750"/>
      <point x="368" y="745" type="curve"/>
      <point x="395" y="738" type="line"/>
      <point x="419" y="729"/>
      <point x="433" y="725"/>
      <point x="438" y="746" type="curve" smooth="yes"/>
    </contour>
  </outline>
</glyph>
<glyph name="ccircumflex" format="1">
  <advance width="574"/>
  <unicode hex="0109"/>
  <outline>
    <contour>
      <point x="201" y="720"/>
      <point x="42" y="676"/>
      <point x="42" y="373" type="curve" smooth="yes"/>
      <point x="42" y="70"/>
      <point x="208" y="-15"/>
      <point x="313" y="-15" type="curve" smooth="yes"/>
      <point x="466" y="-15"/>
      <point x="517" y="97"/>
      <point x="535" y="152" type="curve" smooth="yes"/>
      <point x="539" y="165"/>
      <point x="542" y="176"/>
      <point x="543" y="187" type="curve" smooth="yes"/>
      <point x="546" y="206"/>
      <point x="545" y="223"/>
      <point x="530" y="226" type="curve" smooth="yes"/>
      <point x="502" y="231"/>
      <point x="428" y="247"/>
      <point x="414" y="252" type="curve"/>
      <point x="399" y="255"/>
      <point x="374" y="269"/>
      <point x="363" y="233" type="curve" smooth="yes"/>
      <point x="352" y="198"/>
      <point x="339" y="190"/>
      <point x="314" y="190" type="curve" smooth="yes"/>
      <point x="289" y="190"/>
      <point x="247" y="234"/>
      <point x="247" y="377" type="curve" smooth="yes"/>
      <point x="247" y="521"/>
      <point x="276" y="555"/>
      <point x="311" y="555" type="curve" smooth="yes"/>
      <point x="346" y="555"/>
      <point x="363" y="527"/>
      <point x="372" y="518" type="curve" smooth="yes"/>
      <point x="380" y="509"/>
      <point x="386" y="493"/>
      <point x="401" y="502" type="curve" smooth="yes"/>
      <point x="416" y="510"/>
      <point x="468" y="554"/>
      <point x="483" y="564" type="curve" smooth="yes"/>
      <point x="499" y="574"/>
      <point x="516" y="580"/>
      <point x="495" y="606" type="curve" smooth="yes"/>
      <point x="474" y="633"/>
      <point x="436" y="720"/>
      <point x="292" y="720" type="curve" smooth="yes"/>
    </contour>
    <contour>
      <point x="442" y="759"/>
      <point x="413" y="775"/>
      <point x="405" y="780" type="curve" smooth="yes"/>
      <point x="378" y="797"/>
      <point x="365" y="804"/>
      <point x="338" y="823" type="curve"/>
      <point x="318" y="834"/>
      <point x="312" y="840"/>
      <point x="289" y="837" type="curve" smooth="yes"/>
      <point x="284" y="837"/>
      <point x="278" y="836"/>
      <point x="271" y="833" type="curve"/>
      <point x="260" y="830"/>
      <point x="242" y="820"/>
      <point x="219" y="807" type="curve"/>
      <point x="189" y="784"/>
      <point x="181" y="783"/>
      <point x="171" y="778" type="curve"/>
      <point x="144" y="761" type="line" smooth="yes"/>
      <point x="131" y="752"/>
      <point x="136" y="733"/>
      <point x="161" y="733" type="curve" smooth="yes"/>
      <point x="174" y="733"/>
      <point x="186" y="734"/>
      <point x="199" y="736" type="curve"/>
      <point x="227" y="744"/>
      <point x="241" y="749"/>
      <point x="256" y="757" type="curve"/>
      <point x="302" y="778" type="line"/>
      <point x="334" y="763" type="line"/>
      <point x="345" y="756"/>
      <point x="356" y="750"/>
      <point x="369" y="745" type="curve"/>
      <point x="396" y="738" type="line"/>
      <point x="420" y="729"/>
      <point x="434" y="725"/>
      <point x="439" y="746" type="curve" smooth="yes"/>
    </contour>
  </outline>
</glyph>
<glyph name="Ccaron" format="1">
  <advance width="528"/>
  <unicode hex="010C"/>
  <outline>
    <contour>
      <point x="300" y="544"/>
      <point x="316" y="523"/>
      <point x="335" y="502" type="curve"/>
      <point x="352" y="481"/>
      <point x="366" y="498"/>
      <point x="382" y="518" type="curve" smooth="yes"/>
      <point x="397" y="538"/>
      <point x="429" y="566"/>
      <point x="448" y="581" type="curve" smooth="yes"/>
      <point x="467" y="596"/>
      <point x="459" y="603"/>
      <point x="448" y="618" type="curve" smooth="yes"/>
      <point x="437" y="634"/>
      <point x="382" y="704"/>
      <point x="271" y="704" type="curve" smooth="yes"/>
      <point x="159" y="704"/>
      <point x="37" y="562"/>
      <point x="37" y="354" type="curve" smooth="yes"/>
      <point x="37" y="146"/>
      <point x="162" y="-12"/>
      <point x="293" y="-12" type="curve" smooth="yes"/>
      <point x="423" y="-12"/>
      <point x="481" y="84"/>
      <point x="492" y="103" type="curve" smooth="yes"/>
      <point x="503" y="123"/>
      <point x="486" y="125"/>
      <point x="467" y="134" type="curve"/>
      <point x="382" y="181" type="line" smooth="yes"/>
      <point x="366" y="190"/>
      <point x="366" y="184"/>
      <point x="355" y="173" type="curve" smooth="yes"/>
      <point x="344" y="162"/>
      <point x="313" y="134"/>
      <point x="285" y="134" type="curve" smooth="yes"/>
      <point x="257" y="134"/>
      <point x="167" y="166"/>
      <point x="167" y="329" type="curve" smooth="yes"/>
      <point x="167" y="493"/>
      <point x="231" y="544"/>
      <point x="275" y="544" type="curve" smooth="yes"/>
    </contour>
    <contour>
      <point x="144" y="810"/>
      <point x="173" y="794"/>
      <point x="181" y="789" type="curve" smooth="yes"/>
      <point x="208" y="772"/>
      <point x="221" y="765"/>
      <point x="248" y="746" type="curve"/>
      <point x="268" y="735"/>
      <point x="274" y="729"/>
      <point x="297" y="732" type="curve" smooth="yes"/>
      <point x="302" y="732"/>
      <point x="308" y="733"/>
      <point x="315" y="736" type="curve"/>
      <point x="326" y="739"/>
      <point x="344" y="749"/>
      <point x="367" y="762" type="curve"/>
      <point x="397" y="785"/>
      <point x="405" y="786"/>
      <point x="415" y="791" type="curve"/>
      <point x="441" y="808" type="line" smooth="yes"/>
      <point x="456" y="817"/>
      <point x="450" y="836"/>
      <point x="425" y="836" type="curve" smooth="yes"/>
      <point x="412" y="836"/>
      <point x="400" y="835"/>
      <point x="387" y="833" type="curve"/>
      <point x="359" y="825"/>
      <point x="345" y="820"/>
      <point x="329" y="812" type="curve" smooth="yes"/>
      <point x="322" y="808"/>
      <point x="307" y="801"/>
      <point x="284" y="791" type="curve"/>
      <point x="252" y="806" type="line"/>
      <point x="241" y="813"/>
      <point x="230" y="819"/>
      <point x="217" y="824" type="curve"/>
      <point x="190" y="831" type="line"/>
      <point x="166" y="840"/>
      <point x="152" y="844"/>
      <point x="147" y="823" type="curve" smooth="yes"/>
    </contour>
  </outline>
</glyph>
<glyph name="dcaron" format="1">
  <advance width="571"/>
  <unicode hex="010F"/>
  <outline>
    <contour>
      <point x="349" y="692"/>
      <point x="303" y="688"/>
      <point x="278" y="691" type="curve" smooth="yes"/>
      <point x="251" y="694"/>
      <point x="221" y="696"/>
      <point x="177" y="696" type="curve" smooth="yes"/>
      <point x="165" y="696"/>
      <point x="151" y="697"/>
      <point x="138" y="697" type="curve" smooth="yes"/>
      <point x="125" y="697"/>
      <point x="104" y="695"/>
      <point x="95" y="695" type="curve" smooth="yes"/>
      <point x="86" y="695"/>
      <point x="82" y="699"/>
      <point x="74" y="698" type="curve"/>
      <point x="65" y="698"/>
      <point x="64" y="684"/>
      <point x="63" y="657" type="curve"/>
      <point x="63" y="629"/>
      <point x="68" y="544"/>
      <point x="68" y="501" type="curve" smooth="yes"/>
      <point x="68" y="458"/>
      <point x="67" y="367"/>
      <point x="67" y="300" type="curve" smooth="yes"/>
      <point x="67" y="231"/>
      <point x="70" y="76"/>
      <point x="70" y="54" type="curve" smooth="yes"/>
      <point x="70" y="31"/>
      <point x="73" y="25"/>
      <point x="70" y="17" type="curve" smooth="yes"/>
      <point x="67" y="10"/>
      <point x="68" y="1"/>
      <point x="84" y="1" type="curve" smooth="yes"/>
      <point x="186" y="1" type="line" smooth="yes"/>
      <point x="213" y="1"/>
      <point x="343" y="9"/>
      <point x="417" y="57" type="curve" smooth="yes"/>
      <point x="490" y="105"/>
      <point x="535" y="247"/>
      <point x="535" y="333" type="curve" smooth="yes"/>
      <point x="535" y="421"/>
      <point x="526" y="536"/>
      <point x="438" y="614" type="curve" smooth="yes"/>
    </contour>
    <contour>
      <point x="235" y="73"/>
      <point x="235" y="105"/>
      <point x="236" y="135" type="curve"/>
      <point x="236" y="186"/>
      <point x="237" y="243"/>
      <point x="237" y="264" type="curve" smooth="yes"/>
      <point x="237" y="307"/>
      <point x="231" y="357"/>
      <point x="231" y="417" type="curve" smooth="yes"/>
      <point x="231" y="446"/>
      <point x="231" y="503"/>
      <point x="234" y="552" type="curve"/>
      <point x="238" y="643" type="line"/>
      <point x="285" y="642"/>
      <point x="326" y="631"/>
      <point x="363" y="609" type="curve" smooth="yes"/>
      <point x="424" y="572"/>
      <point x="488" y="494"/>
      <point x="488" y="333" type="curve" smooth="yes"/>
      <point x="488" y="172"/>
      <point x="424" y="96"/>
      <point x="361" y="64" type="curve" smooth="yes"/>
      <point x="324" y="45"/>
      <point x="282" y="36"/>
      <point x="235" y="39" type="curve"/>
    </contour>
    <contour>
      <point x="442" y="759"/>
      <point x="413" y="775"/>
      <point x="405" y="780" type="curve" smooth="yes"/>
      <point x="378" y="797"/>
      <point x="365" y="804"/>
      <point x="338" y="823" type="curve"/>
      <point x="318" y="834"/>
      <point x="312" y="840"/>
      <point x="289" y="837" type="curve" smooth="yes"/>
      <point x="284" y="837"/>
      <point x="278" y="836"/>
      <point x="271" y="833" type="curve"/>
      <point x="260" y="830"/>
      <point x="242" y="820"/>
      <point x="219" y="807" type="curve"/>
      <point x="189" y="784"/>
      <point x="181" y="783"/>
      <point x="171" y="778" type="curve"/>
      <point x="144" y="761" type="line" smooth="yes"/>
      <point x="131" y="752"/>
      <point x="136" y="733"/>
      <point x="161" y="733" type="curve" smooth="yes"/>
      <point x="174" y="733"/>
      <point x="186" y="734"/>
      <point x="199" y="736" type="curve"/>
      <point x="227" y="744"/>
      <point x="241" y="749"/>
      <point x="256" y="757" type="curve"/>
      <point x="302" y="778" type="line"/>
      <point x="334" y="763" type="line"/>
      <point x="345" y="756"/>
      <point x="356" y="750"/>
      <point x="369" y="745" type="curve"/>
      <point x="396" y="738" type="line"/>
      <point x="420" y="729"/>
      <point x="434" y="725"/>
      <point x="439" y="746" type="curve" smooth="yes"/>
    </contour>
  </outline>
</glyph>
<glyph name="Dcroat" format="1">
  <advance width="577"/>
  <unicode hex="0110"/>
  <outline>
    <contour>
      <point x="171" y="384" type="line"/>
      <point x="45" y="384" type="line"/>
      <point x="13" y="384" type="line" smooth="yes"/>
      <point x="4" y="384"/>
      <point x="2" y="378"/>
      <point x="2" y="365" type="curve" smooth="yes"/>
      <point x="2" y="338" type="line" smooth="yes"/>
      <point x="2" y="331"/>
      <point x="2" y="325"/>
      <point x="10" y="325" type="curve"/>
      <point x="15" y="328"/>
      <point x="53" y="328"/>
      <point x="61" y="328" type="curve" smooth="yes"/>
      <point x="193" y="328" type="line" smooth="yes"/>
      <point x="217" y="328"/>
      <point x="259" y="325"/>
      <point x="277" y="325" type="curve" smooth="yes"/>
      <point x="296" y="325"/>
      <point x="299" y="329"/>
      <point x="299" y="338" type="curve" smooth="yes"/>
      <point x="299" y="368" type="line" smooth="yes"/>
      <point x="299" y="379"/>
      <point x="299" y="387"/>
      <point x="281" y="384" type="curve"/>
    </contour>
    <contour>
      <point x="216" y="700"/>
      <point x="192" y="699"/>
      <point x="171" y="698" type="curve" smooth="yes"/>
      <point x="135" y="696" type="line"/>
      <point x="111" y="696"/>
      <point x="68" y="701"/>
      <point x="68" y="681" type="curve" smooth="yes"/>
      <point x="68" y="660"/>
      <point x="70" y="592"/>
      <point x="70" y="511" type="curve" smooth="yes"/>
      <point x="70" y="431"/>
      <point x="62" y="381"/>
      <point x="62" y="303" type="curve" smooth="yes"/>
      <point x="62" y="224"/>
      <point x="67" y="175"/>
      <point x="67" y="155" type="curve" smooth="yes"/>
      <point x="67" y="134"/>
      <point x="70" y="84"/>
      <point x="70" y="60" type="curve" smooth="yes"/>
      <point x="70" y="36"/>
      <point x="64" y="0"/>
      <point x="88" y="0" type="curve" smooth="yes"/>
      <point x="113" y="0"/>
      <point x="185" y="2"/>
      <point x="224" y="2" type="curve" smooth="yes"/>
      <point x="262" y="2"/>
      <point x="542" y="14"/>
      <point x="542" y="315" type="curve" smooth="yes"/>
      <point x="542" y="639"/>
      <point x="332" y="700"/>
      <point x="239" y="700" type="curve" smooth="yes"/>
    </contour>
    <contour>
      <point x="201" y="231"/>
      <point x="202" y="249"/>
      <point x="203" y="266" type="curve" smooth="yes"/>
      <point x="204" y="295"/>
      <point x="206" y="327"/>
      <point x="206" y="350" type="curve" smooth="yes"/>
      <point x="206" y="391"/>
      <point x="218" y="448"/>
      <point x="209" y="488" type="curve"/>
      <point x="240" y="487"/>
      <point x="268" y="482"/>
      <point x="293" y="474" type="curve"/>
      <point x="346" y="454"/>
      <point x="366" y="414"/>
      <point x="366" y="363" type="curve" smooth="yes"/>
      <point x="365" y="292"/>
      <point x="343" y="253"/>
      <point x="292" y="234" type="curve" smooth="yes"/>
      <point x="268" y="225"/>
      <point x="238" y="219"/>
      <point x="201" y="214" type="curve"/>
    </contour>
  </outline>
</glyph>
<glyph name="Gcircumflex" format="1">
  <advance width="592"/>
  <unicode hex="011C"/>
  <outline>
    <contour>
      <point x="239" y="719"/>
      <point x="41" y="685"/>
      <point x="41" y="338" type="curve" smooth="yes"/>
      <point x="41" y="37"/>
      <point x="253" y="-14"/>
      <point x="316" y="-14" type="curve" smooth="yes"/>
      <point x="401" y="-14"/>
      <point x="541" y="42"/>
      <point x="557" y="311" type="curve"/>
      <point x="558" y="317"/>
      <point x="557" y="323"/>
      <point x="556" y="328" type="curve" smooth="yes"/>
      <point x="553" y="337"/>
      <point x="548" y="345"/>
      <point x="533" y="346" type="curve" smooth="yes"/>
      <point x="502" y="347"/>
      <point x="446" y="358"/>
      <point x="403" y="363" type="curve" smooth="yes"/>
      <point x="363" y="367"/>
      <point x="330" y="372"/>
      <point x="321" y="373" type="curve" smooth="yes"/>
      <point x="310" y="374"/>
      <point x="303" y="376"/>
      <point x="296" y="352" type="curve" smooth="yes"/>
      <point x="292" y="336"/>
      <point x="289" y="326"/>
      <point x="288" y="318" type="curve" smooth="yes"/>
      <point x="287" y="310"/>
      <point x="286" y="302"/>
      <point x="307" y="299" type="curve" smooth="yes"/>
      <point x="318" y="298"/>
      <point x="330" y="296"/>
      <point x="342" y="294" type="curve" smooth="yes"/>
      <point x="362" y="290" type="line"/>
      <point x="362" y="271"/>
      <point x="360" y="255"/>
      <point x="355" y="240" type="curve" smooth="yes"/>
      <point x="347" y="215"/>
      <point x="331" y="190"/>
      <point x="299" y="190" type="curve" smooth="yes"/>
      <point x="232" y="190"/>
      <point x="236" y="286"/>
      <point x="236" y="342" type="curve" smooth="yes"/>
      <point x="236" y="400"/>
      <point x="256" y="486"/>
      <point x="300" y="486" type="curve" smooth="yes"/>
      <point x="325" y="486"/>
      <point x="335" y="461"/>
      <point x="342" y="452" type="curve" smooth="yes"/>
      <point x="349" y="443"/>
      <point x="349" y="429"/>
      <point x="365" y="436" type="curve"/>
      <point x="368" y="436"/>
      <point x="370" y="437"/>
      <point x="373" y="439" type="curve" smooth="yes"/>
      <point x="378" y="442"/>
      <point x="384" y="445"/>
      <point x="392" y="452" type="curve"/>
      <point x="409" y="463"/>
      <point x="428" y="477"/>
      <point x="447" y="488" type="curve"/>
      <point x="467" y="497"/>
      <point x="503" y="517"/>
      <point x="519" y="525" type="curve" smooth="yes"/>
      <point x="535" y="534"/>
      <point x="539" y="532"/>
      <point x="536" y="543" type="curve"/>
      <point x="532" y="552"/>
      <point x="526" y="572"/>
      <point x="521" y="583" type="curve" smooth="yes"/>
      <point x="516" y="593"/>
      <point x="460" y="719"/>
      <point x="311" y="719" type="curve" smooth="yes"/>
    </contour>
    <contour>
      <point x="463" y="759"/>
      <point x="434" y="775"/>
      <point x="426" y="780" type="curve" smooth="yes"/>
      <point x="399" y="797"/>
      <point x="386" y="804"/>
      <point x="359" y="823" type="curve"/>
      <point x="339" y="834"/>
      <point x="333" y="840"/>
      <point x="310" y="837" type="curve" smooth="yes"/>
      <point x="305" y="837"/>
      <point x="299" y="836"/>
      <point x="292" y="833" type="curve"/>
      <point x="281" y="830"/>
      <point x="263" y="820"/>
      <point x="240" y="807" type="curve"/>
      <point x="210" y="784"/>
      <point x="202" y="783"/>
      <point x="192" y="778" type="curve"/>
      <point x="165" y="761" type="line" smooth="yes"/>
      <point x="152" y="752"/>
      <point x="157" y="733"/>
      <point x="182" y="733" type="curve" smooth="yes"/>
      <point x="195" y="733"/>
      <point x="207" y="734"/>
      <point x="220" y="736" type="curve"/>
      <point x="248" y="744"/>
      <point x="262" y="749"/>
      <point x="277" y="757" type="curve"/>
      <point x="323" y="778" type="line"/>
      <point x="355" y="763" type="line"/>
      <point x="366" y="756"/>
      <point x="377" y="750"/>
      <point x="390" y="745" type="curve"/>
      <point x="417" y="738" type="line"/>
      <point x="441" y="729"/>
      <point x="455" y="725"/>
      <point x="460" y="746" type="curve" smooth="yes"/>
    </contour>
  </outline>
</glyph>
<glyph name="gcommaaccent" format="1">
  <advance width="533"/>
  <unicode hex="0123"/>
  <outline>
    <contour>
      <point x="211" y="638"/>
      <point x="153" y="596"/>
      <point x="110" y="548" type="curve" smooth="yes"/>
      <point x="67" y="500"/>
      <point x="39" y="433"/>
      <point x="39" y="344" type="curve" smooth="yes"/>
      <point x="39" y="268"/>
      <point x="58" y="188"/>
      <point x="97" y="113" type="curve" smooth="yes"/>
      <point x="136" y="40"/>
      <point x="194" y="-13"/>
      <point x="274" y="-13" type="curve" smooth="yes"/>
      <point x="500" y="-13"/>
      <point x="503" y="219"/>
      <point x="503" y="238" type="curve" smooth="yes"/>
      <point x="504" y="257"/>
      <point x="498" y="271"/>
      <point x="486" y="271" type="curve" smooth="yes"/>
      <point x="475" y="271"/>
      <point x="297" y="266"/>
      <point x="281" y="266" type="curve" smooth="yes"/>
      <point x="235" y="266" type="line" smooth="yes"/>
      <point x="231" y="266"/>
      <point x="224" y="267"/>
      <point x="224" y="251" type="curve" smooth="yes"/>
      <point x="224" y="212" type="line" smooth="yes"/>
      <point x="224" y="205"/>
      <point x="226" y="196"/>
      <point x="241" y="196" type="curve" smooth="yes"/>
      <point x="255" y="196"/>
      <point x="320" y="195"/>
      <point x="342" y="195" type="curve" smooth="yes"/>
      <point x="353" y="195"/>
      <point x="371" y="194"/>
      <point x="387" y="194" type="curve" smooth="yes"/>
      <point x="416" y="194" type="line"/>
      <point x="413" y="173"/>
      <point x="406" y="154"/>
      <point x="395" y="137" type="curve" smooth="yes"/>
      <point x="376" y="109"/>
      <point x="345" y="81"/>
      <point x="285" y="81" type="curve" smooth="yes"/>
      <point x="226" y="81"/>
      <point x="187" y="124"/>
      <point x="162" y="179" type="curve" smooth="yes"/>
      <point x="138" y="234"/>
      <point x="128" y="283"/>
      <point x="128" y="318" type="curve" smooth="yes"/>
      <point x="128" y="366"/>
      <point x="134" y="408"/>
      <point x="158" y="452" type="curve" smooth="yes"/>
      <point x="183" y="497"/>
      <point x="216" y="541"/>
      <point x="260" y="541" type="curve" smooth="yes"/>
      <point x="321" y="541"/>
      <point x="362" y="484"/>
      <point x="370" y="476" type="curve" smooth="yes"/>
      <point x="377" y="468"/>
      <point x="388" y="463"/>
      <point x="397" y="470" type="curve" smooth="yes"/>
      <point x="407" y="477"/>
      <point x="436" y="501"/>
      <point x="444" y="509" type="curve" smooth="yes"/>
      <point x="452" y="517"/>
      <point x="460" y="533"/>
      <point x="445" y="549" type="curve" smooth="yes"/>
      <point x="430" y="564"/>
      <point x="397" y="638"/>
      <point x="274" y="638" type="curve" smooth="yes"/>
    </contour>
    <contour>
      <point x="304" y="-41" type="line"/>
      <point x="264" y="-41" type="line" smooth="yes"/>
      <point x="257" y="-41"/>
      <point x="250" y="-44"/>
      <point x="249" y="-51" type="curve"/>
      <point x="242" y="-71" type="line"/>
      <point x="234" y="-103" type="line"/>
      <point x="203" y="-201" type="line"/>
      <point x="203" y="-206"/>
      <point x="201" y="-211"/>
      <point x="209" y="-211" type="curve"/>
      <point x="214" y="-212"/>
      <point x="225" y="-212"/>
      <point x="241" y="-212" type="curve" smooth="yes"/>
      <point x="258" y="-212"/>
      <point x="268" y="-212"/>
      <point x="271" y="-211" type="curve" smooth="yes"/>
      <point x="275" y="-208"/>
      <point x="278" y="-201"/>
      <point x="279" y="-198" type="curve" smooth="yes"/>
      <point x="279" y="-195"/>
      <point x="281" y="-187"/>
      <point x="284" y="-176" type="curve" smooth="yes"/>
      <point x="286" y="-171"/>
      <point x="291" y="-157"/>
      <point x="298" y="-134" type="curve" smooth="yes"/>
      <point x="310" y="-96" type="line" smooth="yes"/>
      <point x="314" y="-83"/>
      <point x="319" y="-73"/>
      <point x="320" y="-66" type="curve"/>
      <point x="323" y="-61"/>
      <point x="324" y="-57"/>
      <point x="325" y="-49" type="curve"/>
      <point x="329" y="-42"/>
      <point x="325" y="-41"/>
      <point x="320" y="-41" type="curve" smooth="yes"/>
    </contour>
  </outline>
</glyph>
<glyph name="hbar" format="1">
  <advance width="622"/>
  <unicode hex="0127"/>
  <outline>
    <contour>
      <point x="179" y="604" type="line" smooth="yes"/>
      <point x="151" y="604"/>
      <point x="125" y="601"/>
      <point x="110" y="601" type="curve" smooth="yes"/>
      <point x="50" y="601" type="line"/>
      <point x="36" y="604"/>
      <point x="29" y="603"/>
      <point x="29" y="597" type="curve"/>
      <point x="25" y="590"/>
      <point x="33" y="549"/>
      <point x="33" y="539" type="curve" smooth="yes"/>
      <point x="33" y="528"/>
      <point x="28" y="523"/>
      <point x="47" y="523" type="curve" smooth="yes"/>
      <point x="54" y="523"/>
      <point x="63" y="522"/>
      <point x="96" y="521" type="curve" smooth="yes"/>
      <point x="113" y="521"/>
      <point x="121" y="521"/>
      <point x="119" y="521" type="curve" smooth="yes"/>
      <point x="117" y="521"/>
      <point x="119" y="522"/>
      <point x="124" y="523" type="curve"/>
      <point x="147" y="523"/>
      <point x="202" y="526"/>
      <point x="224" y="526" type="curve" smooth="yes"/>
      <point x="545" y="526"/>
      <point x="572" y="529"/>
      <point x="579" y="529" type="curve" smooth="yes"/>
      <point x="592" y="529"/>
      <point x="600" y="525"/>
      <point x="600" y="536" type="curve" smooth="yes"/>
      <point x="600" y="587" type="line" smooth="yes"/>
      <point x="600" y="594"/>
      <point x="605" y="604"/>
      <point x="593" y="604" type="curve" smooth="yes"/>
      <point x="225" y="604" type="line"/>
    </contour>
    <contour>
      <point x="214" y="476" type="line" smooth="yes"/>
      <point x="215" y="503"/>
      <point x="216" y="535"/>
      <point x="216" y="562" type="curve" smooth="yes"/>
      <point x="216" y="615"/>
      <point x="214" y="675"/>
      <point x="214" y="683" type="curve" smooth="yes"/>
      <point x="214" y="691"/>
      <point x="218" y="702"/>
      <point x="199" y="701" type="curve" smooth="yes"/>
      <point x="179" y="700"/>
      <point x="169" y="700"/>
      <point x="149" y="703" type="curve" smooth="yes"/>
      <point x="138" y="704"/>
      <point x="124" y="709"/>
      <point x="124" y="690" type="curve" smooth="yes"/>
      <point x="124" y="671"/>
      <point x="115" y="540"/>
      <point x="115" y="505" type="curve" smooth="yes"/>
      <point x="115" y="468"/>
      <point x="111" y="384"/>
      <point x="116" y="345" type="curve"/>
      <point x="119" y="305"/>
      <point x="115" y="163"/>
      <point x="115" y="137" type="curve" smooth="yes"/>
      <point x="115" y="111"/>
      <point x="112" y="39"/>
      <point x="112" y="26" type="curve" smooth="yes"/>
      <point x="112" y="13"/>
      <point x="116" y="-1"/>
      <point x="129" y="0" type="curve" smooth="yes"/>
      <point x="150" y="1"/>
      <point x="159" y="5"/>
      <point x="184" y="0" type="curve"/>
      <point x="199" y="0"/>
      <point x="214" y="-3"/>
      <point x="211" y="17" type="curve" smooth="yes"/>
      <point x="208" y="36"/>
      <point x="209" y="96"/>
      <point x="209" y="133" type="curve" smooth="yes"/>
      <point x="209" y="152"/>
      <point x="209" y="189"/>
      <point x="212" y="224" type="curve"/>
      <point x="215" y="287" type="line"/>
      <point x="224" y="286"/>
      <point x="232" y="286"/>
      <point x="239" y="286" type="curve" smooth="yes"/>
      <point x="266" y="285"/>
      <point x="286" y="285"/>
      <point x="297" y="286" type="curve" smooth="yes"/>
      <point x="306" y="286"/>
      <point x="324" y="287"/>
      <point x="340" y="287" type="curve" smooth="yes"/>
      <point x="369" y="287" type="line"/>
      <point x="369" y="271"/>
      <point x="369" y="256"/>
      <point x="370" y="241" type="curve"/>
      <point x="370" y="216"/>
      <point x="371" y="186"/>
      <point x="372" y="167" type="curve" smooth="yes"/>
      <point x="375" y="131"/>
      <point x="376" y="39"/>
      <point x="376" y="25" type="curve" smooth="yes"/>
      <point x="376" y="10"/>
      <point x="373" y="0"/>
      <point x="392" y="1" type="curve" smooth="yes"/>
      <point x="411" y="1"/>
      <point x="454" y="1"/>
      <point x="482" y="4" type="curve" smooth="yes"/>
      <point x="510" y="7"/>
      <point x="521" y="5"/>
      <point x="528" y="4" type="curve"/>
      <point x="536" y="4"/>
      <point x="549" y="0"/>
      <point x="548" y="21" type="curve"/>
      <point x="545" y="40"/>
      <point x="544" y="118"/>
      <point x="544" y="158" type="curve" smooth="yes"/>
      <point x="544" y="199"/>
      <point x="542" y="316"/>
      <point x="542" y="356" type="curve" smooth="yes"/>
      <point x="542" y="395"/>
      <point x="554" y="506"/>
      <point x="554" y="538" type="curve" smooth="yes"/>
      <point x="554" y="571"/>
      <point x="561" y="671"/>
      <point x="561" y="688" type="curve"/>
      <point x="558" y="705"/>
      <point x="563" y="709"/>
      <point x="543" y="712" type="curve" smooth="yes"/>
      <point x="522" y="715"/>
      <point x="485" y="717"/>
      <point x="461" y="714" type="curve" smooth="yes"/>
      <point x="438" y="711"/>
      <point x="420" y="708"/>
      <point x="405" y="708" type="curve" smooth="yes"/>
      <point x="390" y="707"/>
      <point x="388" y="701"/>
      <point x="387" y="682" type="curve" smooth="yes"/>
      <point x="387" y="664"/>
      <point x="383" y="531"/>
      <point x="383" y="507" type="curve"/>
      <point x="380" y="459" type="line"/>
      <point x="377" y="429" type="line"/>
      <point x="354" y="431" type="line" smooth="yes"/>
      <point x="339" y="432"/>
      <point x="326" y="432"/>
      <point x="314" y="431" type="curve" smooth="yes"/>
      <point x="303" y="430"/>
      <point x="288" y="430"/>
      <point x="257" y="430" type="curve" smooth="yes"/>
      <point x="212" y="430" type="line"/>
    </contour>
  </outline>
</glyph>
<glyph name="Itilde" format="1">
  <advance width="176"/>
  <unicode hex="0128"/>
  <outline>
    <contour>
      <point x="117" y="685"/>
      <point x="123" y="706"/>
      <point x="108" y="706" type="curve" smooth="yes"/>
      <point x="93" y="706"/>
      <point x="78" y="707"/>
      <point x="71" y="707" type="curve" smooth="yes"/>
      <point x="52" y="707"/>
      <point x="55" y="683"/>
      <point x="56" y="660" type="curve"/>
      <point x="59" y="636"/>
      <point x="49" y="442"/>
      <point x="49" y="376" type="curve" smooth="yes"/>
      <point x="49" y="310"/>
      <point x="45" y="73"/>
      <point x="45" y="35" type="curve" smooth="yes"/>
      <point x="45" y="-3"/>
      <point x="39" y="-7"/>
      <point x="55" y="-7" type="curve" smooth="yes"/>
      <point x="70" y="-7"/>
      <point x="91" y="-8"/>
      <point x="100" y="-3" type="curve" smooth="yes"/>
      <point x="108" y="1"/>
      <point x="113" y="3"/>
      <point x="109" y="27" type="curve"/>
      <point x="106" y="52"/>
      <point x="103" y="227"/>
      <point x="103" y="279" type="curve" smooth="yes"/>
      <point x="103" y="330"/>
      <point x="111" y="501"/>
      <point x="111" y="555" type="curve" smooth="yes"/>
      <point x="112" y="610"/>
      <point x="113" y="648"/>
      <point x="116" y="668" type="curve"/>
    </contour>
    <contour>
      <point x="-62" y="823"/>
      <point x="-78" y="836"/>
      <point x="-81" y="823" type="curve" smooth="yes"/>
      <point x="-84" y="811"/>
      <point x="-83" y="795"/>
      <point x="-83" y="787" type="curve" smooth="yes"/>
      <point x="-83" y="778"/>
      <point x="-78" y="764"/>
      <point x="-17" y="764" type="curve" smooth="yes"/>
      <point x="22" y="764"/>
      <point x="38" y="769"/>
      <point x="73" y="772" type="curve" smooth="yes"/>
      <point x="108" y="775"/>
      <point x="131" y="782"/>
      <point x="178" y="783" type="curve" smooth="yes"/>
      <point x="202" y="783"/>
      <point x="225" y="771"/>
      <point x="244" y="771" type="curve" smooth="yes"/>
      <point x="259" y="771"/>
      <point x="267" y="776"/>
      <point x="267" y="787" type="curve" smooth="yes"/>
      <point x="267" y="802" type="line"/>
      <point x="265" y="810"/>
      <point x="276" y="825"/>
      <point x="238" y="827" type="curve"/>
      <point x="219" y="830"/>
      <point x="198" y="831"/>
      <point x="174" y="831" type="curve" smooth="yes"/>
      <point x="122" y="831"/>
      <point x="83" y="828"/>
      <point x="55" y="823" type="curve" smooth="yes"/>
      <point x="27" y="818"/>
      <point x="11" y="814"/>
      <point x="-17" y="814" type="curve"/>
    </contour>
  </outline>
</glyph>
